<svg xmlns="http://www.w3.org/2000/svg" xmlns:xlink="http://www.w3.org/1999/xlink" width="500" viewBox="0 0 375 374.999991" height="500" preserveAspectRatio="xMidYMid meet"><defs><clipPath id="bbd9c39642"><path d="M 1.355469 131.648438 L 373.675781 131.648438 L 373.675781 243.398438 L 1.355469 243.398438 Z M 1.355469 131.648438 " clip-rule="nonzero"></path></clipPath></defs><g clip-path="url(#bbd9c39642)"><path fill="#b6b6b6" d="M 347.414062 131.648438 L 22.070312 131.648438 C 20.21875 131.675781 18.375 131.839844 16.546875 132.140625 C 14.730469 132.449219 12.972656 133.03125 11.332031 133.871094 C 9.683594 134.710938 8.175781 135.808594 6.867188 137.117188 C 5.554688 138.425781 4.460938 139.9375 3.617188 141.589844 C 2.769531 143.25 2.183594 145.035156 1.875 146.878906 C 1.566406 148.703125 1.402344 150.546875 1.386719 152.398438 C 1.339844 153.253906 1.339844 154.089844 1.339844 154.9375 L 1.339844 220.125 C 1.339844 220.980469 1.339844 221.816406 1.386719 222.671875 C 1.402344 224.523438 1.570312 226.371094 1.875 228.195312 C 2.179688 230.007812 2.761719 231.769531 3.597656 233.410156 C 5.285156 236.746094 7.984375 239.464844 11.3125 241.171875 C 12.953125 242.011719 14.710938 242.601562 16.523438 242.917969 C 18.351562 243.214844 20.199219 243.375 22.050781 243.398438 L 352.917969 243.398438 C 354.765625 243.378906 356.609375 243.214844 358.429688 242.917969 C 360.261719 242.597656 362.035156 242.011719 363.695312 241.171875 C 365.347656 240.335938 366.855469 239.242188 368.164062 237.925781 C 369.480469 236.617188 370.582031 235.109375 371.425781 233.453125 C 372.25 231.8125 372.828125 230.054688 373.128906 228.238281 C 373.4375 226.414062 373.609375 224.566406 373.640625 222.71875 L 373.640625 152.429688 C 373.609375 150.578125 373.4375 148.734375 373.128906 146.90625 C 372.824219 145.09375 372.25 143.335938 371.425781 141.691406 C 369.734375 138.34375 367.039062 135.613281 363.71875 133.882812 C 362.054688 133.054688 360.28125 132.480469 358.449219 132.175781 C 356.628906 131.875 354.789062 131.710938 352.941406 131.6875 L 350.402344 131.6875 Z M 347.414062 131.648438 " fill-opacity="1" fill-rule="nonzero"></path></g><path fill="#000000" d="M 24.632812 240.992188 L 22.136719 240.992188 C 20.410156 240.96875 18.6875 240.820312 16.984375 240.546875 C 15.398438 240.277344 13.859375 239.773438 12.421875 239.054688 C 9.558594 237.589844 7.226562 235.261719 5.753906 232.402344 C 5.03125 230.960938 4.527344 229.417969 4.265625 227.828125 C 3.980469 226.117188 3.828125 224.390625 3.8125 222.65625 C 3.8125 222.074219 3.765625 220.140625 3.765625 220.140625 L 3.765625 154.9375 C 3.765625 154.9375 3.765625 153.03125 3.8125 152.472656 C 3.824219 150.738281 3.972656 149.007812 4.257812 147.296875 C 4.515625 145.699219 5.019531 144.148438 5.746094 142.707031 C 6.472656 141.285156 7.417969 139.988281 8.554688 138.867188 C 9.6875 137.734375 10.992188 136.78125 12.417969 136.042969 C 13.855469 135.324219 15.394531 134.824219 16.976562 134.554688 C 18.6875 134.273438 20.414062 134.121094 22.144531 134.101562 L 352.914062 134.101562 C 354.628906 134.113281 356.34375 134.265625 358.035156 134.546875 C 359.636719 134.808594 361.1875 135.3125 362.636719 136.039062 C 365.507812 137.515625 367.835938 139.863281 369.296875 142.742188 C 370.019531 144.175781 370.523438 145.710938 370.785156 147.296875 C 371.070312 149.019531 371.230469 150.761719 371.261719 152.511719 L 371.261719 222.65625 C 371.238281 224.371094 371.078125 226.078125 370.792969 227.765625 C 370.539062 229.371094 370.035156 230.921875 369.304688 232.371094 C 367.824219 235.21875 365.496094 237.539062 362.648438 239.011719 C 361.199219 239.734375 359.648438 240.238281 358.054688 240.5 C 356.347656 240.777344 354.625 240.925781 352.898438 240.949219 L 24.628906 240.949219 Z M 24.632812 240.992188 " fill-opacity="1" fill-rule="nonzero"></path><path fill="#ffffff" d="M 139.554688 207.09375 L 126.457031 207.09375 L 123.277344 215.839844 L 117.523438 215.839844 L 130.332031 183.164062 L 135.765625 183.164062 L 148.863281 215.839844 L 142.839844 215.839844 Z M 128.125 202.625 L 137.882812 202.625 L 134.386719 193.265625 C 133.910156 191.976562 133.433594 190.546875 132.972656 188.980469 C 132.550781 190.367188 132.085938 191.777344 131.597656 193.222656 Z M 128.125 202.625 " fill-opacity="1" fill-rule="nonzero"></path><path fill="#ffffff" d="M 151.183594 197.460938 C 151.183594 195.65625 151.121094 193.671875 151.003906 191.5 L 156.214844 191.5 C 156.410156 192.523438 156.546875 193.554688 156.617188 194.59375 C 157.53125 193.5 158.667969 192.613281 159.953125 192.003906 C 161.238281 191.390625 162.640625 191.0625 164.0625 191.046875 C 165.734375 191.019531 167.371094 191.492188 168.773438 192.402344 C 170.171875 193.3125 171.265625 194.621094 171.921875 196.15625 C 172.835938 198.269531 173.273438 200.558594 173.195312 202.863281 C 173.25 205.371094 172.742188 207.863281 171.703125 210.148438 C 170.835938 212.046875 169.421875 213.640625 167.636719 214.722656 C 165.804688 215.785156 163.71875 216.320312 161.597656 216.28125 C 159.933594 216.28125 158.28125 215.996094 156.707031 215.445312 L 156.707031 225.527344 L 151.136719 226.003906 Z M 165.820312 209.878906 C 166.953125 208.390625 167.527344 206.15625 167.527344 203.175781 C 167.527344 200.457031 167.054688 198.472656 166.113281 197.214844 C 165.6875 196.628906 165.125 196.160156 164.476562 195.839844 C 163.828125 195.519531 163.109375 195.363281 162.390625 195.382812 C 161.347656 195.367188 160.320312 195.625 159.410156 196.125 C 158.441406 196.675781 157.5625 197.367188 156.796875 198.175781 L 156.796875 211.214844 C 157.414062 211.503906 158.0625 211.71875 158.734375 211.855469 C 159.453125 212.011719 160.1875 212.089844 160.921875 212.09375 C 161.855469 212.148438 162.792969 211.976562 163.644531 211.589844 C 164.5 211.207031 165.246094 210.617188 165.820312 209.878906 Z M 165.820312 209.878906 " fill-opacity="1" fill-rule="nonzero"></path><path fill="#ffffff" d="M 176.582031 197.460938 C 176.582031 195.65625 176.523438 193.671875 176.402344 191.5 L 181.617188 191.5 C 181.816406 192.519531 181.953125 193.554688 182.027344 194.59375 C 184.195312 192.226562 186.675781 191.046875 189.472656 191.046875 C 191.140625 191.019531 192.78125 191.492188 194.179688 192.402344 C 195.578125 193.3125 196.675781 194.621094 197.328125 196.15625 C 198.246094 198.269531 198.679688 200.558594 198.601562 202.863281 C 198.671875 205.367188 198.175781 207.859375 197.148438 210.148438 C 196.28125 212.046875 194.859375 213.640625 193.078125 214.722656 C 191.242188 215.785156 189.15625 216.324219 187.039062 216.28125 C 185.371094 216.28125 183.71875 215.996094 182.144531 215.445312 L 182.144531 225.527344 L 176.574219 226.003906 Z M 191.246094 209.878906 C 192.375 208.355469 192.941406 206.121094 192.941406 203.175781 C 192.941406 200.457031 192.472656 198.472656 191.535156 197.214844 C 191.109375 196.628906 190.546875 196.160156 189.898438 195.839844 C 189.25 195.519531 188.535156 195.363281 187.8125 195.382812 C 186.769531 195.371094 185.746094 195.625 184.832031 196.125 C 183.863281 196.675781 182.984375 197.367188 182.21875 198.175781 L 182.21875 211.214844 C 182.835938 211.503906 183.488281 211.71875 184.15625 211.855469 C 184.875 212.011719 185.609375 212.089844 186.34375 212.09375 C 187.277344 212.148438 188.214844 211.976562 189.066406 211.589844 C 189.921875 211.203125 190.667969 210.617188 191.246094 209.878906 Z M 191.246094 209.878906 " fill-opacity="1" fill-rule="nonzero"></path><path fill="#ffffff" d="M 208.839844 214.296875 C 206.460938 212.992188 204.527344 211 203.292969 208.582031 C 201.941406 205.851562 201.277344 202.832031 201.355469 199.785156 C 201.261719 196.523438 202.03125 193.296875 203.589844 190.433594 C 205 187.949219 207.113281 185.9375 209.667969 184.660156 C 212.351562 183.347656 215.304688 182.6875 218.289062 182.730469 C 220.101562 182.722656 221.90625 182.929688 223.667969 183.355469 C 225.3125 183.742188 226.914062 184.3125 228.433594 185.054688 L 226.988281 189.335938 C 224.355469 188.007812 221.457031 187.285156 218.507812 187.222656 C 216.425781 187.1875 214.371094 187.699219 212.550781 188.710938 C 210.820312 189.703125 209.433594 191.195312 208.566406 192.988281 C 207.566406 195.117188 207.082031 197.449219 207.152344 199.796875 C 207.113281 201.914062 207.484375 204.019531 208.238281 205.996094 C 208.921875 207.746094 210.128906 209.246094 211.691406 210.289062 C 213.472656 211.402344 215.550781 211.953125 217.648438 211.867188 C 218.738281 211.863281 219.824219 211.773438 220.898438 211.59375 C 221.933594 211.425781 222.957031 211.164062 223.941406 210.800781 L 223.941406 204.15625 L 216.390625 204.15625 L 216.390625 199.828125 L 229.355469 199.828125 L 229.355469 213.605469 C 227.476562 214.480469 225.503906 215.152344 223.480469 215.609375 C 221.472656 216.070312 219.421875 216.304688 217.359375 216.308594 C 214.394531 216.378906 211.460938 215.6875 208.839844 214.296875 Z M 208.839844 214.296875 " fill-opacity="1" fill-rule="nonzero"></path><path fill="#ffffff" d="M 249.140625 215.839844 C 248.929688 214.773438 248.800781 213.695312 248.753906 212.613281 C 247.824219 213.695312 246.6875 214.582031 245.410156 215.222656 C 243.96875 215.949219 242.371094 216.320312 240.757812 216.292969 C 239.433594 216.308594 238.125 216.027344 236.929688 215.464844 C 235.789062 214.933594 234.839844 214.066406 234.195312 212.984375 C 233.484375 211.757812 233.132812 210.355469 233.175781 208.941406 C 233.132812 207.863281 233.34375 206.792969 233.785156 205.8125 C 234.230469 204.835938 234.894531 203.96875 235.730469 203.292969 C 237.429688 201.882812 240.261719 201.179688 244.226562 201.183594 C 245.703125 201.183594 247.179688 201.289062 248.644531 201.496094 L 248.644531 201.019531 C 248.644531 198.875 248.1875 197.359375 247.273438 196.476562 C 246.179688 195.535156 244.765625 195.0625 243.324219 195.15625 C 242.039062 195.171875 240.757812 195.347656 239.511719 195.679688 C 238.28125 195.976562 237.078125 196.390625 235.925781 196.914062 L 235.046875 192.863281 C 236.308594 192.324219 237.621094 191.90625 238.960938 191.617188 C 240.652344 191.234375 242.378906 191.046875 244.109375 191.050781 C 245.941406 191 247.765625 191.328125 249.46875 192.011719 C 250.96875 192.675781 252.1875 193.839844 252.917969 195.304688 C 253.832031 197.269531 254.257812 199.421875 254.160156 201.585938 L 254.160156 211.273438 C 254.160156 212.265625 254.222656 213.789062 254.339844 215.847656 Z M 245.804688 211.367188 C 246.878906 210.871094 247.84375 210.164062 248.644531 209.289062 L 248.644531 204.820312 C 247.40625 204.671875 246.164062 204.589844 244.917969 204.574219 C 242.621094 204.574219 241.03125 204.945312 240.148438 205.691406 C 239.714844 206.054688 239.371094 206.511719 239.144531 207.03125 C 238.917969 207.546875 238.808594 208.109375 238.828125 208.671875 C 238.789062 209.160156 238.851562 209.648438 239.019531 210.109375 C 239.183594 210.570312 239.445312 210.988281 239.789062 211.339844 C 240.515625 211.953125 241.449219 212.261719 242.394531 212.210938 C 243.582031 212.191406 244.746094 211.90625 245.804688 211.367188 Z M 245.804688 211.367188 " fill-opacity="1" fill-rule="nonzero"></path><path fill="#ffffff" d="M 258.464844 210 L 258.464844 181.242188 L 264.003906 180.792969 L 264.003906 209.011719 C 263.925781 209.792969 264.109375 210.582031 264.53125 211.246094 C 264.746094 211.472656 265.007812 211.652344 265.300781 211.765625 C 265.589844 211.875 265.902344 211.921875 266.214844 211.894531 C 266.71875 211.871094 267.222656 211.785156 267.703125 211.640625 L 268.359375 215.632812 C 267.738281 215.871094 267.089844 216.039062 266.429688 216.140625 C 265.71875 216.265625 265 216.328125 264.277344 216.335938 C 260.402344 216.308594 258.464844 214.199219 258.464844 210 Z M 258.464844 210 " fill-opacity="1" fill-rule="nonzero"></path><path fill="#ffffff" d="M 272.324219 210 L 272.324219 181.242188 L 277.871094 180.792969 L 277.871094 209.011719 C 277.792969 209.792969 277.976562 210.582031 278.398438 211.246094 C 278.613281 211.472656 278.875 211.652344 279.164062 211.765625 C 279.457031 211.875 279.769531 211.921875 280.082031 211.894531 C 280.585938 211.871094 281.089844 211.785156 281.570312 211.640625 L 282.21875 215.632812 C 281.597656 215.871094 280.953125 216.039062 280.296875 216.140625 C 279.582031 216.265625 278.863281 216.328125 278.140625 216.335938 C 274.265625 216.308594 272.328125 214.199219 272.324219 210 Z M 272.324219 210 " fill-opacity="1" fill-rule="nonzero"></path><path fill="#ffffff" d="M 304.996094 204.382812 L 289.082031 204.382812 C 289.335938 209.480469 291.765625 212.03125 296.367188 212.03125 C 297.546875 212.027344 298.726562 211.886719 299.875 211.617188 C 301.046875 211.34375 302.195312 210.96875 303.308594 210.496094 L 304.527344 214.3125 C 301.660156 215.664062 298.523438 216.34375 295.355469 216.292969 C 293.085938 216.359375 290.832031 215.847656 288.816406 214.804688 C 287.066406 213.859375 285.664062 212.382812 284.808594 210.585938 C 283.863281 208.507812 283.40625 206.238281 283.46875 203.957031 C 283.40625 201.5625 283.894531 199.1875 284.890625 197.011719 C 285.742188 195.167969 287.117188 193.609375 288.84375 192.542969 C 290.617188 191.5 292.644531 190.96875 294.699219 191.007812 C 296.738281 190.933594 298.75 191.5 300.453125 192.625 C 301.992188 193.691406 303.183594 195.1875 303.878906 196.921875 C 304.648438 198.816406 305.027344 200.84375 304.996094 202.882812 Z M 299.570312 200.84375 C 299.578125 199.261719 299.054688 197.722656 298.082031 196.476562 C 297.640625 195.988281 297.101562 195.597656 296.5 195.339844 C 295.898438 195.082031 295.242188 194.960938 294.585938 194.984375 C 293.929688 194.972656 293.273438 195.097656 292.664062 195.355469 C 292.054688 195.613281 291.507812 195.992188 291.058594 196.476562 C 290.007812 197.699219 289.363281 199.222656 289.21875 200.828125 Z M 299.570312 200.84375 " fill-opacity="1" fill-rule="nonzero"></path><path fill="#ffffff" d="M 309.214844 197.617188 C 309.214844 196.28125 309.148438 194.242188 309.03125 191.507812 L 314.242188 191.507812 C 314.328125 192.183594 314.414062 192.996094 314.503906 193.929688 C 314.59375 194.859375 314.636719 195.636719 314.664062 196.222656 C 315.226562 195.273438 315.863281 194.371094 316.570312 193.527344 C 317.1875 192.804688 317.929688 192.199219 318.761719 191.746094 C 319.636719 191.273438 320.617188 191.035156 321.613281 191.054688 C 322.367188 191.035156 323.121094 191.128906 323.847656 191.328125 L 323.148438 196.15625 C 322.273438 195.902344 321.359375 195.839844 320.460938 195.96875 C 319.5625 196.097656 318.699219 196.414062 317.933594 196.902344 C 316.703125 197.816406 315.628906 198.929688 314.753906 200.195312 L 314.753906 215.839844 L 309.214844 215.839844 Z M 309.214844 197.617188 " fill-opacity="1" fill-rule="nonzero"></path><path fill="#ffffff" d="M 326.945312 225.800781 C 326.265625 225.691406 325.597656 225.53125 324.941406 225.316406 L 325.953125 221.257812 C 326.425781 221.382812 326.898438 221.484375 327.375 221.5625 C 327.914062 221.65625 328.457031 221.707031 329 221.710938 C 331.480469 221.710938 333.328125 220.125 334.542969 216.949219 L 334.90625 216.050781 L 325.933594 191.507812 L 331.890625 191.507812 L 336.445312 205.222656 C 337.03125 206.988281 337.5 208.785156 337.863281 210.609375 C 338.285156 208.851562 338.777344 207.09375 339.351562 205.335938 L 343.894531 191.507812 L 349.5 191.507812 L 340.566406 216.160156 C 339.890625 218.148438 338.972656 220.042969 337.832031 221.800781 C 336.964844 223.128906 335.773438 224.222656 334.378906 224.976562 C 332.878906 225.707031 331.222656 226.066406 329.558594 226.019531 C 328.683594 226.023438 327.808594 225.949219 326.945312 225.800781 Z M 326.945312 225.800781 " fill-opacity="1" fill-rule="nonzero"></path><path fill="#ffffff" d="M 117.519531 152.046875 L 127.425781 152.046875 L 127.148438 154.449219 L 120.410156 154.449219 L 120.410156 159.089844 L 126.761719 159.089844 L 126.761719 161.324219 L 120.410156 161.324219 L 120.410156 166.464844 L 127.507812 166.464844 L 127.261719 168.902344 L 117.519531 168.902344 Z M 117.519531 152.046875 " fill-opacity="1" fill-rule="nonzero"></path><path fill="#ffffff" d="M 134.269531 160.304688 L 129.058594 152.046875 L 132.363281 152.046875 L 135.910156 158.113281 L 139.632812 152.046875 L 142.839844 152.046875 L 137.628906 160.199219 L 143.265625 168.902344 L 139.914062 168.902344 L 135.902344 162.269531 L 131.8125 168.902344 L 128.601562 168.902344 Z M 134.269531 160.304688 " fill-opacity="1" fill-rule="nonzero"></path><path fill="#ffffff" d="M 145.402344 152.046875 L 149.945312 152.046875 C 152.074219 152.046875 153.707031 152.484375 154.84375 153.351562 C 155.410156 153.796875 155.859375 154.371094 156.152344 155.027344 C 156.449219 155.683594 156.582031 156.402344 156.542969 157.121094 C 156.574219 158.148438 156.316406 159.164062 155.796875 160.050781 C 155.292969 160.882812 154.554688 161.550781 153.675781 161.972656 C 152.699219 162.433594 151.628906 162.664062 150.546875 162.644531 C 149.796875 162.632812 149.050781 162.554688 148.3125 162.414062 L 148.3125 168.902344 L 145.402344 168.902344 Z M 152.699219 159.574219 C 153.015625 159.269531 153.265625 158.898438 153.425781 158.488281 C 153.585938 158.078125 153.65625 157.636719 153.628906 157.195312 C 153.667969 156.773438 153.601562 156.351562 153.4375 155.960938 C 153.269531 155.570312 153.011719 155.226562 152.683594 154.960938 C 151.847656 154.449219 150.871094 154.210938 149.890625 154.277344 L 148.3125 154.277344 L 148.3125 160.238281 C 148.867188 160.335938 149.425781 160.394531 149.988281 160.40625 C 150.964844 160.480469 151.933594 160.183594 152.699219 159.574219 Z M 152.699219 159.574219 " fill-opacity="1" fill-rule="nonzero"></path><path fill="#ffffff" d="M 159.417969 152.046875 L 162.320312 152.046875 L 162.320312 166.414062 L 169.289062 166.414062 L 169.046875 168.902344 L 159.417969 168.902344 Z M 159.417969 152.046875 " fill-opacity="1" fill-rule="nonzero"></path><path fill="#ffffff" d="M 173.714844 168.074219 C 172.492188 167.386719 171.507812 166.347656 170.882812 165.09375 C 170.207031 163.703125 169.871094 162.171875 169.910156 160.625 C 169.875 159.007812 170.230469 157.40625 170.953125 155.960938 C 171.613281 154.65625 172.648438 153.578125 173.929688 152.875 C 175.363281 152.125 176.96875 151.757812 178.585938 151.816406 C 180.113281 151.777344 181.625 152.136719 182.96875 152.867188 C 184.183594 153.558594 185.160156 154.59375 185.777344 155.847656 C 186.441406 157.222656 186.769531 158.738281 186.738281 160.265625 C 186.777344 161.898438 186.417969 163.519531 185.6875 164.980469 C 185.023438 166.28125 183.984375 167.355469 182.710938 168.066406 C 181.300781 168.816406 179.726562 169.191406 178.128906 169.152344 C 176.589844 169.191406 175.0625 168.820312 173.714844 168.074219 Z M 181.25 166.011719 C 182.070312 165.464844 182.710938 164.6875 183.082031 163.773438 C 183.5 162.730469 183.707031 161.613281 183.683594 160.488281 C 183.703125 159.386719 183.523438 158.289062 183.148438 157.25 C 182.816406 156.347656 182.21875 155.570312 181.4375 155.011719 C 180.53125 154.457031 179.488281 154.164062 178.425781 154.164062 C 177.359375 154.164062 176.320312 154.457031 175.410156 155.011719 C 174.589844 155.585938 173.949219 156.382812 173.566406 157.308594 C 173.140625 158.308594 172.929688 159.386719 172.945312 160.472656 C 172.929688 161.59375 173.125 162.707031 173.527344 163.753906 C 173.886719 164.710938 174.539062 165.527344 175.390625 166.085938 C 176.242188 166.648438 177.253906 166.921875 178.273438 166.867188 C 179.328125 166.894531 180.367188 166.59375 181.25 166.011719 Z M 181.25 166.011719 " fill-opacity="1" fill-rule="nonzero"></path><path fill="#ffffff" d="M 189.976562 152.046875 L 195.25 152.046875 C 196.792969 151.9375 198.332031 152.34375 199.621094 153.203125 C 200.117188 153.59375 200.507812 154.09375 200.769531 154.667969 C 201.027344 155.242188 201.144531 155.867188 201.109375 156.496094 C 201.128906 157.3125 200.945312 158.121094 200.574219 158.851562 C 200.25 159.488281 199.800781 160.054688 199.25 160.511719 C 198.753906 160.910156 198.203125 161.226562 197.609375 161.449219 L 202.824219 168.902344 L 199.433594 168.902344 L 195.046875 162.195312 L 192.910156 162.195312 L 192.910156 168.902344 L 189.976562 168.902344 Z M 194.542969 160.019531 C 195.1875 160.035156 195.828125 159.894531 196.410156 159.609375 C 196.933594 159.359375 197.375 158.964844 197.683594 158.472656 C 197.992188 157.945312 198.148438 157.34375 198.140625 156.734375 C 198.167969 156.382812 198.109375 156.03125 197.972656 155.707031 C 197.832031 155.382812 197.613281 155.097656 197.335938 154.878906 C 196.636719 154.441406 195.820312 154.238281 194.996094 154.292969 L 192.890625 154.292969 L 192.890625 160.050781 Z M 194.542969 160.019531 " fill-opacity="1" fill-rule="nonzero"></path><path fill="#ffffff" d="M 205.09375 152.046875 L 215.019531 152.046875 L 214.738281 154.449219 L 208.035156 154.449219 L 208.035156 159.089844 L 214.328125 159.089844 L 214.328125 161.324219 L 207.976562 161.324219 L 207.976562 166.464844 L 215.070312 166.464844 L 214.855469 168.902344 L 205.09375 168.902344 Z M 205.09375 152.046875 " fill-opacity="1" fill-rule="nonzero"></path><path fill="#ffffff" d="M 225.820312 152.046875 L 228.722656 152.046875 L 228.722656 168.902344 L 225.820312 168.902344 Z M 225.820312 152.046875 " fill-opacity="1" fill-rule="nonzero"></path><path fill="#ffffff" d="M 236.414062 154.476562 L 231.199219 154.476562 L 231.453125 152.046875 L 244.558594 152.046875 L 244.292969 154.476562 L 239.324219 154.476562 L 239.324219 168.902344 L 236.414062 168.902344 Z M 236.414062 154.476562 " fill-opacity="1" fill-rule="nonzero"></path><path fill="#ffffff" d="M 257.183594 168.074219 C 255.964844 167.386719 254.984375 166.347656 254.363281 165.09375 C 253.679688 163.703125 253.339844 162.171875 253.378906 160.625 C 253.34375 159.007812 253.703125 157.40625 254.421875 155.960938 C 255.085938 154.65625 256.121094 153.582031 257.402344 152.875 C 258.824219 152.121094 260.414062 151.746094 262.023438 151.785156 C 263.570312 151.746094 265.101562 152.117188 266.457031 152.867188 C 267.671875 153.554688 268.648438 154.59375 269.261719 155.847656 C 269.929688 157.222656 270.261719 158.738281 270.230469 160.265625 C 270.273438 161.902344 269.910156 163.519531 269.171875 164.980469 C 268.507812 166.285156 267.472656 167.355469 266.195312 168.066406 C 264.789062 168.816406 263.210938 169.191406 261.617188 169.152344 C 260.070312 169.195312 258.539062 168.824219 257.183594 168.074219 Z M 264.726562 166.011719 C 265.542969 165.464844 266.179688 164.683594 266.550781 163.773438 C 266.96875 162.730469 267.175781 161.613281 267.15625 160.488281 C 267.175781 159.386719 266.992188 158.289062 266.621094 157.25 C 266.289062 156.347656 265.695312 155.570312 264.914062 155.011719 C 264.007812 154.457031 262.960938 154.164062 261.898438 154.164062 C 260.832031 154.164062 259.789062 154.457031 258.882812 155.011719 C 258.058594 155.585938 257.417969 156.382812 257.035156 157.308594 C 256.617188 158.308594 256.40625 159.386719 256.417969 160.472656 C 256.398438 161.59375 256.597656 162.707031 257 163.753906 C 257.355469 164.671875 257.972656 165.464844 258.777344 166.03125 C 259.660156 166.613281 260.703125 166.90625 261.757812 166.867188 C 262.8125 166.886719 263.847656 166.589844 264.726562 166.011719 Z M 264.726562 166.011719 " fill-opacity="1" fill-rule="nonzero"></path><path fill="#ffffff" d="M 273.453125 152.046875 L 276.789062 152.046875 L 285.121094 165.109375 C 285.046875 163.863281 285.019531 162.726562 285.019531 161.675781 L 285.019531 152.046875 L 287.714844 152.046875 L 287.714844 168.902344 L 284.484375 168.902344 L 276.023438 155.632812 C 276.105469 157.121094 276.148438 158.472656 276.148438 159.640625 L 276.148438 168.902344 L 273.453125 168.902344 Z M 273.453125 152.046875 " fill-opacity="1" fill-rule="nonzero"></path><path fill="#c8102e" d="M 76.566406 152.136719 L 45.65625 152.136719 C 31.082031 152.136719 25.75 157.472656 25.75 172.054688 L 25.75 203 C 25.75 217.582031 31.082031 222.917969 45.65625 222.917969 L 76.566406 222.917969 C 91.140625 222.917969 96.480469 217.582031 96.480469 203 L 96.480469 172.054688 C 96.492188 157.472656 91.160156 152.136719 76.566406 152.136719 Z M 76.566406 152.136719 " fill-opacity="1" fill-rule="evenodd"></path><path fill="#ffffff" d="M 39.757812 187.527344 L 41.632812 187.527344 L 41.632812 196.789062 L 39.757812 196.789062 L 39.757812 193.027344 L 35.519531 193.027344 L 35.519531 196.789062 L 33.640625 196.789062 L 33.640625 187.527344 L 35.519531 187.527344 L 35.519531 191.253906 L 39.757812 191.253906 Z M 50.332031 192.824219 C 50.332031 194.316406 49.585938 195.136719 48.230469 195.136719 C 46.875 195.136719 46.117188 194.316406 46.117188 192.742188 L 46.117188 187.527344 L 44.238281 187.527344 L 44.238281 192.816406 C 44.238281 195.417969 45.683594 196.90625 48.199219 196.90625 C 50.71875 196.90625 52.207031 195.417969 52.207031 192.734375 L 52.207031 187.527344 L 50.332031 187.527344 Z M 72.015625 193.890625 L 69.914062 187.527344 L 68.375 187.527344 L 66.289062 193.898438 L 64.242188 187.527344 L 62.246094 187.527344 L 65.46875 196.789062 L 67.027344 196.789062 L 69.117188 190.710938 L 71.21875 196.789062 L 72.789062 196.789062 L 76.011719 187.527344 L 74.0625 187.527344 Z M 79.371094 192.796875 L 82.789062 192.796875 L 82.789062 191.117188 L 79.371094 191.117188 L 79.371094 189.226562 L 84.332031 189.226562 L 84.332031 187.527344 L 77.527344 187.527344 L 77.527344 196.765625 L 84.511719 196.765625 L 84.511719 195.097656 L 79.371094 195.097656 Z M 86.746094 196.765625 L 88.597656 196.765625 L 88.597656 187.527344 L 86.746094 187.527344 Z M 55.914062 194.851562 L 55.074219 196.773438 L 53.160156 196.773438 L 57.203125 187.527344 L 58.855469 187.527344 L 62.914062 196.773438 L 60.980469 196.773438 L 60.183594 194.859375 Z M 56.617188 193.183594 L 59.4375 193.183594 L 58.023438 189.875 Z M 56.617188 193.183594 " fill-opacity="1" fill-rule="nonzero"></path><path fill="#ffffff" d="M 61.121094 175.75 C 58 175.746094 55.007812 174.503906 52.796875 172.296875 C 50.589844 170.085938 49.351562 167.09375 49.347656 163.96875 L 51.007812 163.96875 C 51.007812 166.652344 52.074219 169.226562 53.96875 171.125 C 55.867188 173.019531 58.4375 174.085938 61.121094 174.085938 C 63.804688 174.085938 66.375 173.019531 68.273438 171.125 C 70.167969 169.226562 71.234375 166.652344 71.234375 163.96875 L 72.894531 163.96875 C 72.890625 167.09375 71.652344 170.085938 69.445312 172.296875 C 67.238281 174.503906 64.242188 175.746094 61.121094 175.75 Z M 61.121094 175.75 " fill-opacity="1" fill-rule="nonzero"></path></svg>