<svg xmlns="http://www.w3.org/2000/svg" xmlns:xlink="http://www.w3.org/1999/xlink" width="500" viewBox="0 0 375 374.999991" height="500" preserveAspectRatio="xMidYMid meet"><defs><clipPath id="b25de4184c"><path d="M 1 132.273438 L 374 132.273438 L 374 242.523438 L 1 242.523438 Z M 1 132.273438 " clip-rule="nonzero"></path></clipPath></defs><g clip-path="url(#b25de4184c)"><path fill="#a6a6a6" d="M 30.820312 132.273438 L 344.195312 132.273438 C 345.316406 132.273438 346.457031 132.273438 347.574219 132.277344 C 348.351562 132.28125 349.140625 132.292969 349.921875 132.304688 C 350.097656 132.308594 350.273438 132.308594 350.445312 132.3125 C 352.535156 132.332031 354.617188 132.496094 356.679688 132.800781 C 358.746094 133.109375 360.746094 133.695312 362.621094 134.527344 C 366.367188 136.230469 369.417969 138.929688 371.339844 142.246094 C 372.277344 143.898438 372.929688 145.667969 373.265625 147.492188 C 373.613281 149.316406 373.808594 151.160156 373.847656 153.007812 C 373.859375 153.855469 373.859375 154.703125 373.859375 155.546875 C 373.882812 156.546875 373.882812 157.546875 373.882812 158.558594 L 373.882812 216.242188 C 373.882812 217.257812 373.882812 218.253906 373.859375 219.257812 C 373.859375 220.113281 373.859375 220.941406 373.847656 221.796875 C 373.808594 223.648438 373.613281 225.492188 373.265625 227.316406 C 372.929688 229.140625 372.28125 230.910156 371.339844 232.5625 C 370.382812 234.207031 369.140625 235.710938 367.660156 237.011719 C 366.1875 238.328125 364.488281 239.425781 362.621094 240.261719 C 360.746094 241.097656 358.746094 241.683594 356.679688 242 C 354.617188 242.300781 352.53125 242.464844 350.445312 242.488281 C 349.5 242.507812 348.523438 242.515625 347.574219 242.515625 C 346.457031 242.523438 345.316406 242.523438 344.195312 242.523438 L 30.820312 242.523438 C 29.675781 242.523438 28.546875 242.523438 27.410156 242.515625 C 26.453125 242.515625 25.507812 242.507812 24.546875 242.488281 C 22.453125 242.464844 20.367188 242.300781 18.304688 242 C 16.242188 241.6875 14.246094 241.101562 12.382812 240.261719 C 10.515625 239.425781 8.8125 238.328125 7.339844 237.011719 C 5.851562 235.714844 4.613281 234.210938 3.667969 232.5625 C 2.722656 230.910156 2.066406 229.140625 1.722656 227.316406 C 1.375 225.492188 1.1875 223.644531 1.164062 221.796875 C 1.144531 221.210938 1.136719 220.640625 1.128906 220.0625 C 1.125 219.796875 1.121094 219.527344 1.117188 219.257812 L 1.117188 155.546875 C 1.121094 155.277344 1.125 155.003906 1.128906 154.734375 C 1.136719 154.160156 1.144531 153.582031 1.164062 153.007812 C 1.1875 151.160156 1.375 149.316406 1.722656 147.492188 C 2.066406 145.664062 2.722656 143.894531 3.667969 142.246094 C 4.613281 140.589844 5.851562 139.082031 7.339844 137.777344 C 8.820312 136.46875 10.519531 135.371094 12.382812 134.527344 C 14.246094 133.691406 16.242188 133.109375 18.304688 132.800781 C 20.367188 132.496094 22.453125 132.335938 24.546875 132.3125 C 24.746094 132.308594 24.945312 132.308594 25.144531 132.304688 C 25.902344 132.292969 26.652344 132.28125 27.410156 132.277344 C 28.546875 132.273438 29.675781 132.273438 30.820312 132.273438 Z M 24.332031 240.089844 C 25.277344 240.109375 26.203125 240.121094 27.15625 240.121094 L 344.476562 240.125 L 347.859375 240.121094 C 348.789062 240.121094 349.746094 240.109375 350.660156 240.089844 C 352.613281 240.070312 354.566406 239.917969 356.492188 239.640625 C 358.304688 239.367188 360.058594 238.859375 361.699219 238.125 C 363.316406 237.398438 364.789062 236.445312 366.066406 235.304688 C 367.339844 234.1875 368.410156 232.898438 369.234375 231.484375 C 370.058594 230.035156 370.628906 228.484375 370.921875 226.882812 C 371.238281 225.191406 371.414062 223.484375 371.453125 221.773438 C 371.464844 220.925781 371.464844 220.105469 371.464844 219.207031 C 371.488281 218.222656 371.488281 217.246094 371.488281 216.246094 L 371.488281 158.546875 C 371.488281 157.554688 371.488281 156.570312 371.464844 155.539062 C 371.464844 154.703125 371.464844 153.863281 371.457031 153.085938 C 371.417969 151.339844 371.238281 149.601562 370.910156 147.882812 C 370.621094 146.300781 370.054688 144.769531 369.246094 143.335938 C 367.582031 140.472656 364.945312 138.140625 361.707031 136.664062 C 360.0625 135.933594 358.308594 135.425781 356.492188 135.152344 C 354.578125 134.875 352.636719 134.726562 350.695312 134.707031 L 347.84375 134.671875 L 27.15625 134.671875 L 24.339844 134.703125 C 22.378906 134.726562 20.425781 134.878906 18.488281 135.15625 C 16.695312 135.425781 14.953125 135.929688 13.328125 136.65625 C 11.714844 137.386719 10.238281 138.339844 8.953125 139.476562 C 7.667969 140.601562 6.597656 141.902344 5.785156 143.328125 C 4.960938 144.769531 4.386719 146.316406 4.089844 147.910156 C 3.769531 149.617188 3.597656 151.34375 3.574219 153.070312 C 3.554688 153.632812 3.527344 155.539062 3.527344 155.539062 L 3.527344 219.222656 C 3.527344 219.222656 3.554688 221.15625 3.574219 221.738281 C 3.597656 223.472656 3.773438 225.199219 4.09375 226.910156 C 4.390625 228.5 4.960938 230.039062 5.789062 231.476562 C 6.605469 232.90625 7.679688 234.207031 8.972656 235.328125 C 10.246094 236.460938 11.71875 237.40625 13.332031 238.128906 C 14.960938 238.859375 16.703125 239.367188 18.5 239.640625 C 20.429688 239.917969 22.378906 240.066406 24.332031 240.089844 Z M 24.332031 240.089844 " fill-opacity="1" fill-rule="evenodd"></path></g><path fill="#000000" d="M 27.15625 240.121094 C 26.203125 240.121094 25.277344 240.109375 24.332031 240.089844 C 22.378906 240.066406 20.429688 239.917969 18.5 239.640625 C 16.703125 239.367188 14.960938 238.859375 13.332031 238.128906 C 11.71875 237.40625 10.246094 236.460938 8.972656 235.328125 C 7.679688 234.207031 6.605469 232.90625 5.789062 231.476562 C 4.960938 230.039062 4.390625 228.5 4.09375 226.910156 C 3.773438 225.199219 3.597656 223.472656 3.574219 221.738281 C 3.554688 221.15625 3.527344 219.222656 3.527344 219.222656 L 3.527344 155.539062 C 3.527344 155.539062 3.554688 153.632812 3.574219 153.070312 C 3.597656 151.34375 3.769531 149.617188 4.089844 147.910156 C 4.386719 146.316406 4.960938 144.769531 5.785156 143.328125 C 6.597656 141.902344 7.667969 140.601562 8.953125 139.476562 C 10.238281 138.339844 11.714844 137.386719 13.328125 136.65625 C 14.953125 135.929688 16.695312 135.425781 18.488281 135.15625 C 20.425781 134.875 22.378906 134.726562 24.339844 134.703125 L 27.15625 134.671875 L 347.84375 134.671875 L 350.695312 134.707031 C 352.636719 134.726562 354.578125 134.875 356.492188 135.152344 C 358.308594 135.425781 360.0625 135.933594 361.707031 136.664062 C 364.945312 138.140625 367.582031 140.472656 369.246094 143.335938 C 370.054688 144.769531 370.621094 146.300781 370.910156 147.882812 C 371.238281 149.601562 371.417969 151.339844 371.457031 153.085938 C 371.464844 153.863281 371.464844 154.703125 371.464844 155.539062 C 371.488281 156.570312 371.488281 157.554688 371.488281 158.546875 L 371.488281 216.246094 C 371.488281 217.246094 371.488281 218.222656 371.464844 219.207031 C 371.464844 220.105469 371.464844 220.925781 371.453125 221.773438 C 371.417969 223.484375 371.238281 225.191406 370.921875 226.882812 C 370.628906 228.484375 370.058594 230.035156 369.234375 231.484375 C 368.410156 232.898438 367.339844 234.1875 366.066406 235.304688 C 364.789062 236.445312 363.316406 237.398438 361.699219 238.125 C 360.058594 238.859375 358.304688 239.367188 356.492188 239.640625 C 354.566406 239.917969 352.613281 240.070312 350.660156 240.089844 C 349.746094 240.109375 348.789062 240.121094 347.859375 240.121094 L 344.476562 240.125 Z M 27.15625 240.121094 " fill-opacity="1" fill-rule="nonzero"></path><path fill="#ffffff" d="M 91.679688 188.226562 C 91.707031 185.925781 92.320312 183.671875 93.457031 181.667969 C 94.59375 179.667969 96.222656 177.988281 98.183594 176.78125 C 96.9375 175.003906 95.292969 173.539062 93.378906 172.507812 C 91.464844 171.476562 89.339844 170.902344 87.164062 170.835938 C 82.527344 170.347656 78.03125 173.605469 75.667969 173.605469 C 73.261719 173.605469 69.625 170.882812 65.707031 170.964844 C 63.171875 171.046875 60.703125 171.78125 58.539062 173.097656 C 56.375 174.417969 54.589844 176.269531 53.355469 178.484375 C 48.015625 187.710938 52 201.277344 57.113281 208.734375 C 59.671875 212.386719 62.664062 216.46875 66.578125 216.324219 C 70.40625 216.164062 71.839844 213.886719 76.460938 213.886719 C 81.042969 213.886719 82.382812 216.324219 86.378906 216.230469 C 90.488281 216.164062 93.078125 212.5625 95.546875 208.875 C 97.382812 206.273438 98.800781 203.394531 99.738281 200.351562 C 97.351562 199.34375 95.3125 197.65625 93.878906 195.5 C 92.445312 193.34375 91.679688 190.8125 91.679688 188.226562 Z M 91.679688 188.226562 " fill-opacity="1" fill-rule="nonzero"></path><path fill="#ffffff" d="M 84.136719 165.929688 C 86.375 163.242188 87.480469 159.792969 87.214844 156.308594 C 83.789062 156.667969 80.628906 158.300781 78.355469 160.882812 C 77.246094 162.144531 76.394531 163.609375 75.851562 165.199219 C 75.3125 166.789062 75.089844 168.472656 75.199219 170.148438 C 76.910156 170.164062 78.605469 169.792969 80.152344 169.0625 C 81.699219 168.332031 83.0625 167.261719 84.136719 165.929688 Z M 84.136719 165.929688 " fill-opacity="1" fill-rule="nonzero"></path><path fill="#ffffff" d="M 140.089844 207.078125 L 127.019531 207.078125 L 123.882812 216.328125 L 118.347656 216.328125 L 130.726562 182.101562 L 136.476562 182.101562 L 148.859375 216.328125 L 143.226562 216.328125 Z M 128.375 202.808594 L 138.734375 202.808594 L 133.628906 187.792969 L 133.484375 187.792969 Z M 128.375 202.808594 " fill-opacity="1" fill-rule="nonzero"></path><path fill="#ffffff" d="M 175.59375 203.851562 C 175.59375 211.605469 171.433594 216.589844 165.160156 216.589844 C 163.570312 216.671875 161.992188 216.304688 160.597656 215.535156 C 159.207031 214.761719 158.0625 213.613281 157.292969 212.222656 L 157.175781 212.222656 L 157.175781 224.582031 L 152.042969 224.582031 L 152.042969 191.375 L 157.011719 191.375 L 157.011719 195.523438 L 157.105469 195.523438 C 157.910156 194.140625 159.074219 192.996094 160.476562 192.21875 C 161.878906 191.445312 163.464844 191.058594 165.066406 191.113281 C 171.410156 191.113281 175.59375 196.117188 175.59375 203.851562 Z M 170.320312 203.851562 C 170.320312 198.800781 167.703125 195.476562 163.710938 195.476562 C 159.792969 195.476562 157.15625 198.871094 157.15625 203.851562 C 157.15625 208.878906 159.792969 212.246094 163.710938 212.246094 C 167.703125 212.246094 170.320312 208.949219 170.320312 203.851562 Z M 170.320312 203.851562 " fill-opacity="1" fill-rule="nonzero"></path><path fill="#ffffff" d="M 203.109375 203.851562 C 203.109375 211.605469 198.949219 216.589844 192.675781 216.589844 C 191.085938 216.671875 189.503906 216.304688 188.113281 215.535156 C 186.722656 214.761719 185.578125 213.613281 184.808594 212.222656 L 184.691406 212.222656 L 184.691406 224.582031 L 179.558594 224.582031 L 179.558594 191.375 L 184.527344 191.375 L 184.527344 195.523438 L 184.621094 195.523438 C 185.425781 194.140625 186.589844 192.996094 187.992188 192.21875 C 189.390625 191.445312 190.980469 191.058594 192.582031 191.113281 C 198.925781 191.113281 203.109375 196.117188 203.109375 203.851562 Z M 197.835938 203.851562 C 197.835938 198.800781 195.21875 195.476562 191.226562 195.476562 C 187.308594 195.476562 184.671875 198.871094 184.671875 203.851562 C 184.671875 208.878906 187.308594 212.246094 191.226562 212.246094 C 195.21875 212.246094 197.835938 208.949219 197.835938 203.851562 Z M 197.835938 203.851562 " fill-opacity="1" fill-rule="nonzero"></path><path fill="#ffffff" d="M 221.292969 206.789062 C 221.675781 210.183594 224.976562 212.414062 229.492188 212.414062 C 233.816406 212.414062 236.929688 210.183594 236.929688 207.125 C 236.929688 204.46875 235.050781 202.878906 230.609375 201.789062 L 226.164062 200.71875 C 219.867188 199.199219 216.945312 196.261719 216.945312 191.492188 C 216.945312 185.585938 222.101562 181.53125 229.421875 181.53125 C 236.667969 181.53125 241.632812 185.585938 241.800781 191.492188 L 236.621094 191.492188 C 236.3125 188.074219 233.480469 186.015625 229.347656 186.015625 C 225.214844 186.015625 222.386719 188.101562 222.386719 191.136719 C 222.386719 193.554688 224.191406 194.980469 228.613281 196.070312 L 232.390625 196.996094 C 239.425781 198.65625 242.347656 201.476562 242.347656 206.484375 C 242.347656 212.886719 237.238281 216.898438 229.109375 216.898438 C 221.507812 216.898438 216.371094 212.980469 216.042969 206.789062 Z M 221.292969 206.789062 " fill-opacity="1" fill-rule="nonzero"></path><path fill="#ffffff" d="M 253.421875 185.46875 L 253.421875 191.375 L 258.175781 191.375 L 258.175781 195.429688 L 253.421875 195.429688 L 253.421875 209.1875 C 253.421875 211.324219 254.375 212.320312 256.464844 212.320312 C 257.027344 212.308594 257.59375 212.269531 258.152344 212.203125 L 258.152344 216.234375 C 257.214844 216.410156 256.257812 216.488281 255.300781 216.46875 C 250.242188 216.46875 248.265625 214.574219 248.265625 209.734375 L 248.265625 195.429688 L 244.632812 195.429688 L 244.632812 191.375 L 248.265625 191.375 L 248.265625 185.46875 Z M 253.421875 185.46875 " fill-opacity="1" fill-rule="nonzero"></path><path fill="#ffffff" d="M 260.929688 203.851562 C 260.929688 196 265.5625 191.066406 272.785156 191.066406 C 280.035156 191.066406 284.644531 196 284.644531 203.851562 C 284.644531 211.726562 280.058594 216.636719 272.785156 216.636719 C 265.515625 216.636719 260.929688 211.726562 260.929688 203.851562 Z M 279.417969 203.851562 C 279.417969 198.464844 276.945312 195.285156 272.785156 195.285156 C 268.628906 195.285156 266.160156 198.488281 266.160156 203.851562 C 266.160156 209.257812 268.628906 212.414062 272.785156 212.414062 C 276.945312 212.414062 279.417969 209.257812 279.417969 203.851562 Z M 279.417969 203.851562 " fill-opacity="1" fill-rule="nonzero"></path><path fill="#ffffff" d="M 288.875 191.375 L 293.769531 191.375 L 293.769531 195.621094 L 293.890625 195.621094 C 294.222656 194.292969 295 193.121094 296.09375 192.300781 C 297.191406 191.480469 298.535156 191.058594 299.902344 191.113281 C 300.496094 191.109375 301.082031 191.175781 301.660156 191.304688 L 301.660156 196.09375 C 300.914062 195.867188 300.136719 195.761719 299.355469 195.785156 C 298.609375 195.753906 297.867188 195.886719 297.175781 196.167969 C 296.484375 196.453125 295.867188 196.882812 295.359375 197.425781 C 294.851562 197.972656 294.46875 198.621094 294.234375 199.328125 C 294 200.035156 293.921875 200.785156 294.007812 201.527344 L 294.007812 216.328125 L 288.875 216.328125 Z M 288.875 191.375 " fill-opacity="1" fill-rule="nonzero"></path><path fill="#ffffff" d="M 325.320312 209 C 324.632812 213.527344 320.210938 216.636719 314.554688 216.636719 C 307.28125 216.636719 302.769531 211.773438 302.769531 203.96875 C 302.769531 196.144531 307.308594 191.066406 314.339844 191.066406 C 321.257812 191.066406 325.605469 195.808594 325.605469 203.375 L 325.605469 205.128906 L 307.949219 205.128906 L 307.949219 205.441406 C 307.867188 206.359375 307.984375 207.285156 308.289062 208.152344 C 308.589844 209.023438 309.078125 209.820312 309.714844 210.488281 C 310.351562 211.15625 311.121094 211.683594 311.976562 212.03125 C 312.832031 212.378906 313.75 212.542969 314.675781 212.507812 C 315.886719 212.621094 317.105469 212.339844 318.144531 211.707031 C 319.183594 211.078125 319.992188 210.125 320.449219 209 Z M 307.972656 201.550781 L 320.472656 201.550781 C 320.515625 200.726562 320.390625 199.898438 320.101562 199.125 C 319.816406 198.347656 319.367188 197.640625 318.789062 197.046875 C 318.214844 196.453125 317.523438 195.980469 316.757812 195.667969 C 315.992188 195.351562 315.167969 195.199219 314.339844 195.21875 C 313.503906 195.210938 312.675781 195.371094 311.902344 195.6875 C 311.128906 196.003906 310.425781 196.472656 309.832031 197.058594 C 309.242188 197.648438 308.773438 198.347656 308.453125 199.121094 C 308.136719 199.890625 307.972656 200.714844 307.972656 201.550781 Z M 307.972656 201.550781 " fill-opacity="1" fill-rule="nonzero"></path><path fill="#ffffff" d="M 127.730469 156.335938 C 128.808594 156.261719 129.886719 156.421875 130.890625 156.8125 C 131.898438 157.203125 132.804688 157.808594 133.546875 158.59375 C 134.289062 159.375 134.847656 160.308594 135.179688 161.332031 C 135.515625 162.355469 135.621094 163.441406 135.484375 164.507812 C 135.484375 169.761719 132.640625 172.785156 127.730469 172.785156 L 121.78125 172.785156 L 121.78125 156.335938 Z M 124.339844 170.457031 L 127.445312 170.457031 C 128.214844 170.503906 128.984375 170.378906 129.699219 170.089844 C 130.410156 169.800781 131.050781 169.359375 131.574219 168.792969 C 132.09375 168.222656 132.480469 167.550781 132.707031 166.8125 C 132.933594 166.078125 132.992188 165.304688 132.878906 164.542969 C 132.984375 163.785156 132.917969 163.015625 132.6875 162.285156 C 132.460938 161.554688 132.070312 160.886719 131.550781 160.324219 C 131.03125 159.761719 130.394531 159.320312 129.683594 159.035156 C 128.976562 158.746094 128.210938 158.621094 127.445312 158.660156 L 124.339844 158.660156 Z M 124.339844 170.457031 " fill-opacity="1" fill-rule="nonzero"></path><path fill="#ffffff" d="M 138.375 166.574219 C 138.296875 165.757812 138.390625 164.933594 138.648438 164.15625 C 138.910156 163.378906 139.328125 162.664062 139.878906 162.058594 C 140.429688 161.453125 141.105469 160.96875 141.855469 160.636719 C 142.605469 160.304688 143.417969 160.132812 144.238281 160.132812 C 145.058594 160.132812 145.871094 160.304688 146.621094 160.636719 C 147.371094 160.96875 148.046875 161.453125 148.597656 162.058594 C 149.148438 162.664062 149.570312 163.378906 149.828125 164.15625 C 150.085938 164.933594 150.179688 165.757812 150.101562 166.574219 C 150.183594 167.390625 150.089844 168.214844 149.832031 168.992188 C 149.574219 169.769531 149.152344 170.488281 148.601562 171.09375 C 148.050781 171.703125 147.375 172.1875 146.625 172.519531 C 145.875 172.851562 145.058594 173.023438 144.238281 173.023438 C 143.417969 173.023438 142.605469 172.851562 141.851562 172.519531 C 141.101562 172.1875 140.425781 171.703125 139.875 171.09375 C 139.324219 170.488281 138.90625 169.769531 138.644531 168.992188 C 138.386719 168.214844 138.296875 167.390625 138.375 166.574219 Z M 147.578125 166.574219 C 147.578125 163.882812 146.367188 162.308594 144.242188 162.308594 C 142.109375 162.308594 140.910156 163.882812 140.910156 166.574219 C 140.910156 169.285156 142.109375 170.84375 144.242188 170.84375 C 146.367188 170.84375 147.578125 169.273438 147.578125 166.574219 Z M 147.578125 166.574219 " fill-opacity="1" fill-rule="nonzero"></path><path fill="#ffffff" d="M 165.691406 172.785156 L 163.144531 172.785156 L 160.574219 163.644531 L 160.382812 163.644531 L 157.824219 172.785156 L 155.300781 172.785156 L 151.875 160.371094 L 154.363281 160.371094 L 156.589844 169.84375 L 156.773438 169.84375 L 159.328125 160.371094 L 161.683594 160.371094 L 164.238281 169.84375 L 164.433594 169.84375 L 166.652344 160.371094 L 169.105469 160.371094 Z M 165.691406 172.785156 " fill-opacity="1" fill-rule="nonzero"></path><path fill="#ffffff" d="M 171.988281 160.371094 L 174.347656 160.371094 L 174.347656 162.34375 L 174.53125 162.34375 C 174.84375 161.636719 175.367188 161.042969 176.03125 160.644531 C 176.699219 160.25 177.46875 160.070312 178.242188 160.132812 C 178.847656 160.085938 179.457031 160.179688 180.019531 160.398438 C 180.585938 160.621094 181.09375 160.964844 181.507812 161.40625 C 181.917969 161.851562 182.226562 162.382812 182.40625 162.960938 C 182.589844 163.539062 182.636719 164.148438 182.546875 164.75 L 182.546875 172.785156 L 180.09375 172.785156 L 180.09375 165.363281 C 180.09375 163.371094 179.222656 162.378906 177.410156 162.378906 C 177 162.359375 176.589844 162.429688 176.207031 162.582031 C 175.828125 162.734375 175.484375 162.96875 175.203125 163.269531 C 174.917969 163.566406 174.703125 163.925781 174.574219 164.3125 C 174.441406 164.703125 174.398438 165.113281 174.441406 165.523438 L 174.441406 172.785156 L 171.988281 172.785156 Z M 171.988281 160.371094 " fill-opacity="1" fill-rule="nonzero"></path><path fill="#ffffff" d="M 186.457031 155.527344 L 188.910156 155.527344 L 188.910156 172.785156 L 186.457031 172.785156 Z M 186.457031 155.527344 " fill-opacity="1" fill-rule="nonzero"></path><path fill="#ffffff" d="M 192.320312 166.574219 C 192.242188 165.757812 192.335938 164.933594 192.597656 164.15625 C 192.855469 163.378906 193.273438 162.664062 193.828125 162.058594 C 194.378906 161.453125 195.050781 160.96875 195.800781 160.636719 C 196.554688 160.304688 197.363281 160.132812 198.1875 160.132812 C 199.007812 160.132812 199.820312 160.304688 200.570312 160.636719 C 201.320312 160.96875 201.992188 161.453125 202.542969 162.058594 C 203.097656 162.664062 203.515625 163.378906 203.773438 164.15625 C 204.035156 164.933594 204.128906 165.757812 204.050781 166.574219 C 204.128906 167.390625 204.035156 168.214844 203.777344 168.992188 C 203.519531 169.769531 203.101562 170.488281 202.546875 171.09375 C 201.996094 171.703125 201.324219 172.1875 200.570312 172.519531 C 199.820312 172.851562 199.007812 173.023438 198.1875 173.023438 C 197.363281 173.023438 196.550781 172.851562 195.800781 172.519531 C 195.046875 172.1875 194.375 171.703125 193.824219 171.09375 C 193.269531 170.488281 192.851562 169.769531 192.59375 168.992188 C 192.335938 168.214844 192.242188 167.390625 192.320312 166.574219 Z M 201.523438 166.574219 C 201.523438 163.882812 200.3125 162.308594 198.1875 162.308594 C 196.054688 162.308594 194.855469 163.882812 194.855469 166.574219 C 194.855469 169.285156 196.054688 170.84375 198.1875 170.84375 C 200.3125 170.84375 201.523438 169.273438 201.523438 166.574219 Z M 201.523438 166.574219 " fill-opacity="1" fill-rule="nonzero"></path><path fill="#ffffff" d="M 206.632812 169.273438 C 206.632812 167.039062 208.300781 165.75 211.257812 165.570312 L 214.625 165.375 L 214.625 164.304688 C 214.625 162.992188 213.757812 162.253906 212.082031 162.253906 C 210.710938 162.253906 209.761719 162.753906 209.488281 163.632812 L 207.113281 163.632812 C 207.363281 161.5 209.371094 160.132812 212.195312 160.132812 C 215.3125 160.132812 217.070312 161.679688 217.070312 164.304688 L 217.070312 172.785156 L 214.707031 172.785156 L 214.707031 171.039062 L 214.511719 171.039062 C 214.117188 171.664062 213.566406 172.175781 212.910156 172.515625 C 212.253906 172.859375 211.515625 173.023438 210.777344 172.988281 C 210.253906 173.042969 209.726562 172.988281 209.230469 172.824219 C 208.730469 172.664062 208.269531 172.398438 207.878906 172.046875 C 207.488281 171.699219 207.175781 171.269531 206.960938 170.792969 C 206.746094 170.316406 206.636719 169.796875 206.632812 169.273438 Z M 214.625 168.214844 L 214.625 167.175781 L 211.589844 167.371094 C 209.878906 167.484375 209.101562 168.066406 209.101562 169.160156 C 209.101562 170.277344 210.070312 170.925781 211.40625 170.925781 C 211.796875 170.964844 212.191406 170.925781 212.566406 170.808594 C 212.941406 170.695312 213.292969 170.503906 213.59375 170.25 C 213.890625 169.996094 214.140625 169.6875 214.316406 169.335938 C 214.492188 168.988281 214.597656 168.605469 214.625 168.214844 Z M 214.625 168.214844 " fill-opacity="1" fill-rule="nonzero"></path><path fill="#ffffff" d="M 220.292969 166.574219 C 220.292969 162.652344 222.3125 160.167969 225.453125 160.167969 C 226.230469 160.128906 227.003906 160.316406 227.679688 160.703125 C 228.351562 161.085938 228.90625 161.65625 229.269531 162.34375 L 229.449219 162.34375 L 229.449219 155.527344 L 231.90625 155.527344 L 231.90625 172.785156 L 229.554688 172.785156 L 229.554688 170.824219 L 229.359375 170.824219 C 228.96875 171.503906 228.398438 172.066406 227.710938 172.449219 C 227.019531 172.832031 226.242188 173.015625 225.453125 172.988281 C 222.292969 172.988281 220.292969 170.503906 220.292969 166.574219 Z M 222.828125 166.574219 C 222.828125 169.203125 224.070312 170.789062 226.152344 170.789062 C 228.21875 170.789062 229.496094 169.183594 229.496094 166.582031 C 229.496094 163.996094 228.207031 162.367188 226.152344 162.367188 C 224.085938 162.367188 222.828125 163.960938 222.828125 166.574219 Z M 222.828125 166.574219 " fill-opacity="1" fill-rule="nonzero"></path><path fill="#ffffff" d="M 242.058594 166.574219 C 241.980469 165.757812 242.074219 164.933594 242.332031 164.15625 C 242.589844 163.378906 243.011719 162.664062 243.5625 162.058594 C 244.113281 161.453125 244.785156 160.96875 245.539062 160.636719 C 246.289062 160.304688 247.101562 160.132812 247.921875 160.132812 C 248.742188 160.132812 249.554688 160.304688 250.304688 160.636719 C 251.054688 160.96875 251.726562 161.453125 252.28125 162.058594 C 252.832031 162.664062 253.25 163.378906 253.511719 164.15625 C 253.769531 164.933594 253.863281 165.757812 253.785156 166.574219 C 253.863281 167.390625 253.773438 168.214844 253.511719 168.992188 C 253.253906 169.769531 252.835938 170.488281 252.285156 171.09375 C 251.730469 171.703125 251.058594 172.1875 250.308594 172.519531 C 249.554688 172.851562 248.742188 173.023438 247.921875 173.023438 C 247.097656 173.023438 246.285156 172.851562 245.535156 172.519531 C 244.785156 172.1875 244.109375 171.703125 243.558594 171.09375 C 243.003906 170.488281 242.585938 169.769531 242.328125 168.992188 C 242.070312 168.214844 241.976562 167.390625 242.058594 166.574219 Z M 251.261719 166.574219 C 251.261719 163.882812 250.050781 162.308594 247.925781 162.308594 C 245.792969 162.308594 244.59375 163.882812 244.59375 166.574219 C 244.59375 169.285156 245.792969 170.84375 247.925781 170.84375 C 250.050781 170.84375 251.261719 169.273438 251.261719 166.574219 Z M 251.261719 166.574219 " fill-opacity="1" fill-rule="nonzero"></path><path fill="#ffffff" d="M 257.078125 160.371094 L 259.4375 160.371094 L 259.4375 162.34375 L 259.621094 162.34375 C 259.933594 161.636719 260.457031 161.042969 261.125 160.644531 C 261.789062 160.25 262.5625 160.070312 263.332031 160.132812 C 263.9375 160.085938 264.546875 160.179688 265.109375 160.398438 C 265.675781 160.621094 266.183594 160.964844 266.597656 161.40625 C 267.007812 161.851562 267.316406 162.382812 267.496094 162.960938 C 267.679688 163.539062 267.726562 164.148438 267.636719 164.75 L 267.636719 172.785156 L 265.183594 172.785156 L 265.183594 165.363281 C 265.183594 163.371094 264.3125 162.378906 262.5 162.378906 C 262.089844 162.359375 261.679688 162.429688 261.296875 162.582031 C 260.917969 162.734375 260.574219 162.96875 260.289062 163.269531 C 260.007812 163.566406 259.796875 163.925781 259.664062 164.3125 C 259.53125 164.703125 259.488281 165.113281 259.53125 165.523438 L 259.53125 172.785156 L 257.078125 172.785156 Z M 257.078125 160.371094 " fill-opacity="1" fill-rule="nonzero"></path><path fill="#ffffff" d="M 281.5 157.28125 L 281.5 160.429688 L 284.195312 160.429688 L 284.195312 162.492188 L 281.5 162.492188 L 281.5 168.875 C 281.5 170.175781 282.039062 170.742188 283.257812 170.742188 C 283.570312 170.742188 283.886719 170.722656 284.195312 170.6875 L 284.195312 172.726562 C 283.753906 172.804688 283.308594 172.847656 282.863281 172.851562 C 280.132812 172.851562 279.046875 171.894531 279.046875 169.5 L 279.046875 162.492188 L 277.070312 162.492188 L 277.070312 160.429688 L 279.046875 160.429688 L 279.046875 157.28125 Z M 281.5 157.28125 " fill-opacity="1" fill-rule="nonzero"></path><path fill="#ffffff" d="M 287.546875 155.527344 L 289.980469 155.527344 L 289.980469 162.367188 L 290.171875 162.367188 C 290.5 161.652344 291.039062 161.054688 291.71875 160.65625 C 292.394531 160.257812 293.179688 160.078125 293.964844 160.144531 C 294.566406 160.109375 295.167969 160.210938 295.726562 160.4375 C 296.285156 160.664062 296.785156 161.007812 297.195312 161.453125 C 297.605469 161.894531 297.910156 162.421875 298.09375 162.992188 C 298.273438 163.566406 298.328125 164.175781 298.246094 164.769531 L 298.246094 172.785156 L 295.789062 172.785156 L 295.789062 165.375 C 295.789062 163.390625 294.863281 162.386719 293.128906 162.386719 C 292.710938 162.355469 292.285156 162.410156 291.886719 162.558594 C 291.492188 162.703125 291.132812 162.933594 290.832031 163.234375 C 290.535156 163.535156 290.304688 163.894531 290.164062 164.292969 C 290.019531 164.691406 289.964844 165.113281 290.003906 165.535156 L 290.003906 172.785156 L 287.546875 172.785156 Z M 287.546875 155.527344 " fill-opacity="1" fill-rule="nonzero"></path><path fill="#ffffff" d="M 312.554688 169.433594 C 312.222656 170.566406 311.5 171.546875 310.515625 172.203125 C 309.53125 172.859375 308.34375 173.148438 307.167969 173.023438 C 306.347656 173.042969 305.535156 172.886719 304.78125 172.5625 C 304.03125 172.238281 303.355469 171.757812 302.808594 171.148438 C 302.261719 170.539062 301.855469 169.816406 301.617188 169.035156 C 301.378906 168.253906 301.3125 167.425781 301.421875 166.617188 C 301.316406 165.804688 301.382812 164.976562 301.621094 164.191406 C 301.859375 163.40625 302.265625 162.683594 302.808594 162.070312 C 303.351562 161.453125 304.019531 160.964844 304.773438 160.628906 C 305.519531 160.296875 306.335938 160.125 307.15625 160.132812 C 310.613281 160.132812 312.703125 162.492188 312.703125 166.390625 L 312.703125 167.242188 L 303.925781 167.242188 L 303.925781 167.382812 C 303.886719 167.835938 303.941406 168.296875 304.09375 168.726562 C 304.242188 169.160156 304.480469 169.554688 304.792969 169.890625 C 305.105469 170.226562 305.480469 170.492188 305.902344 170.671875 C 306.324219 170.851562 306.777344 170.941406 307.234375 170.9375 C 307.820312 171.007812 308.417969 170.902344 308.941406 170.632812 C 309.46875 170.367188 309.90625 169.949219 310.191406 169.433594 Z M 303.925781 165.433594 L 310.203125 165.433594 C 310.234375 165.015625 310.179688 164.597656 310.039062 164.203125 C 309.898438 163.8125 309.671875 163.449219 309.386719 163.148438 C 309.097656 162.84375 308.75 162.605469 308.363281 162.445312 C 307.976562 162.285156 307.5625 162.207031 307.144531 162.21875 C 306.71875 162.210938 306.296875 162.292969 305.90625 162.449219 C 305.511719 162.609375 305.152344 162.847656 304.855469 163.148438 C 304.554688 163.445312 304.316406 163.804688 304.15625 164.195312 C 303.996094 164.589844 303.917969 165.007812 303.925781 165.433594 Z M 303.925781 165.433594 " fill-opacity="1" fill-rule="nonzero"></path></svg>