<svg xmlns="http://www.w3.org/2000/svg" xmlns:xlink="http://www.w3.org/1999/xlink" width="500" viewBox="0 0 375 374.999991" height="500" preserveAspectRatio="xMidYMid meet"><defs><clipPath id="c88c632083"><path d="M 1.117188 132.273438 L 373.882812 132.273438 L 373.882812 242.523438 L 1.117188 242.523438 Z M 1.117188 132.273438 " clip-rule="nonzero"></path></clipPath><clipPath id="5f1825d8bb"><path d="M 28 152 L 65 152 L 65 222 L 28 222 Z M 28 152 " clip-rule="nonzero"></path></clipPath><clipPath id="b816537591"><path d="M 29.929688 153.050781 C 28.992188 154.171875 28.5625 155.460938 28.652344 156.921875 L 28.652344 217.878906 C 28.570312 219.285156 29.023438 220.671875 29.929688 221.75 L 30.132812 221.949219 L 64.347656 187.804688 L 64.347656 187 L 30.136719 152.847656 L 29.933594 153.050781 Z M 29.929688 153.050781 " clip-rule="nonzero"></path></clipPath><linearGradient x1="22.972" gradientTransform="matrix(2.76123, 0, 0, 2.75625, 1.116948, 132.272747)" y1="7.537" x2="3.956621" gradientUnits="userSpaceOnUse" y2="26.55238" id="28e81f0811"><stop stop-opacity="1" stop-color="rgb(0%, 62.69989%, 100%)" offset="0"></stop><stop stop-opacity="1" stop-color="rgb(0%, 62.72583%, 100%)" offset="0.0625"></stop><stop stop-opacity="1" stop-color="rgb(0%, 62.988281%, 100%)" offset="0.0664062"></stop><stop stop-opacity="1" stop-color="rgb(0%, 63.224792%, 100%)" offset="0.0703125"></stop><stop stop-opacity="1" stop-color="rgb(0%, 63.423157%, 100%)" offset="0.0742188"></stop><stop stop-opacity="1" stop-color="rgb(0%, 63.623047%, 100%)" offset="0.078125"></stop><stop stop-opacity="1" stop-color="rgb(0%, 63.821411%, 100%)" offset="0.0820312"></stop><stop stop-opacity="1" stop-color="rgb(0%, 64.021301%, 100%)" offset="0.0859375"></stop><stop stop-opacity="1" stop-color="rgb(0%, 64.221191%, 100%)" offset="0.0898438"></stop><stop stop-opacity="1" stop-color="rgb(0%, 64.421082%, 100%)" offset="0.09375"></stop><stop stop-opacity="1" stop-color="rgb(0%, 64.619446%, 100%)" offset="0.0976563"></stop><stop stop-opacity="1" stop-color="rgb(0%, 64.819336%, 100%)" offset="0.101562"></stop><stop stop-opacity="1" stop-color="rgb(0%, 65.019226%, 100%)" offset="0.105469"></stop><stop stop-opacity="1" stop-color="rgb(0%, 65.219116%, 100%)" offset="0.109375"></stop><stop stop-opacity="1" stop-color="rgb(0%, 65.41748%, 100%)" offset="0.113281"></stop><stop stop-opacity="1" stop-color="rgb(0%, 65.617371%, 100%)" offset="0.117188"></stop><stop stop-opacity="1" stop-color="rgb(0%, 65.815735%, 100%)" offset="0.121094"></stop><stop stop-opacity="1" stop-color="rgb(0%, 66.015625%, 100%)" offset="0.125"></stop><stop stop-opacity="1" stop-color="rgb(0%, 66.215515%, 100%)" offset="0.128906"></stop><stop stop-opacity="1" stop-color="rgb(0%, 66.415405%, 100%)" offset="0.132813"></stop><stop stop-opacity="1" stop-color="rgb(0%, 66.61377%, 100%)" offset="0.136719"></stop><stop stop-opacity="1" stop-color="rgb(0%, 66.81366%, 100%)" offset="0.140625"></stop><stop stop-opacity="1" stop-color="rgb(0%, 67.01355%, 100%)" offset="0.144531"></stop><stop stop-opacity="1" stop-color="rgb(0%, 67.21344%, 100%)" offset="0.148438"></stop><stop stop-opacity="1" stop-color="rgb(0%, 67.411804%, 100%)" offset="0.152344"></stop><stop stop-opacity="1" stop-color="rgb(0%, 67.611694%, 100%)" offset="0.15625"></stop><stop stop-opacity="1" stop-color="rgb(0%, 67.810059%, 100%)" offset="0.160156"></stop><stop stop-opacity="1" stop-color="rgb(0%, 68.009949%, 100%)" offset="0.164062"></stop><stop stop-opacity="1" stop-color="rgb(0%, 68.209839%, 100%)" offset="0.167969"></stop><stop stop-opacity="1" stop-color="rgb(0%, 68.409729%, 100%)" offset="0.171875"></stop><stop stop-opacity="1" stop-color="rgb(0%, 68.608093%, 100%)" offset="0.175781"></stop><stop stop-opacity="1" stop-color="rgb(0%, 68.807983%, 100%)" offset="0.179688"></stop><stop stop-opacity="1" stop-color="rgb(0%, 69.007874%, 100%)" offset="0.183594"></stop><stop stop-opacity="1" stop-color="rgb(0%, 69.207764%, 100%)" offset="0.1875"></stop><stop stop-opacity="1" stop-color="rgb(0%, 69.406128%, 100%)" offset="0.191406"></stop><stop stop-opacity="1" stop-color="rgb(0%, 69.606018%, 100%)" offset="0.195313"></stop><stop stop-opacity="1" stop-color="rgb(0%, 69.805908%, 100%)" offset="0.199219"></stop><stop stop-opacity="1" stop-color="rgb(0%, 70.005798%, 100%)" offset="0.203125"></stop><stop stop-opacity="1" stop-color="rgb(0%, 70.204163%, 100%)" offset="0.207031"></stop><stop stop-opacity="1" stop-color="rgb(0%, 70.404053%, 100%)" offset="0.210938"></stop><stop stop-opacity="1" stop-color="rgb(0%, 70.602417%, 100%)" offset="0.214844"></stop><stop stop-opacity="1" stop-color="rgb(0%, 70.802307%, 100%)" offset="0.21875"></stop><stop stop-opacity="1" stop-color="rgb(0%, 71.002197%, 100%)" offset="0.222656"></stop><stop stop-opacity="1" stop-color="rgb(0%, 71.202087%, 100%)" offset="0.226562"></stop><stop stop-opacity="1" stop-color="rgb(0%, 71.400452%, 100%)" offset="0.230469"></stop><stop stop-opacity="1" stop-color="rgb(0%, 71.600342%, 100%)" offset="0.234375"></stop><stop stop-opacity="1" stop-color="rgb(0%, 71.800232%, 100%)" offset="0.238281"></stop><stop stop-opacity="1" stop-color="rgb(0%, 72.000122%, 100%)" offset="0.242188"></stop><stop stop-opacity="1" stop-color="rgb(0%, 72.198486%, 100%)" offset="0.246094"></stop><stop stop-opacity="1" stop-color="rgb(0%, 72.398376%, 100%)" offset="0.25"></stop><stop stop-opacity="1" stop-color="rgb(0%, 72.596741%, 100%)" offset="0.253906"></stop><stop stop-opacity="1" stop-color="rgb(0%, 72.796631%, 100%)" offset="0.257813"></stop><stop stop-opacity="1" stop-color="rgb(0%, 72.996521%, 100%)" offset="0.261719"></stop><stop stop-opacity="1" stop-color="rgb(0%, 73.196411%, 100%)" offset="0.265625"></stop><stop stop-opacity="1" stop-color="rgb(0%, 73.394775%, 100%)" offset="0.269531"></stop><stop stop-opacity="1" stop-color="rgb(0%, 73.594666%, 100%)" offset="0.273438"></stop><stop stop-opacity="1" stop-color="rgb(0%, 73.794556%, 100%)" offset="0.277344"></stop><stop stop-opacity="1" stop-color="rgb(0%, 73.994446%, 100%)" offset="0.28125"></stop><stop stop-opacity="1" stop-color="rgb(0%, 74.19281%, 100%)" offset="0.285156"></stop><stop stop-opacity="1" stop-color="rgb(0%, 74.3927%, 100%)" offset="0.289062"></stop><stop stop-opacity="1" stop-color="rgb(0%, 74.546814%, 100%)" offset="0.296875"></stop><stop stop-opacity="1" stop-color="rgb(0%, 74.841309%, 100%)" offset="0.304688"></stop><stop stop-opacity="1" stop-color="rgb(0%, 75.119019%, 100%)" offset="0.3125"></stop><stop stop-opacity="1" stop-color="rgb(0%, 75.396729%, 100%)" offset="0.320312"></stop><stop stop-opacity="1" stop-color="rgb(0%, 75.674438%, 100%)" offset="0.328125"></stop><stop stop-opacity="1" stop-color="rgb(0%, 75.950623%, 100%)" offset="0.335938"></stop><stop stop-opacity="1" stop-color="rgb(0%, 76.228333%, 100%)" offset="0.340771"></stop><stop stop-opacity="1" stop-color="rgb(0%, 76.367188%, 100%)" offset="0.34375"></stop><stop stop-opacity="1" stop-color="rgb(0%, 76.506042%, 100%)" offset="0.351562"></stop><stop stop-opacity="1" stop-color="rgb(0%, 76.783752%, 100%)" offset="0.359375"></stop><stop stop-opacity="1" stop-color="rgb(0%, 77.061462%, 100%)" offset="0.367187"></stop><stop stop-opacity="1" stop-color="rgb(0%, 77.339172%, 100%)" offset="0.375"></stop><stop stop-opacity="1" stop-color="rgb(0%, 77.616882%, 100%)" offset="0.382813"></stop><stop stop-opacity="1" stop-color="rgb(0%, 77.894592%, 100%)" offset="0.390625"></stop><stop stop-opacity="1" stop-color="rgb(0%, 78.170776%, 100%)" offset="0.398438"></stop><stop stop-opacity="1" stop-color="rgb(0%, 78.448486%, 100%)" offset="0.40625"></stop><stop stop-opacity="1" stop-color="rgb(0%, 78.726196%, 100%)" offset="0.414062"></stop><stop stop-opacity="1" stop-color="rgb(0%, 79.003906%, 100%)" offset="0.421875"></stop><stop stop-opacity="1" stop-color="rgb(0%, 79.281616%, 100%)" offset="0.429688"></stop><stop stop-opacity="1" stop-color="rgb(0%, 79.559326%, 100%)" offset="0.4375"></stop><stop stop-opacity="1" stop-color="rgb(0%, 79.837036%, 100%)" offset="0.445313"></stop><stop stop-opacity="1" stop-color="rgb(0%, 80.11322%, 100%)" offset="0.453125"></stop><stop stop-opacity="1" stop-color="rgb(0%, 80.39093%, 100%)" offset="0.460938"></stop><stop stop-opacity="1" stop-color="rgb(0%, 80.66864%, 100%)" offset="0.46875"></stop><stop stop-opacity="1" stop-color="rgb(0%, 80.94635%, 100%)" offset="0.476563"></stop><stop stop-opacity="1" stop-color="rgb(0%, 81.22406%, 100%)" offset="0.484375"></stop><stop stop-opacity="1" stop-color="rgb(0%, 81.50177%, 100%)" offset="0.492188"></stop><stop stop-opacity="1" stop-color="rgb(0%, 81.77948%, 100%)" offset="0.5"></stop><stop stop-opacity="1" stop-color="rgb(0%, 82.05719%, 100%)" offset="0.507813"></stop><stop stop-opacity="1" stop-color="rgb(0%, 82.321167%, 100%)" offset="0.515625"></stop><stop stop-opacity="1" stop-color="rgb(0%, 82.629395%, 100%)" offset="0.53125"></stop><stop stop-opacity="1" stop-color="rgb(0%, 82.992554%, 100%)" offset="0.546875"></stop><stop stop-opacity="1" stop-color="rgb(0%, 83.357239%, 100%)" offset="0.5625"></stop><stop stop-opacity="1" stop-color="rgb(0%, 83.721924%, 100%)" offset="0.578125"></stop><stop stop-opacity="1" stop-color="rgb(0%, 84.085083%, 100%)" offset="0.59375"></stop><stop stop-opacity="1" stop-color="rgb(0%, 84.449768%, 100%)" offset="0.609375"></stop><stop stop-opacity="1" stop-color="rgb(0%, 84.812927%, 100%)" offset="0.625"></stop><stop stop-opacity="1" stop-color="rgb(0%, 85.177612%, 100%)" offset="0.640625"></stop><stop stop-opacity="1" stop-color="rgb(0%, 85.542297%, 100%)" offset="0.65625"></stop><stop stop-opacity="1" stop-color="rgb(0%, 85.905457%, 100%)" offset="0.659229"></stop><stop stop-opacity="1" stop-color="rgb(0%, 86.088562%, 100%)" offset="0.671875"></stop><stop stop-opacity="1" stop-color="rgb(0%, 86.270142%, 100%)" offset="0.6875"></stop><stop stop-opacity="1" stop-color="rgb(0%, 86.633301%, 100%)" offset="0.703125"></stop><stop stop-opacity="1" stop-color="rgb(0%, 86.997986%, 100%)" offset="0.71875"></stop><stop stop-opacity="1" stop-color="rgb(0%, 87.347412%, 100%)" offset="0.734375"></stop><stop stop-opacity="1" stop-color="rgb(0%, 87.568665%, 100%)" offset="0.75"></stop><stop stop-opacity="1" stop-color="rgb(0%, 87.733459%, 100%)" offset="0.78125"></stop><stop stop-opacity="1" stop-color="rgb(0%, 87.954712%, 100%)" offset="0.8125"></stop><stop stop-opacity="1" stop-color="rgb(0%, 88.175964%, 100%)" offset="0.84375"></stop><stop stop-opacity="1" stop-color="rgb(0%, 88.397217%, 100%)" offset="0.875"></stop><stop stop-opacity="1" stop-color="rgb(0%, 88.618469%, 100%)" offset="0.90625"></stop><stop stop-opacity="1" stop-color="rgb(0%, 88.839722%, 100%)" offset="0.9375"></stop><stop stop-opacity="1" stop-color="rgb(0%, 88.975525%, 100%)" offset="1"></stop></linearGradient><clipPath id="0f5f3d0497"><path d="M 64 175 L 93 175 L 93 200 L 64 200 Z M 64 175 " clip-rule="nonzero"></path></clipPath><clipPath id="6f4430a604"><path d="M 75.746094 199.191406 L 64.339844 187.804688 L 64.339844 187 L 75.746094 175.613281 L 76.003906 175.761719 L 89.515625 183.421875 C 93.375 185.613281 93.375 189.191406 89.515625 191.378906 L 76.003906 199.042969 Z M 75.746094 199.191406 " clip-rule="nonzero"></path></clipPath><linearGradient x1="33.411997" gradientTransform="matrix(2.76123, 0, 0, 2.75625, 1.116948, 132.272747)" y1="20.002001" x2="22.896998" gradientUnits="userSpaceOnUse" y2="20.002001" id="a3bc60854e"><stop stop-opacity="1" stop-color="rgb(100%, 87.214661%, 0%)" offset="0"></stop><stop stop-opacity="1" stop-color="rgb(100%, 87.10022%, 0%)" offset="0.015625"></stop><stop stop-opacity="1" stop-color="rgb(100%, 86.872864%, 0%)" offset="0.03125"></stop><stop stop-opacity="1" stop-color="rgb(100%, 86.645508%, 0%)" offset="0.046875"></stop><stop stop-opacity="1" stop-color="rgb(100%, 86.418152%, 0%)" offset="0.0625"></stop><stop stop-opacity="1" stop-color="rgb(100%, 86.190796%, 0%)" offset="0.078125"></stop><stop stop-opacity="1" stop-color="rgb(100%, 85.96344%, 0%)" offset="0.09375"></stop><stop stop-opacity="1" stop-color="rgb(100%, 85.736084%, 0%)" offset="0.109375"></stop><stop stop-opacity="1" stop-color="rgb(100%, 85.508728%, 0%)" offset="0.125"></stop><stop stop-opacity="1" stop-color="rgb(100%, 85.281372%, 0%)" offset="0.140625"></stop><stop stop-opacity="1" stop-color="rgb(100%, 85.054016%, 0%)" offset="0.15625"></stop><stop stop-opacity="1" stop-color="rgb(100%, 84.82666%, 0%)" offset="0.171875"></stop><stop stop-opacity="1" stop-color="rgb(100%, 84.599304%, 0%)" offset="0.1875"></stop><stop stop-opacity="1" stop-color="rgb(100%, 84.371948%, 0%)" offset="0.203125"></stop><stop stop-opacity="1" stop-color="rgb(100%, 84.144592%, 0%)" offset="0.21875"></stop><stop stop-opacity="1" stop-color="rgb(100%, 83.91571%, 0%)" offset="0.234375"></stop><stop stop-opacity="1" stop-color="rgb(100%, 83.688354%, 0%)" offset="0.25"></stop><stop stop-opacity="1" stop-color="rgb(100%, 83.460999%, 0%)" offset="0.265625"></stop><stop stop-opacity="1" stop-color="rgb(100%, 83.233643%, 0%)" offset="0.28125"></stop><stop stop-opacity="1" stop-color="rgb(100%, 83.006287%, 0%)" offset="0.296875"></stop><stop stop-opacity="1" stop-color="rgb(100%, 82.778931%, 0%)" offset="0.3125"></stop><stop stop-opacity="1" stop-color="rgb(100%, 82.551575%, 0%)" offset="0.328125"></stop><stop stop-opacity="1" stop-color="rgb(100%, 82.324219%, 0%)" offset="0.34375"></stop><stop stop-opacity="1" stop-color="rgb(100%, 82.096863%, 0%)" offset="0.359375"></stop><stop stop-opacity="1" stop-color="rgb(100%, 81.869507%, 0%)" offset="0.375"></stop><stop stop-opacity="1" stop-color="rgb(100%, 81.642151%, 0%)" offset="0.390625"></stop><stop stop-opacity="1" stop-color="rgb(100%, 81.414795%, 0%)" offset="0.40625"></stop><stop stop-opacity="1" stop-color="rgb(100%, 81.187439%, 0%)" offset="0.421875"></stop><stop stop-opacity="1" stop-color="rgb(100%, 80.960083%, 0%)" offset="0.4375"></stop><stop stop-opacity="1" stop-color="rgb(100%, 80.732727%, 0%)" offset="0.453125"></stop><stop stop-opacity="1" stop-color="rgb(100%, 80.505371%, 0%)" offset="0.46875"></stop><stop stop-opacity="1" stop-color="rgb(100%, 80.278015%, 0%)" offset="0.484375"></stop><stop stop-opacity="1" stop-color="rgb(100%, 80.050659%, 0%)" offset="0.5"></stop><stop stop-opacity="1" stop-color="rgb(100%, 79.823303%, 0%)" offset="0.515625"></stop><stop stop-opacity="1" stop-color="rgb(100%, 79.594421%, 0%)" offset="0.53125"></stop><stop stop-opacity="1" stop-color="rgb(100%, 79.367065%, 0%)" offset="0.546875"></stop><stop stop-opacity="1" stop-color="rgb(100%, 79.139709%, 0%)" offset="0.5625"></stop><stop stop-opacity="1" stop-color="rgb(100%, 78.912354%, 0%)" offset="0.578125"></stop><stop stop-opacity="1" stop-color="rgb(100%, 78.684998%, 0%)" offset="0.59375"></stop><stop stop-opacity="1" stop-color="rgb(100%, 78.457642%, 0%)" offset="0.609375"></stop><stop stop-opacity="1" stop-color="rgb(100%, 78.230286%, 0%)" offset="0.625"></stop><stop stop-opacity="1" stop-color="rgb(100%, 78.00293%, 0%)" offset="0.640625"></stop><stop stop-opacity="1" stop-color="rgb(100%, 77.775574%, 0%)" offset="0.65625"></stop><stop stop-opacity="1" stop-color="rgb(100%, 77.548218%, 0%)" offset="0.671875"></stop><stop stop-opacity="1" stop-color="rgb(100%, 77.320862%, 0%)" offset="0.6875"></stop><stop stop-opacity="1" stop-color="rgb(100%, 77.093506%, 0%)" offset="0.703125"></stop><stop stop-opacity="1" stop-color="rgb(100%, 76.86615%, 0%)" offset="0.71875"></stop><stop stop-opacity="1" stop-color="rgb(100%, 76.638794%, 0%)" offset="0.734375"></stop><stop stop-opacity="1" stop-color="rgb(100%, 76.411438%, 0%)" offset="0.75"></stop><stop stop-opacity="1" stop-color="rgb(100%, 76.184082%, 0%)" offset="0.765625"></stop><stop stop-opacity="1" stop-color="rgb(100%, 75.956726%, 0%)" offset="0.78125"></stop><stop stop-opacity="1" stop-color="rgb(100%, 75.72937%, 0%)" offset="0.796875"></stop><stop stop-opacity="1" stop-color="rgb(100%, 75.500488%, 0%)" offset="0.8125"></stop><stop stop-opacity="1" stop-color="rgb(100%, 75.273132%, 0%)" offset="0.828125"></stop><stop stop-opacity="1" stop-color="rgb(100%, 75.045776%, 0%)" offset="0.84375"></stop><stop stop-opacity="1" stop-color="rgb(100%, 74.81842%, 0%)" offset="0.859375"></stop><stop stop-opacity="1" stop-color="rgb(100%, 74.591064%, 0%)" offset="0.875"></stop><stop stop-opacity="1" stop-color="rgb(100%, 74.363708%, 0%)" offset="0.890625"></stop><stop stop-opacity="1" stop-color="rgb(100%, 74.145508%, 0%)" offset="0.90625"></stop><stop stop-opacity="1" stop-color="rgb(100%, 73.866272%, 0%)" offset="0.9375"></stop><stop stop-opacity="1" stop-color="rgb(100%, 73.518372%, 0%)" offset="0.96875"></stop><stop stop-opacity="1" stop-color="rgb(100%, 73.168945%, 0%)" offset="1"></stop></linearGradient><clipPath id="fe7d904a55"><path d="M 29 187 L 77 187 L 77 223 L 29 223 Z M 29 187 " clip-rule="nonzero"></path></clipPath><clipPath id="cac64419f7"><path d="M 76.007812 199.042969 L 64.34375 187.402344 L 29.929688 221.75 C 30.324219 222.097656 30.765625 222.367188 31.25 222.558594 C 31.738281 222.75 32.246094 222.855469 32.769531 222.871094 C 33.292969 222.886719 33.804688 222.8125 34.300781 222.648438 C 34.800781 222.484375 35.253906 222.242188 35.667969 221.917969 Z M 76.007812 199.042969 " clip-rule="nonzero"></path></clipPath><linearGradient x1="27.122051" gradientTransform="matrix(2.76123, 0, 0, 2.75625, 1.116948, 132.272747)" y1="20.00105" x2="12.340913" gradientUnits="userSpaceOnUse" y2="34.781539" id="ef9c775130"><stop stop-opacity="1" stop-color="rgb(100%, 22.698975%, 26.699829%)" offset="0"></stop><stop stop-opacity="1" stop-color="rgb(100%, 22.698975%, 26.699829%)" offset="0.125"></stop><stop stop-opacity="1" stop-color="rgb(99.992371%, 22.692871%, 26.702881%)" offset="0.15625"></stop><stop stop-opacity="1" stop-color="rgb(99.864197%, 22.607422%, 26.765442%)" offset="0.171875"></stop><stop stop-opacity="1" stop-color="rgb(99.62616%, 22.445679%, 26.88446%)" offset="0.1875"></stop><stop stop-opacity="1" stop-color="rgb(99.388123%, 22.28241%, 27.003479%)" offset="0.203125"></stop><stop stop-opacity="1" stop-color="rgb(99.150085%, 22.120667%, 27.122498%)" offset="0.21875"></stop><stop stop-opacity="1" stop-color="rgb(98.910522%, 21.957397%, 27.241516%)" offset="0.234375"></stop><stop stop-opacity="1" stop-color="rgb(98.672485%, 21.795654%, 27.359009%)" offset="0.25"></stop><stop stop-opacity="1" stop-color="rgb(98.434448%, 21.633911%, 27.478027%)" offset="0.265625"></stop><stop stop-opacity="1" stop-color="rgb(98.194885%, 21.470642%, 27.597046%)" offset="0.28125"></stop><stop stop-opacity="1" stop-color="rgb(97.956848%, 21.308899%, 27.716064%)" offset="0.296875"></stop><stop stop-opacity="1" stop-color="rgb(97.718811%, 21.14563%, 27.835083%)" offset="0.3125"></stop><stop stop-opacity="1" stop-color="rgb(97.480774%, 20.983887%, 27.952576%)" offset="0.328125"></stop><stop stop-opacity="1" stop-color="rgb(97.241211%, 20.822144%, 28.071594%)" offset="0.34375"></stop><stop stop-opacity="1" stop-color="rgb(97.003174%, 20.658875%, 28.190613%)" offset="0.359375"></stop><stop stop-opacity="1" stop-color="rgb(96.765137%, 20.497131%, 28.309631%)" offset="0.375"></stop><stop stop-opacity="1" stop-color="rgb(96.525574%, 20.333862%, 28.42865%)" offset="0.390625"></stop><stop stop-opacity="1" stop-color="rgb(96.287537%, 20.172119%, 28.546143%)" offset="0.40625"></stop><stop stop-opacity="1" stop-color="rgb(96.0495%, 20.010376%, 28.665161%)" offset="0.421875"></stop><stop stop-opacity="1" stop-color="rgb(95.811462%, 19.847107%, 28.78418%)" offset="0.435506"></stop><stop stop-opacity="1" stop-color="rgb(95.692444%, 19.766235%, 28.843689%)" offset="0.4375"></stop><stop stop-opacity="1" stop-color="rgb(95.571899%, 19.685364%, 28.903198%)" offset="0.453125"></stop><stop stop-opacity="1" stop-color="rgb(95.333862%, 19.522095%, 29.022217%)" offset="0.46875"></stop><stop stop-opacity="1" stop-color="rgb(95.095825%, 19.360352%, 29.141235%)" offset="0.484375"></stop><stop stop-opacity="1" stop-color="rgb(94.856262%, 19.198608%, 29.258728%)" offset="0.5"></stop><stop stop-opacity="1" stop-color="rgb(94.618225%, 19.035339%, 29.377747%)" offset="0.515625"></stop><stop stop-opacity="1" stop-color="rgb(94.380188%, 18.873596%, 29.496765%)" offset="0.53125"></stop><stop stop-opacity="1" stop-color="rgb(94.142151%, 18.710327%, 29.615784%)" offset="0.546875"></stop><stop stop-opacity="1" stop-color="rgb(93.902588%, 18.548584%, 29.734802%)" offset="0.5625"></stop><stop stop-opacity="1" stop-color="rgb(93.664551%, 18.385315%, 29.852295%)" offset="0.564494"></stop><stop stop-opacity="1" stop-color="rgb(93.545532%, 18.304443%, 29.911804%)" offset="0.578125"></stop><stop stop-opacity="1" stop-color="rgb(93.426514%, 18.223572%, 29.971313%)" offset="0.59375"></stop><stop stop-opacity="1" stop-color="rgb(93.186951%, 18.061829%, 30.090332%)" offset="0.609375"></stop><stop stop-opacity="1" stop-color="rgb(92.948914%, 17.89856%, 30.209351%)" offset="0.625"></stop><stop stop-opacity="1" stop-color="rgb(92.710876%, 17.736816%, 30.328369%)" offset="0.640625"></stop><stop stop-opacity="1" stop-color="rgb(92.472839%, 17.573547%, 30.445862%)" offset="0.65625"></stop><stop stop-opacity="1" stop-color="rgb(92.233276%, 17.411804%, 30.56488%)" offset="0.671875"></stop><stop stop-opacity="1" stop-color="rgb(91.995239%, 17.250061%, 30.683899%)" offset="0.6875"></stop><stop stop-opacity="1" stop-color="rgb(91.757202%, 17.086792%, 30.802917%)" offset="0.703125"></stop><stop stop-opacity="1" stop-color="rgb(91.517639%, 16.925049%, 30.921936%)" offset="0.71875"></stop><stop stop-opacity="1" stop-color="rgb(91.279602%, 16.76178%, 31.040955%)" offset="0.734375"></stop><stop stop-opacity="1" stop-color="rgb(91.041565%, 16.600037%, 31.158447%)" offset="0.75"></stop><stop stop-opacity="1" stop-color="rgb(90.802002%, 16.438293%, 31.277466%)" offset="0.765625"></stop><stop stop-opacity="1" stop-color="rgb(90.563965%, 16.275024%, 31.396484%)" offset="0.78125"></stop><stop stop-opacity="1" stop-color="rgb(90.325928%, 16.113281%, 31.515503%)" offset="0.796875"></stop><stop stop-opacity="1" stop-color="rgb(90.087891%, 15.950012%, 31.634521%)" offset="0.8125"></stop><stop stop-opacity="1" stop-color="rgb(89.848328%, 15.788269%, 31.752014%)" offset="0.828125"></stop><stop stop-opacity="1" stop-color="rgb(89.610291%, 15.626526%, 31.871033%)" offset="0.84375"></stop><stop stop-opacity="1" stop-color="rgb(89.372253%, 15.463257%, 31.990051%)" offset="0.859375"></stop><stop stop-opacity="1" stop-color="rgb(89.13269%, 15.301514%, 32.10907%)" offset="0.875"></stop><stop stop-opacity="1" stop-color="rgb(88.894653%, 15.138245%, 32.228088%)" offset="0.890625"></stop><stop stop-opacity="1" stop-color="rgb(88.656616%, 14.976501%, 32.345581%)" offset="0.90625"></stop><stop stop-opacity="1" stop-color="rgb(88.418579%, 14.813232%, 32.4646%)" offset="0.921875"></stop><stop stop-opacity="1" stop-color="rgb(88.179016%, 14.651489%, 32.583618%)" offset="0.9375"></stop><stop stop-opacity="1" stop-color="rgb(87.940979%, 14.489746%, 32.702637%)" offset="0.953125"></stop><stop stop-opacity="1" stop-color="rgb(87.702942%, 14.326477%, 32.821655%)" offset="0.96875"></stop><stop stop-opacity="1" stop-color="rgb(87.463379%, 14.164734%, 32.939148%)" offset="0.984375"></stop><stop stop-opacity="1" stop-color="rgb(87.225342%, 14.001465%, 33.058167%)" offset="1"></stop></linearGradient><clipPath id="c5065aba71"><path d="M 29 151 L 77 151 L 77 188 L 29 188 Z M 29 151 " clip-rule="nonzero"></path></clipPath><clipPath id="f0367c30ea"><path d="M 76.007812 175.757812 L 35.667969 152.882812 C 35.253906 152.558594 34.800781 152.316406 34.300781 152.152344 C 33.804688 151.988281 33.292969 151.914062 32.769531 151.929688 C 32.246094 151.945312 31.738281 152.050781 31.25 152.242188 C 30.765625 152.433594 30.324219 152.703125 29.929688 153.050781 L 64.34375 187.402344 Z M 76.007812 175.757812 " clip-rule="nonzero"></path></clipPath><linearGradient x1="12.341225" gradientTransform="matrix(2.76123, 0, 0, 2.75625, 1.116948, 132.272747)" y1="5.220722" x2="27.121023" gradientUnits="userSpaceOnUse" y2="20.001973" id="0fdb42cd90"><stop stop-opacity="1" stop-color="rgb(7.835388%, 81.788635%, 45.524597%)" offset="0"></stop><stop stop-opacity="1" stop-color="rgb(7.733154%, 81.951904%, 45.530701%)" offset="0.0078125"></stop><stop stop-opacity="1" stop-color="rgb(7.530212%, 82.281494%, 45.544434%)" offset="0.015625"></stop><stop stop-opacity="1" stop-color="rgb(7.327271%, 82.609558%, 45.558167%)" offset="0.0234375"></stop><stop stop-opacity="1" stop-color="rgb(7.125854%, 82.939148%, 45.571899%)" offset="0.03125"></stop><stop stop-opacity="1" stop-color="rgb(6.922913%, 83.267212%, 45.587158%)" offset="0.0390625"></stop><stop stop-opacity="1" stop-color="rgb(6.719971%, 83.595276%, 45.600891%)" offset="0.046875"></stop><stop stop-opacity="1" stop-color="rgb(6.517029%, 83.924866%, 45.614624%)" offset="0.0546875"></stop><stop stop-opacity="1" stop-color="rgb(6.314087%, 84.25293%, 45.628357%)" offset="0.0625"></stop><stop stop-opacity="1" stop-color="rgb(6.111145%, 84.580994%, 45.64209%)" offset="0.0703125"></stop><stop stop-opacity="1" stop-color="rgb(5.908203%, 84.910583%, 45.655823%)" offset="0.078125"></stop><stop stop-opacity="1" stop-color="rgb(5.705261%, 85.238647%, 45.671082%)" offset="0.0859375"></stop><stop stop-opacity="1" stop-color="rgb(5.502319%, 85.568237%, 45.684814%)" offset="0.09375"></stop><stop stop-opacity="1" stop-color="rgb(5.299377%, 85.896301%, 45.698547%)" offset="0.101562"></stop><stop stop-opacity="1" stop-color="rgb(5.097961%, 86.224365%, 45.71228%)" offset="0.109375"></stop><stop stop-opacity="1" stop-color="rgb(4.89502%, 86.553955%, 45.726013%)" offset="0.117187"></stop><stop stop-opacity="1" stop-color="rgb(4.692078%, 86.882019%, 45.739746%)" offset="0.125"></stop><stop stop-opacity="1" stop-color="rgb(4.489136%, 87.211609%, 45.755005%)" offset="0.132812"></stop><stop stop-opacity="1" stop-color="rgb(4.286194%, 87.539673%, 45.768738%)" offset="0.140625"></stop><stop stop-opacity="1" stop-color="rgb(4.083252%, 87.867737%, 45.782471%)" offset="0.148437"></stop><stop stop-opacity="1" stop-color="rgb(3.88031%, 88.197327%, 45.796204%)" offset="0.15625"></stop><stop stop-opacity="1" stop-color="rgb(3.677368%, 88.525391%, 45.809937%)" offset="0.164062"></stop><stop stop-opacity="1" stop-color="rgb(3.474426%, 88.853455%, 45.823669%)" offset="0.171875"></stop><stop stop-opacity="1" stop-color="rgb(3.27301%, 89.183044%, 45.838928%)" offset="0.179687"></stop><stop stop-opacity="1" stop-color="rgb(3.070068%, 89.511108%, 45.852661%)" offset="0.1875"></stop><stop stop-opacity="1" stop-color="rgb(2.867126%, 89.840698%, 45.866394%)" offset="0.195312"></stop><stop stop-opacity="1" stop-color="rgb(2.664185%, 90.168762%, 45.880127%)" offset="0.203125"></stop><stop stop-opacity="1" stop-color="rgb(2.467346%, 90.484619%, 45.895386%)" offset="0.210937"></stop><stop stop-opacity="1" stop-color="rgb(2.304077%, 90.736389%, 45.913696%)" offset="0.21875"></stop><stop stop-opacity="1" stop-color="rgb(2.166748%, 90.936279%, 45.936584%)" offset="0.226562"></stop><stop stop-opacity="1" stop-color="rgb(2.030945%, 91.136169%, 45.959473%)" offset="0.234375"></stop><stop stop-opacity="1" stop-color="rgb(1.893616%, 91.33606%, 45.982361%)" offset="0.242187"></stop><stop stop-opacity="1" stop-color="rgb(1.756287%, 91.53595%, 46.005249%)" offset="0.25"></stop><stop stop-opacity="1" stop-color="rgb(1.618958%, 91.73584%, 46.028137%)" offset="0.257812"></stop><stop stop-opacity="1" stop-color="rgb(1.481628%, 91.93573%, 46.051025%)" offset="0.265625"></stop><stop stop-opacity="1" stop-color="rgb(1.345825%, 92.13562%, 46.073914%)" offset="0.273437"></stop><stop stop-opacity="1" stop-color="rgb(1.208496%, 92.33551%, 46.096802%)" offset="0.28125"></stop><stop stop-opacity="1" stop-color="rgb(1.071167%, 92.5354%, 46.11969%)" offset="0.289062"></stop><stop stop-opacity="1" stop-color="rgb(0.933838%, 92.735291%, 46.142578%)" offset="0.296875"></stop><stop stop-opacity="1" stop-color="rgb(0.796509%, 92.935181%, 46.165466%)" offset="0.304687"></stop><stop stop-opacity="1" stop-color="rgb(0.65918%, 93.135071%, 46.188354%)" offset="0.3125"></stop><stop stop-opacity="1" stop-color="rgb(0.523376%, 93.334961%, 46.211243%)" offset="0.320312"></stop><stop stop-opacity="1" stop-color="rgb(0.386047%, 93.534851%, 46.234131%)" offset="0.328125"></stop><stop stop-opacity="1" stop-color="rgb(0.248718%, 93.734741%, 46.257019%)" offset="0.335937"></stop><stop stop-opacity="1" stop-color="rgb(0.111389%, 93.934631%, 46.279907%)" offset="0.34375"></stop><stop stop-opacity="1" stop-color="rgb(0.0213623%, 94.067383%, 46.295166%)" offset="0.375"></stop><stop stop-opacity="1" stop-color="rgb(0%, 94.099426%, 46.299744%)" offset="0.435535"></stop><stop stop-opacity="1" stop-color="rgb(0%, 94.099426%, 46.299744%)" offset="0.5"></stop><stop stop-opacity="1" stop-color="rgb(0%, 94.099426%, 46.299744%)" offset="0.564465"></stop><stop stop-opacity="1" stop-color="rgb(0%, 94.099426%, 46.299744%)" offset="1"></stop></linearGradient></defs><g clip-path="url(#c88c632083)"><path fill="#000000" d="M 360.078125 132.273438 L 14.921875 132.273438 C 14.015625 132.273438 13.117188 132.359375 12.230469 132.539062 C 11.339844 132.714844 10.476562 132.976562 9.640625 133.320312 C 8.800781 133.667969 8.007812 134.09375 7.253906 134.59375 C 6.5 135.097656 5.800781 135.667969 5.160156 136.308594 C 4.519531 136.949219 3.949219 137.644531 3.445312 138.398438 C 2.941406 139.148438 2.515625 139.945312 2.167969 140.78125 C 1.820312 141.617188 1.558594 142.476562 1.382812 143.367188 C 1.207031 144.253906 1.117188 145.148438 1.117188 146.054688 L 1.117188 228.742188 C 1.117188 229.644531 1.207031 230.542969 1.382812 231.429688 C 1.558594 232.316406 1.820312 233.179688 2.167969 234.015625 C 2.515625 234.851562 2.941406 235.644531 3.445312 236.398438 C 3.949219 237.148438 4.519531 237.847656 5.160156 238.484375 C 5.800781 239.125 6.5 239.699219 7.253906 240.199219 C 8.007812 240.703125 8.800781 241.128906 9.640625 241.472656 C 10.476562 241.820312 11.339844 242.082031 12.230469 242.257812 C 13.117188 242.433594 14.015625 242.523438 14.921875 242.523438 L 360.078125 242.523438 C 360.984375 242.523438 361.882812 242.433594 362.769531 242.257812 C 363.660156 242.082031 364.523438 241.820312 365.359375 241.472656 C 366.199219 241.128906 366.992188 240.703125 367.746094 240.199219 C 368.5 239.699219 369.199219 239.125 369.839844 238.484375 C 370.480469 237.847656 371.050781 237.148438 371.554688 236.398438 C 372.058594 235.644531 372.484375 234.851562 372.832031 234.015625 C 373.179688 233.179688 373.441406 232.316406 373.617188 231.429688 C 373.792969 230.542969 373.882812 229.644531 373.882812 228.742188 L 373.882812 146.054688 C 373.882812 145.148438 373.792969 144.253906 373.617188 143.367188 C 373.441406 142.476562 373.179688 141.617188 372.832031 140.78125 C 372.484375 139.945312 372.058594 139.148438 371.554688 138.398438 C 371.050781 137.644531 370.480469 136.949219 369.839844 136.308594 C 369.199219 135.667969 368.5 135.097656 367.746094 134.59375 C 366.992188 134.09375 366.199219 133.667969 365.359375 133.320312 C 364.523438 132.976562 363.660156 132.714844 362.769531 132.539062 C 361.882812 132.359375 360.984375 132.273438 360.078125 132.273438 Z M 360.078125 132.273438 " fill-opacity="1" fill-rule="nonzero"></path><path fill="#a6a6a6" d="M 360.078125 134.476562 C 360.839844 134.476562 361.59375 134.550781 362.339844 134.699219 C 363.085938 134.851562 363.8125 135.070312 364.515625 135.359375 C 365.21875 135.652344 365.886719 136.007812 366.519531 136.429688 C 367.152344 136.851562 367.738281 137.332031 368.277344 137.871094 C 368.8125 138.40625 369.292969 138.992188 369.71875 139.625 C 370.140625 140.253906 370.5 140.921875 370.789062 141.625 C 371.082031 142.328125 371.300781 143.050781 371.449219 143.796875 C 371.597656 144.542969 371.671875 145.292969 371.675781 146.054688 L 371.675781 228.742188 C 371.671875 229.5 371.597656 230.253906 371.449219 231 C 371.300781 231.746094 371.082031 232.46875 370.789062 233.171875 C 370.5 233.871094 370.140625 234.539062 369.71875 235.171875 C 369.292969 235.804688 368.8125 236.386719 368.277344 236.925781 C 367.738281 237.464844 367.152344 237.941406 366.519531 238.363281 C 365.886719 238.789062 365.21875 239.144531 364.515625 239.433594 C 363.8125 239.726562 363.085938 239.945312 362.339844 240.09375 C 361.59375 240.242188 360.839844 240.316406 360.078125 240.316406 L 14.921875 240.316406 C 14.160156 240.316406 13.40625 240.242188 12.660156 240.09375 C 11.914062 239.945312 11.191406 239.722656 10.488281 239.433594 C 9.785156 239.140625 9.117188 238.785156 8.484375 238.363281 C 7.851562 237.941406 7.265625 237.460938 6.726562 236.921875 C 6.1875 236.386719 5.707031 235.800781 5.285156 235.167969 C 4.863281 234.539062 4.503906 233.871094 4.210938 233.167969 C 3.921875 232.46875 3.699219 231.742188 3.550781 231 C 3.402344 230.253906 3.328125 229.5 3.324219 228.742188 L 3.324219 146.054688 C 3.328125 145.292969 3.402344 144.542969 3.550781 143.796875 C 3.699219 143.050781 3.921875 142.328125 4.210938 141.625 C 4.503906 140.925781 4.863281 140.257812 5.285156 139.625 C 5.707031 138.996094 6.1875 138.410156 6.726562 137.871094 C 7.265625 137.335938 7.851562 136.855469 8.484375 136.433594 C 9.117188 136.011719 9.785156 135.652344 10.488281 135.363281 C 11.191406 135.070312 11.914062 134.851562 12.660156 134.703125 C 13.40625 134.554688 14.160156 134.480469 14.921875 134.476562 Z M 360.078125 132.273438 L 14.921875 132.273438 C 14.015625 132.277344 13.121094 132.367188 12.234375 132.542969 C 11.34375 132.722656 10.480469 132.984375 9.644531 133.332031 C 8.808594 133.679688 8.015625 134.105469 7.261719 134.609375 C 6.511719 135.109375 5.8125 135.683594 5.171875 136.320312 C 4.53125 136.960938 3.960938 137.65625 3.457031 138.40625 C 2.953125 139.160156 2.527344 139.953125 2.179688 140.785156 C 1.832031 141.621094 1.566406 142.480469 1.390625 143.367188 C 1.210938 144.253906 1.121094 145.148438 1.117188 146.054688 L 1.117188 228.742188 C 1.121094 229.644531 1.210938 230.539062 1.386719 231.425781 C 1.566406 232.3125 1.832031 233.175781 2.179688 234.007812 C 2.527344 234.84375 2.953125 235.636719 3.457031 236.390625 C 3.960938 237.140625 4.53125 237.835938 5.171875 238.476562 C 5.8125 239.113281 6.507812 239.683594 7.261719 240.1875 C 8.015625 240.691406 8.808594 241.117188 9.644531 241.464844 C 10.480469 241.8125 11.34375 242.074219 12.230469 242.25 C 13.121094 242.429688 14.015625 242.519531 14.921875 242.523438 L 360.078125 242.523438 C 360.984375 242.519531 361.878906 242.429688 362.769531 242.25 C 363.65625 242.074219 364.519531 241.8125 365.355469 241.464844 C 366.191406 241.117188 366.984375 240.691406 367.738281 240.1875 C 368.492188 239.683594 369.1875 239.113281 369.828125 238.476562 C 370.46875 237.835938 371.039062 237.140625 371.542969 236.390625 C 372.046875 235.636719 372.472656 234.84375 372.820312 234.007812 C 373.167969 233.175781 373.433594 232.3125 373.613281 231.425781 C 373.789062 230.539062 373.878906 229.644531 373.882812 228.742188 L 373.882812 146.054688 C 373.878906 145.148438 373.789062 144.253906 373.609375 143.367188 C 373.433594 142.480469 373.167969 141.621094 372.820312 140.785156 C 372.472656 139.953125 372.046875 139.160156 371.542969 138.40625 C 371.039062 137.65625 370.46875 136.960938 369.828125 136.320312 C 369.1875 135.683594 368.488281 135.109375 367.738281 134.609375 C 366.984375 134.105469 366.191406 133.679688 365.355469 133.332031 C 364.519531 132.984375 363.65625 132.722656 362.765625 132.542969 C 361.878906 132.367188 360.984375 132.277344 360.078125 132.273438 Z M 360.078125 132.273438 " fill-opacity="1" fill-rule="nonzero"></path></g><path stroke-linecap="butt" transform="matrix(2.76123, 0, 0, 2.75625, 1.116948, 132.272744)" fill-opacity="1" fill="#ffffff" fill-rule="nonzero" stroke-linejoin="miter" d="M 47.418657 10.242599 C 47.437048 10.613914 47.380461 10.973892 47.251725 11.321114 C 47.121575 11.669753 46.929179 11.977293 46.673122 12.246568 C 46.385943 12.544187 46.04925 12.770944 45.665872 12.925422 C 45.28108 13.079901 44.882141 13.149345 44.469055 13.133756 C 44.262512 13.135173 44.058799 13.116749 43.8565 13.078484 C 43.654201 13.038801 43.458975 12.980695 43.267994 12.902747 C 43.077013 12.824799 42.895934 12.728427 42.724758 12.613631 C 42.553582 12.498835 42.396553 12.36845 42.250841 12.222475 C 42.105129 12.0765 41.976394 11.917769 41.863219 11.746284 C 41.750045 11.574799 41.653847 11.393393 41.577455 11.202066 C 41.499647 11.01074 41.441646 10.815162 41.404864 10.612497 C 41.366668 10.409833 41.349691 10.205751 41.352521 10.000252 C 41.349691 9.794753 41.366668 9.589254 41.404864 9.388007 C 41.441646 9.185343 41.499647 8.988347 41.57604 8.797021 C 41.653847 8.607112 41.74863 8.425706 41.863219 8.252803 C 41.976394 8.081318 42.105129 7.922588 42.250841 7.776613 C 42.395138 7.630638 42.553582 7.500252 42.724758 7.385456 C 42.895934 7.272077 43.077013 7.175706 43.267994 7.097758 C 43.458975 7.018393 43.654201 6.960286 43.8565 6.922021 C 44.058799 6.882338 44.262512 6.863914 44.469055 6.865331 C 44.892044 6.863914 45.312203 6.950365 45.699824 7.117599 C 46.061982 7.263574 46.383114 7.493166 46.63917 7.786533 L 46.111495 8.315161 C 45.907782 8.075649 45.661628 7.892826 45.373034 7.768109 C 45.08444 7.643393 44.783113 7.588121 44.469055 7.60371 C 44.313441 7.60371 44.157826 7.617882 44.005041 7.649062 C 43.852256 7.678824 43.703715 7.724175 43.560832 7.785116 C 43.416535 7.84464 43.279311 7.919753 43.150576 8.007622 C 43.02184 8.09549 42.903007 8.194697 42.794077 8.306658 C 42.685147 8.418619 42.588949 8.540502 42.505483 8.670887 C 42.420602 8.80269 42.349868 8.941579 42.294696 9.086137 C 42.238109 9.232112 42.197083 9.380921 42.170204 9.5354 C 42.14474 9.689878 42.133423 9.844357 42.139081 10.000252 C 42.134837 10.234096 42.164546 10.463688 42.229621 10.687611 C 42.293281 10.912951 42.388065 11.122701 42.515386 11.319697 C 42.642707 11.516692 42.795492 11.689595 42.973741 11.841239 C 43.15199 11.991466 43.348631 12.113348 43.563662 12.206885 C 43.777278 12.299005 44.000797 12.358529 44.234219 12.384039 C 44.466226 12.409549 44.696818 12.402463 44.927411 12.359946 C 45.156588 12.316012 45.375863 12.240899 45.582406 12.133189 C 45.790364 12.025479 45.978516 11.890842 46.145448 11.726443 C 46.452433 11.39481 46.630682 10.963971 46.647658 10.510456 L 44.469055 10.510456 L 44.469055 9.790502 L 47.376217 9.790502 C 47.404511 9.939311 47.418657 10.090955 47.418657 10.242599 Z M 52.027676 7.73693 L 49.29452 7.73693 L 49.29452 9.640275 L 51.758888 9.640275 L 51.758888 10.36023 L 49.29452 10.36023 L 49.29452 12.263574 L 52.027676 12.263574 L 52.027676 13.000536 L 48.524935 13.000536 L 48.524935 6.999969 L 52.027676 6.999969 Z M 55.278605 13.000536 L 54.507606 13.000536 L 54.507606 7.73693 L 52.831213 7.73693 L 52.831213 6.999969 L 56.953583 6.999969 L 56.953583 7.73693 L 55.280019 7.73693 L 55.280019 13.000536 Z M 59.938552 13.000536 L 59.938552 6.999969 L 60.708137 6.999969 L 60.708137 13.000536 Z M 64.127412 13.000536 L 63.356413 13.000536 L 63.356413 7.73693 L 61.68002 7.73693 L 61.68002 6.999969 L 65.80239 6.999969 L 65.80239 7.73693 L 64.127412 7.73693 Z M 73.609994 12.225309 C 73.465697 12.369867 73.308668 12.497418 73.138907 12.610797 C 72.967731 12.724175 72.789481 12.820547 72.599914 12.898495 C 72.411762 12.976443 72.216537 13.034549 72.017067 13.074232 C 71.816183 13.113915 71.613884 13.133756 71.410171 13.133756 C 71.206457 13.133756 71.004158 13.113915 70.803274 13.074232 C 70.60239 13.034549 70.408579 12.976443 70.220427 12.898495 C 70.03086 12.820547 69.851196 12.724175 69.681435 12.610797 C 69.511674 12.497418 69.354645 12.369867 69.210347 12.225309 C 68.917509 11.929107 68.695405 11.588971 68.54262 11.202066 C 68.38842 10.816579 68.316271 10.415502 68.326174 10.000252 C 68.316271 9.585003 68.38842 9.183926 68.54262 8.797021 C 68.695405 8.411533 68.917509 8.06998 69.210347 7.775195 C 69.354645 7.630638 69.511674 7.501669 69.681435 7.388291 C 69.851196 7.274912 70.029446 7.17854 70.219012 7.100592 C 70.407165 7.022644 70.600975 6.964538 70.80186 6.924855 C 71.001329 6.885173 71.203628 6.865331 71.408756 6.865331 C 71.61247 6.865331 71.814769 6.885173 72.014238 6.926272 C 72.215122 6.965955 72.408933 7.025479 72.597085 7.103427 C 72.786652 7.181374 72.964901 7.277746 73.134662 7.391125 C 73.304424 7.504504 73.461453 7.634889 73.604335 7.779447 C 73.897174 8.074232 74.120693 8.414368 74.274892 8.799855 C 74.429092 9.185343 74.501241 9.585003 74.492753 10.000252 C 74.502656 10.415502 74.430507 10.816579 74.276307 11.202066 C 74.123522 11.588971 73.901418 11.929107 73.608579 12.225309 Z M 69.780462 11.722191 C 69.886563 11.828484 70.003981 11.924856 70.129888 12.008472 C 70.255794 12.092089 70.387359 12.162951 70.527412 12.221057 C 70.667465 12.279164 70.811762 12.321681 70.960303 12.351443 C 71.108845 12.381205 71.2588 12.395377 71.410171 12.395377 C 71.560127 12.395377 71.710082 12.381205 71.858624 12.351443 C 72.007165 12.321681 72.151462 12.279164 72.291515 12.221057 C 72.431568 12.162951 72.563133 12.092089 72.689039 12.008472 C 72.814945 11.924856 72.932364 11.828484 73.038464 11.722191 C 73.263398 11.492599 73.433159 11.228994 73.549163 10.929958 C 73.665167 10.630921 73.71751 10.320547 73.706192 10.000252 C 73.71751 9.679957 73.665167 9.369583 73.549163 9.070547 C 73.433159 8.771511 73.263398 8.507905 73.038464 8.278313 C 72.932364 8.170604 72.814945 8.075649 72.689039 7.992032 C 72.563133 7.906998 72.430153 7.836136 72.291515 7.779447 C 72.151462 7.721341 72.007165 7.677406 71.858624 7.647644 C 71.710082 7.617882 71.560127 7.60371 71.408756 7.60371 C 71.257386 7.60371 71.10743 7.617882 70.958889 7.647644 C 70.810348 7.677406 70.667465 7.721341 70.527412 7.779447 C 70.387359 7.836136 70.254379 7.906998 70.128473 7.992032 C 70.002567 8.075649 69.886563 8.170604 69.779048 8.278313 C 69.555529 8.507905 69.385767 8.771511 69.269764 9.070547 C 69.15376 9.369583 69.101417 9.679957 69.112735 10.000252 C 69.101417 10.320547 69.15376 10.629504 69.269764 10.92854 C 69.385767 11.227577 69.555529 11.492599 69.779048 11.722191 Z M 75.574981 13.000536 L 75.574981 6.999969 L 76.512912 6.999969 L 79.428562 11.668336 L 79.462514 11.668336 L 79.429977 10.510456 L 79.429977 7.001386 L 80.200976 7.001386 L 80.200976 13.000536 L 79.396025 13.000536 L 76.34598 8.105411 L 76.312028 8.105411 L 76.34598 9.263291 L 76.34598 13.000536 Z M 75.574981 13.000536 " stroke="#ffffff" stroke-width="0.2" stroke-opacity="1" stroke-miterlimit="10"></path><path fill="#ffffff" d="M 189.257812 192.226562 C 188.484375 192.230469 187.722656 192.308594 186.96875 192.460938 C 186.214844 192.613281 185.480469 192.839844 184.769531 193.136719 C 184.058594 193.433594 183.382812 193.796875 182.746094 194.226562 C 182.105469 194.65625 181.515625 195.140625 180.972656 195.6875 C 180.429688 196.234375 179.945312 196.828125 179.519531 197.46875 C 179.09375 198.109375 178.734375 198.785156 178.441406 199.496094 C 178.148438 200.207031 177.925781 200.941406 177.777344 201.695312 C 177.628906 202.449219 177.558594 203.210938 177.558594 203.980469 C 177.5625 204.75 177.640625 205.511719 177.789062 206.265625 C 177.941406 207.019531 178.167969 207.75 178.464844 208.460938 C 178.761719 209.167969 179.125 209.84375 179.554688 210.484375 C 179.980469 211.121094 180.46875 211.710938 181.015625 212.253906 C 181.5625 212.796875 182.15625 213.28125 182.796875 213.707031 C 183.4375 214.132812 184.113281 214.492188 184.828125 214.785156 C 185.539062 215.078125 186.273438 215.300781 187.027344 215.449219 C 187.785156 215.597656 188.546875 215.671875 189.320312 215.671875 C 190.089844 215.671875 190.851562 215.59375 191.609375 215.441406 C 192.363281 215.292969 193.097656 215.070312 193.808594 214.773438 C 194.519531 214.480469 195.195312 214.117188 195.835938 213.691406 C 196.476562 213.261719 197.066406 212.777344 197.613281 212.230469 C 198.15625 211.6875 198.644531 211.097656 199.070312 210.457031 C 199.5 209.816406 199.859375 209.140625 200.152344 208.429688 C 200.449219 207.722656 200.671875 206.988281 200.820312 206.234375 C 200.972656 205.480469 201.046875 204.71875 201.046875 203.949219 C 201.058594 203.175781 200.992188 202.40625 200.847656 201.644531 C 200.703125 200.882812 200.484375 200.144531 200.191406 199.425781 C 199.902344 198.707031 199.539062 198.027344 199.109375 197.382812 C 198.679688 196.738281 198.191406 196.140625 197.640625 195.59375 C 197.089844 195.046875 196.492188 194.5625 195.84375 194.132812 C 195.195312 193.707031 194.511719 193.351562 193.789062 193.058594 C 193.070312 192.769531 192.328125 192.554688 191.566406 192.417969 C 190.800781 192.277344 190.03125 192.210938 189.257812 192.226562 Z M 189.257812 211.050781 C 188.78125 211.085938 188.308594 211.070312 187.835938 211.011719 C 187.363281 210.949219 186.902344 210.84375 186.453125 210.691406 C 186.003906 210.539062 185.574219 210.34375 185.160156 210.105469 C 184.75 209.867188 184.367188 209.589844 184.011719 209.273438 C 183.65625 208.957031 183.335938 208.613281 183.046875 208.230469 C 182.761719 207.851562 182.515625 207.449219 182.3125 207.019531 C 182.105469 206.59375 181.945312 206.148438 181.828125 205.6875 C 181.714844 205.226562 181.644531 204.761719 181.621094 204.285156 C 181.597656 203.8125 181.625 203.339844 181.695312 202.871094 C 181.765625 202.402344 181.886719 201.945312 182.046875 201.496094 C 182.210938 201.050781 182.417969 200.625 182.667969 200.222656 C 182.917969 199.816406 183.203125 199.441406 183.527344 199.09375 C 183.851562 198.746094 184.207031 198.433594 184.59375 198.15625 C 184.980469 197.882812 185.390625 197.644531 185.824219 197.453125 C 186.257812 197.257812 186.707031 197.105469 187.171875 197.003906 C 187.632812 196.898438 188.105469 196.839844 188.578125 196.828125 C 189.054688 196.816406 189.527344 196.851562 189.996094 196.933594 C 190.464844 197.019531 190.917969 197.148438 191.363281 197.320312 C 191.804688 197.496094 192.226562 197.710938 192.625 197.96875 C 193.023438 198.226562 193.394531 198.519531 193.734375 198.851562 C 194.074219 199.183594 194.378906 199.546875 194.644531 199.9375 C 194.914062 200.332031 195.140625 200.746094 195.324219 201.183594 C 195.507812 201.621094 195.648438 202.074219 195.742188 202.539062 C 195.835938 203.003906 195.882812 203.472656 195.882812 203.949219 C 195.90625 204.402344 195.882812 204.851562 195.8125 205.296875 C 195.742188 205.746094 195.632812 206.179688 195.476562 206.605469 C 195.320312 207.03125 195.125 207.433594 194.886719 207.820312 C 194.648438 208.207031 194.378906 208.5625 194.066406 208.894531 C 193.757812 209.226562 193.421875 209.523438 193.054688 209.785156 C 192.683594 210.050781 192.292969 210.273438 191.878906 210.460938 C 191.46875 210.644531 191.039062 210.789062 190.597656 210.886719 C 190.15625 210.988281 189.710938 211.042969 189.257812 211.054688 Z M 163.539062 192.226562 C 162.769531 192.230469 162.007812 192.308594 161.253906 192.460938 C 160.496094 192.613281 159.765625 192.835938 159.054688 193.132812 C 158.34375 193.429688 157.667969 193.792969 157.027344 194.222656 C 156.390625 194.652344 155.796875 195.140625 155.253906 195.6875 C 154.710938 196.230469 154.226562 196.824219 153.800781 197.464844 C 153.375 198.105469 153.015625 198.78125 152.722656 199.492188 C 152.429688 200.203125 152.210938 200.9375 152.0625 201.691406 C 151.914062 202.449219 151.839844 203.210938 151.839844 203.976562 C 151.84375 204.746094 151.921875 205.507812 152.074219 206.261719 C 152.226562 207.015625 152.449219 207.75 152.746094 208.457031 C 153.042969 209.167969 153.40625 209.84375 153.832031 210.480469 C 154.261719 211.121094 154.75 211.710938 155.296875 212.253906 C 155.84375 212.796875 156.4375 213.28125 157.078125 213.707031 C 157.71875 214.132812 158.394531 214.492188 159.109375 214.785156 C 159.820312 215.078125 160.554688 215.300781 161.308594 215.449219 C 162.066406 215.597656 162.828125 215.671875 163.601562 215.671875 C 164.371094 215.671875 165.132812 215.59375 165.886719 215.445312 C 166.644531 215.292969 167.378906 215.070312 168.089844 214.773438 C 168.800781 214.480469 169.476562 214.117188 170.117188 213.691406 C 170.757812 213.261719 171.351562 212.777344 171.894531 212.234375 C 172.4375 211.6875 172.925781 211.097656 173.351562 210.457031 C 173.78125 209.816406 174.140625 209.140625 174.4375 208.429688 C 174.730469 207.722656 174.953125 206.988281 175.101562 206.234375 C 175.253906 205.480469 175.328125 204.71875 175.328125 203.949219 C 175.339844 203.175781 175.273438 202.40625 175.128906 201.644531 C 174.984375 200.882812 174.769531 200.144531 174.476562 199.425781 C 174.183594 198.707031 173.820312 198.027344 173.390625 197.382812 C 172.960938 196.738281 172.472656 196.140625 171.921875 195.59375 C 171.371094 195.046875 170.773438 194.5625 170.125 194.132812 C 169.476562 193.707031 168.792969 193.351562 168.074219 193.058594 C 167.351562 192.769531 166.609375 192.554688 165.847656 192.417969 C 165.082031 192.277344 164.3125 192.210938 163.539062 192.226562 Z M 163.539062 211.050781 C 163.066406 211.085938 162.59375 211.070312 162.121094 211.011719 C 161.648438 210.949219 161.1875 210.84375 160.738281 210.691406 C 160.289062 210.539062 159.855469 210.34375 159.445312 210.105469 C 159.035156 209.867188 158.652344 209.589844 158.296875 209.273438 C 157.941406 208.957031 157.617188 208.613281 157.332031 208.230469 C 157.046875 207.851562 156.800781 207.449219 156.597656 207.019531 C 156.390625 206.59375 156.230469 206.148438 156.113281 205.6875 C 155.996094 205.226562 155.929688 204.761719 155.90625 204.285156 C 155.882812 203.8125 155.90625 203.339844 155.980469 202.871094 C 156.050781 202.402344 156.167969 201.945312 156.332031 201.496094 C 156.496094 201.050781 156.703125 200.625 156.953125 200.222656 C 157.199219 199.816406 157.488281 199.441406 157.8125 199.09375 C 158.136719 198.746094 158.492188 198.433594 158.878906 198.15625 C 159.265625 197.882812 159.675781 197.644531 160.109375 197.453125 C 160.542969 197.257812 160.992188 197.105469 161.453125 197.003906 C 161.917969 196.898438 162.386719 196.839844 162.863281 196.828125 C 163.339844 196.816406 163.8125 196.851562 164.28125 196.933594 C 164.75 197.019531 165.203125 197.148438 165.644531 197.320312 C 166.089844 197.496094 166.507812 197.710938 166.910156 197.96875 C 167.308594 198.226562 167.679688 198.519531 168.019531 198.851562 C 168.359375 199.183594 168.664062 199.546875 168.929688 199.9375 C 169.199219 200.332031 169.425781 200.746094 169.609375 201.183594 C 169.792969 201.621094 169.933594 202.074219 170.027344 202.539062 C 170.121094 203.003906 170.167969 203.472656 170.167969 203.949219 C 170.191406 204.402344 170.167969 204.851562 170.097656 205.296875 C 170.03125 205.746094 169.917969 206.179688 169.761719 206.605469 C 169.605469 207.03125 169.410156 207.4375 169.171875 207.820312 C 168.9375 208.207031 168.664062 208.566406 168.355469 208.894531 C 168.046875 209.226562 167.707031 209.523438 167.339844 209.789062 C 166.96875 210.050781 166.578125 210.277344 166.167969 210.460938 C 165.753906 210.644531 165.324219 210.789062 164.882812 210.890625 C 164.441406 210.988281 163.992188 211.042969 163.539062 211.054688 Z M 132.945312 195.824219 L 132.945312 200.796875 L 144.871094 200.796875 C 144.785156 201.960938 144.507812 203.082031 144.042969 204.15625 C 143.578125 205.230469 142.949219 206.195312 142.15625 207.058594 C 140.949219 208.285156 139.542969 209.21875 137.941406 209.851562 C 136.335938 210.484375 134.671875 210.765625 132.949219 210.695312 C 132.085938 210.683594 131.234375 210.589844 130.390625 210.410156 C 129.546875 210.230469 128.726562 209.972656 127.933594 209.636719 C 127.140625 209.296875 126.390625 208.886719 125.675781 208.402344 C 124.964844 207.917969 124.304688 207.367188 123.699219 206.753906 C 123.09375 206.140625 122.554688 205.476562 122.078125 204.757812 C 121.601562 204.039062 121.203125 203.28125 120.875 202.484375 C 120.546875 201.6875 120.300781 200.867188 120.132812 200.023438 C 119.96875 199.179688 119.882812 198.324219 119.882812 197.464844 C 119.882812 196.605469 119.96875 195.75 120.132812 194.90625 C 120.300781 194.0625 120.546875 193.242188 120.875 192.445312 C 121.203125 191.648438 121.601562 190.890625 122.078125 190.171875 C 122.554688 189.453125 123.09375 188.789062 123.699219 188.175781 C 124.304688 187.5625 124.964844 187.015625 125.675781 186.527344 C 126.390625 186.042969 127.140625 185.632812 127.933594 185.296875 C 128.726562 184.957031 129.546875 184.699219 130.390625 184.519531 C 131.234375 184.339844 132.085938 184.246094 132.949219 184.234375 C 134.621094 184.210938 136.238281 184.507812 137.792969 185.125 C 139.347656 185.738281 140.730469 186.625 141.933594 187.785156 L 145.449219 184.277344 C 143.789062 182.636719 141.875 181.382812 139.707031 180.511719 C 137.539062 179.640625 135.285156 179.226562 132.949219 179.261719 C 132.34375 179.246094 131.738281 179.261719 131.132812 179.308594 C 130.527344 179.351562 129.925781 179.429688 129.328125 179.535156 C 128.730469 179.640625 128.140625 179.773438 127.554688 179.9375 C 126.96875 180.101562 126.394531 180.292969 125.832031 180.515625 C 125.265625 180.738281 124.714844 180.988281 124.171875 181.261719 C 123.632812 181.539062 123.109375 181.84375 122.597656 182.171875 C 122.089844 182.5 121.597656 182.851562 121.121094 183.230469 C 120.648438 183.609375 120.195312 184.007812 119.761719 184.433594 C 119.324219 184.855469 118.914062 185.296875 118.523438 185.761719 C 118.132812 186.226562 117.765625 186.710938 117.425781 187.210938 C 117.082031 187.710938 116.769531 188.226562 116.476562 188.757812 C 116.1875 189.289062 115.925781 189.835938 115.6875 190.394531 C 115.453125 190.953125 115.246094 191.519531 115.066406 192.101562 C 114.886719 192.679688 114.738281 193.265625 114.617188 193.859375 C 114.5 194.453125 114.40625 195.050781 114.347656 195.652344 C 114.285156 196.257812 114.257812 196.859375 114.257812 197.464844 C 114.257812 198.070312 114.285156 198.675781 114.347656 199.277344 C 114.40625 199.882812 114.5 200.480469 114.617188 201.074219 C 114.738281 201.667969 114.886719 202.253906 115.066406 202.832031 C 115.246094 203.410156 115.453125 203.980469 115.6875 204.539062 C 115.925781 205.097656 116.1875 205.640625 116.476562 206.175781 C 116.769531 206.707031 117.082031 207.222656 117.425781 207.722656 C 117.765625 208.222656 118.132812 208.707031 118.523438 209.167969 C 118.914062 209.632812 119.324219 210.078125 119.761719 210.5 C 120.195312 210.921875 120.648438 211.324219 121.125 211.703125 C 121.597656 212.078125 122.089844 212.433594 122.597656 212.761719 C 123.109375 213.089844 123.632812 213.394531 124.171875 213.667969 C 124.714844 213.945312 125.265625 214.195312 125.832031 214.417969 C 126.394531 214.636719 126.96875 214.832031 127.554688 214.996094 C 128.140625 215.160156 128.730469 215.292969 129.328125 215.398438 C 129.925781 215.503906 130.527344 215.578125 131.132812 215.625 C 131.738281 215.671875 132.34375 215.6875 132.949219 215.671875 C 134.128906 215.71875 135.304688 215.644531 136.46875 215.445312 C 137.632812 215.242188 138.761719 214.921875 139.859375 214.484375 C 140.957031 214.042969 141.996094 213.492188 142.972656 212.832031 C 143.953125 212.171875 144.851562 211.414062 145.671875 210.5625 C 147.121094 208.980469 148.222656 207.183594 148.96875 205.171875 C 149.714844 203.15625 150.054688 201.078125 149.984375 198.933594 C 149.996094 197.886719 149.90625 196.851562 149.71875 195.824219 Z M 258.054688 199.683594 C 257.703125 198.625 257.195312 197.640625 256.539062 196.734375 C 255.882812 195.828125 255.105469 195.039062 254.207031 194.375 C 253.308594 193.707031 252.328125 193.1875 251.269531 192.824219 C 250.210938 192.457031 249.121094 192.257812 248 192.226562 C 247.246094 192.230469 246.5 192.3125 245.761719 192.46875 C 245.023438 192.625 244.308594 192.851562 243.617188 193.152344 C 242.925781 193.453125 242.273438 193.820312 241.65625 194.253906 C 241.039062 194.6875 240.46875 195.175781 239.953125 195.722656 C 239.433594 196.273438 238.976562 196.867188 238.582031 197.507812 C 238.183594 198.148438 237.855469 198.820312 237.59375 199.527344 C 237.335938 200.234375 237.148438 200.960938 237.035156 201.703125 C 236.921875 202.449219 236.886719 203.195312 236.925781 203.949219 C 236.910156 204.71875 236.96875 205.484375 237.105469 206.242188 C 237.246094 207 237.457031 207.738281 237.742188 208.453125 C 238.027344 209.167969 238.382812 209.847656 238.808594 210.492188 C 239.230469 211.136719 239.714844 211.734375 240.257812 212.28125 C 240.800781 212.828125 241.394531 213.316406 242.039062 213.742188 C 242.679688 214.171875 243.359375 214.53125 244.074219 214.820312 C 244.789062 215.113281 245.523438 215.328125 246.28125 215.472656 C 247.042969 215.617188 247.804688 215.683594 248.578125 215.671875 C 249.546875 215.675781 250.5 215.5625 251.4375 215.332031 C 252.378906 215.101562 253.273438 214.761719 254.128906 214.308594 C 254.984375 213.851562 255.769531 213.300781 256.488281 212.652344 C 257.203125 212.003906 257.832031 211.28125 258.367188 210.476562 L 254.363281 207.8125 C 254.0625 208.308594 253.703125 208.761719 253.285156 209.164062 C 252.871094 209.566406 252.40625 209.910156 251.902344 210.195312 C 251.394531 210.480469 250.859375 210.695312 250.296875 210.839844 C 249.734375 210.984375 249.164062 211.054688 248.582031 211.050781 C 247.984375 211.074219 247.394531 211.011719 246.816406 210.855469 C 246.238281 210.703125 245.695312 210.46875 245.1875 210.152344 C 244.679688 209.835938 244.226562 209.449219 243.835938 209 C 243.445312 208.546875 243.125 208.046875 242.882812 207.5 L 258.585938 201.019531 Z M 242.039062 203.59375 C 242.011719 203.167969 242.027344 202.742188 242.085938 202.316406 C 242.140625 201.894531 242.242188 201.480469 242.378906 201.078125 C 242.519531 200.671875 242.699219 200.285156 242.917969 199.917969 C 243.132812 199.550781 243.386719 199.207031 243.671875 198.886719 C 243.957031 198.570312 244.269531 198.28125 244.613281 198.027344 C 244.957031 197.769531 245.320312 197.550781 245.710938 197.367188 C 246.097656 197.183594 246.496094 197.042969 246.914062 196.9375 C 247.328125 196.835938 247.75 196.773438 248.179688 196.753906 C 248.625 196.726562 249.0625 196.761719 249.5 196.859375 C 249.933594 196.960938 250.347656 197.121094 250.734375 197.34375 C 251.121094 197.5625 251.46875 197.835938 251.777344 198.160156 C 252.085938 198.480469 252.339844 198.84375 252.539062 199.242188 Z M 229.277344 214.960938 L 234.433594 214.960938 L 234.433594 180.507812 L 229.277344 180.507812 Z M 220.824219 194.84375 L 220.644531 194.84375 C 219.851562 193.984375 218.914062 193.324219 217.835938 192.871094 C 216.757812 192.414062 215.632812 192.199219 214.460938 192.226562 C 213.710938 192.257812 212.972656 192.363281 212.242188 192.535156 C 211.511719 192.710938 210.804688 192.953125 210.121094 193.261719 C 209.4375 193.570312 208.789062 193.941406 208.175781 194.375 C 207.566406 194.804688 207 195.292969 206.480469 195.835938 C 205.960938 196.375 205.5 196.960938 205.089844 197.589844 C 204.683594 198.21875 204.339844 198.882812 204.0625 199.578125 C 203.78125 200.273438 203.570312 200.988281 203.429688 201.722656 C 203.285156 202.457031 203.214844 203.199219 203.214844 203.949219 C 203.214844 204.699219 203.285156 205.441406 203.429688 206.175781 C 203.570312 206.910156 203.78125 207.625 204.0625 208.320312 C 204.339844 209.015625 204.683594 209.679688 205.089844 210.308594 C 205.5 210.9375 205.960938 211.523438 206.480469 212.0625 C 207 212.605469 207.566406 213.09375 208.175781 213.523438 C 208.789062 213.957031 209.4375 214.328125 210.121094 214.636719 C 210.804688 214.945312 211.511719 215.1875 212.242188 215.363281 C 212.972656 215.535156 213.710938 215.640625 214.460938 215.671875 C 215.636719 215.703125 216.765625 215.484375 217.847656 215.019531 C 218.929688 214.554688 219.863281 213.882812 220.644531 213.007812 L 220.824219 213.007812 L 220.824219 214.695312 C 220.824219 219.179688 218.421875 221.578125 214.550781 221.578125 C 213.90625 221.5625 213.277344 221.453125 212.664062 221.25 C 212.050781 221.050781 211.484375 220.761719 210.957031 220.390625 C 210.429688 220.019531 209.96875 219.578125 209.570312 219.070312 C 209.175781 218.558594 208.863281 218.003906 208.632812 217.402344 L 204.140625 219.269531 C 204.566406 220.296875 205.128906 221.242188 205.835938 222.101562 C 206.542969 222.964844 207.359375 223.703125 208.285156 224.320312 C 209.214844 224.9375 210.210938 225.40625 211.277344 225.722656 C 212.347656 226.042969 213.4375 226.199219 214.550781 226.195312 C 220.601562 226.195312 225.71875 222.640625 225.71875 213.984375 L 225.71875 192.933594 L 220.824219 192.933594 Z M 214.90625 211.050781 C 214.464844 211.015625 214.03125 210.9375 213.605469 210.816406 C 213.179688 210.699219 212.765625 210.542969 212.367188 210.347656 C 211.96875 210.152344 211.59375 209.921875 211.238281 209.65625 C 210.882812 209.390625 210.554688 209.09375 210.257812 208.769531 C 209.957031 208.441406 209.691406 208.09375 209.457031 207.714844 C 209.222656 207.339844 209.023438 206.945312 208.863281 206.535156 C 208.703125 206.121094 208.582031 205.699219 208.5 205.265625 C 208.417969 204.828125 208.375 204.390625 208.375 203.949219 C 208.375 203.503906 208.417969 203.066406 208.5 202.632812 C 208.582031 202.195312 208.703125 201.773438 208.863281 201.359375 C 209.023438 200.949219 209.222656 200.554688 209.457031 200.179688 C 209.691406 199.804688 209.957031 199.453125 210.257812 199.125 C 210.554688 198.800781 210.882812 198.503906 211.238281 198.238281 C 211.59375 197.972656 211.96875 197.746094 212.367188 197.550781 C 212.765625 197.355469 213.179688 197.195312 213.605469 197.078125 C 214.03125 196.960938 214.464844 196.882812 214.90625 196.84375 C 215.351562 196.863281 215.789062 196.929688 216.21875 197.039062 C 216.648438 197.148438 217.066406 197.300781 217.464844 197.496094 C 217.863281 197.6875 218.242188 197.917969 218.59375 198.1875 C 218.949219 198.457031 219.269531 198.757812 219.5625 199.089844 C 219.855469 199.425781 220.113281 199.78125 220.332031 200.167969 C 220.550781 200.554688 220.730469 200.957031 220.871094 201.378906 C 221.007812 201.800781 221.105469 202.230469 221.15625 202.667969 C 221.207031 203.109375 221.214844 203.550781 221.179688 203.992188 C 221.214844 204.433594 221.203125 204.871094 221.148438 205.308594 C 221.09375 205.746094 221 206.171875 220.859375 206.589844 C 220.71875 207.007812 220.539062 207.40625 220.316406 207.785156 C 220.09375 208.167969 219.839844 208.523438 219.546875 208.851562 C 219.253906 209.183594 218.929688 209.480469 218.578125 209.742188 C 218.226562 210.007812 217.851562 210.234375 217.453125 210.425781 C 217.054688 210.613281 216.640625 210.761719 216.210938 210.867188 C 215.785156 210.972656 215.347656 211.035156 214.90625 211.050781 Z M 282.226562 180.507812 L 269.882812 180.507812 L 269.882812 214.960938 L 275.03125 214.960938 L 275.03125 201.90625 L 282.226562 201.90625 C 282.679688 201.933594 283.136719 201.929688 283.589844 201.894531 C 284.042969 201.863281 284.496094 201.800781 284.941406 201.710938 C 285.386719 201.625 285.824219 201.503906 286.257812 201.359375 C 286.6875 201.214844 287.109375 201.042969 287.519531 200.84375 C 287.925781 200.644531 288.324219 200.421875 288.703125 200.171875 C 289.085938 199.921875 289.449219 199.652344 289.792969 199.355469 C 290.140625 199.058594 290.464844 198.746094 290.773438 198.40625 C 291.078125 198.070312 291.359375 197.714844 291.621094 197.34375 C 291.882812 196.972656 292.117188 196.582031 292.328125 196.179688 C 292.539062 195.777344 292.726562 195.363281 292.882812 194.9375 C 293.042969 194.511719 293.171875 194.078125 293.277344 193.632812 C 293.378906 193.191406 293.453125 192.746094 293.5 192.292969 C 293.546875 191.839844 293.5625 191.386719 293.550781 190.933594 C 293.539062 190.476562 293.496094 190.027344 293.429688 189.578125 C 293.359375 189.128906 293.261719 188.683594 293.136719 188.25 C 293.007812 187.8125 292.855469 187.386719 292.675781 186.96875 C 292.242188 185.960938 291.664062 185.039062 290.949219 184.207031 C 290.230469 183.378906 289.40625 182.671875 288.46875 182.09375 C 287.535156 181.515625 286.535156 181.09375 285.472656 180.820312 C 284.40625 180.550781 283.324219 180.445312 282.226562 180.503906 Z M 282.359375 197.113281 L 275.03125 197.113281 L 275.03125 185.304688 L 282.359375 185.304688 C 282.753906 185.296875 283.144531 185.324219 283.53125 185.394531 C 283.917969 185.464844 284.292969 185.574219 284.660156 185.71875 C 285.027344 185.863281 285.375 186.042969 285.703125 186.257812 C 286.035156 186.46875 286.339844 186.714844 286.621094 186.988281 C 286.902344 187.265625 287.152344 187.5625 287.375 187.890625 C 287.597656 188.214844 287.785156 188.558594 287.9375 188.917969 C 288.089844 189.28125 288.203125 189.65625 288.28125 190.039062 C 288.359375 190.425781 288.398438 190.8125 288.402344 191.207031 C 288.402344 192 288.25 192.765625 287.941406 193.496094 C 287.632812 194.230469 287.191406 194.871094 286.621094 195.425781 C 286.054688 195.980469 285.402344 196.40625 284.660156 196.699219 C 283.921875 196.992188 283.15625 197.128906 282.359375 197.113281 Z M 314.203125 192.167969 C 313.261719 192.109375 312.332031 192.191406 311.414062 192.40625 C 310.5 192.621094 309.632812 192.964844 308.816406 193.433594 C 308 193.902344 307.265625 194.476562 306.617188 195.160156 C 305.96875 195.839844 305.433594 196.601562 305.007812 197.441406 L 309.582031 199.347656 C 309.808594 198.929688 310.089844 198.554688 310.425781 198.21875 C 310.761719 197.886719 311.140625 197.605469 311.558594 197.382812 C 311.976562 197.15625 312.417969 196.996094 312.882812 196.902344 C 313.347656 196.804688 313.816406 196.777344 314.289062 196.820312 C 314.613281 196.785156 314.9375 196.785156 315.261719 196.820312 C 315.585938 196.851562 315.902344 196.914062 316.214844 197.007812 C 316.523438 197.101562 316.824219 197.226562 317.109375 197.378906 C 317.398438 197.53125 317.667969 197.710938 317.917969 197.917969 C 318.171875 198.121094 318.398438 198.351562 318.605469 198.601562 C 318.8125 198.851562 318.992188 199.121094 319.144531 199.40625 C 319.300781 199.695312 319.421875 199.992188 319.515625 200.304688 C 319.613281 200.613281 319.675781 200.929688 319.707031 201.253906 L 319.707031 201.605469 C 318.027344 200.714844 316.238281 200.273438 314.335938 200.277344 C 309.40625 200.277344 304.386719 202.980469 304.386719 208.035156 C 304.425781 208.835938 304.578125 209.613281 304.851562 210.367188 C 305.125 211.125 305.503906 211.820312 305.988281 212.460938 C 306.472656 213.101562 307.039062 213.660156 307.691406 214.128906 C 308.339844 214.601562 309.046875 214.964844 309.808594 215.222656 C 310.832031 215.566406 311.878906 215.699219 312.957031 215.617188 C 313.605469 215.65625 314.246094 215.605469 314.882812 215.472656 C 315.519531 215.339844 316.128906 215.125 316.707031 214.828125 C 317.285156 214.53125 317.8125 214.164062 318.292969 213.726562 C 318.769531 213.289062 319.183594 212.792969 319.53125 212.246094 L 319.707031 212.246094 L 319.707031 214.90625 L 324.679688 214.90625 L 324.679688 201.695312 C 324.679688 195.578125 320.109375 192.167969 314.203125 192.167969 Z M 313.582031 211.050781 C 311.890625 211.050781 309.539062 210.207031 309.539062 208.125 C 309.539062 205.464844 312.46875 204.445312 315 204.445312 C 316.675781 204.398438 318.242188 204.785156 319.707031 205.597656 C 319.660156 205.96875 319.582031 206.332031 319.46875 206.6875 C 319.355469 207.042969 319.214844 207.386719 319.039062 207.71875 C 318.867188 208.050781 318.664062 208.363281 318.433594 208.65625 C 318.203125 208.949219 317.949219 209.222656 317.667969 209.46875 C 317.390625 209.71875 317.089844 209.941406 316.769531 210.136719 C 316.449219 210.332031 316.117188 210.496094 315.769531 210.628906 C 315.417969 210.765625 315.0625 210.867188 314.691406 210.9375 C 314.324219 211.007812 313.953125 211.046875 313.582031 211.050781 Z M 342.800781 192.917969 L 336.894531 207.855469 L 336.71875 207.855469 L 330.585938 192.917969 L 325.035156 192.917969 L 334.230469 213.796875 L 328.988281 225.410156 L 334.363281 225.410156 L 348.53125 192.917969 Z M 296.390625 214.960938 L 301.542969 214.960938 L 301.542969 180.507812 L 296.390625 180.507812 Z M 296.390625 214.960938 " fill-opacity="1" fill-rule="nonzero"></path><g clip-path="url(#5f1825d8bb)"><g clip-path="url(#b816537591)"><path fill="url(#28e81f0811)" d="M 28.5625 152.847656 L 28.5625 221.949219 L 64.347656 221.949219 L 64.347656 152.847656 Z M 28.5625 152.847656 " fill-rule="nonzero"></path></g></g><g clip-path="url(#0f5f3d0497)"><g clip-path="url(#6f4430a604)"><path fill="url(#a3bc60854e)" d="M 64.339844 175.613281 L 64.339844 199.191406 L 93.375 199.191406 L 93.375 175.613281 Z M 64.339844 175.613281 " fill-rule="nonzero"></path></g></g><g clip-path="url(#fe7d904a55)"><g clip-path="url(#cac64419f7)"><path fill="url(#ef9c775130)" d="M 29.929688 187.402344 L 29.929688 222.886719 L 76.007812 222.886719 L 76.007812 187.402344 Z M 29.929688 187.402344 " fill-rule="nonzero"></path></g></g><g clip-path="url(#c5065aba71)"><g clip-path="url(#f0367c30ea)"><path fill="url(#0fdb42cd90)" d="M 29.929688 151.914062 L 29.929688 187.402344 L 76.007812 187.402344 L 76.007812 151.914062 Z M 29.929688 151.914062 " fill-rule="nonzero"></path></g></g><path fill="#000000" d="M 75.75 198.785156 L 35.667969 221.515625 C 35.269531 221.820312 34.835938 222.050781 34.363281 222.210938 C 33.890625 222.371094 33.40625 222.453125 32.90625 222.457031 C 32.410156 222.457031 31.921875 222.382812 31.449219 222.226562 C 30.976562 222.070312 30.539062 221.84375 30.136719 221.546875 L 29.929688 221.753906 L 30.132812 221.953125 C 30.535156 222.25 30.972656 222.476562 31.445312 222.632812 C 31.921875 222.789062 32.40625 222.863281 32.90625 222.859375 C 33.40625 222.855469 33.890625 222.777344 34.363281 222.613281 C 34.835938 222.453125 35.269531 222.222656 35.667969 221.917969 L 76.007812 199.042969 Z M 75.75 198.785156 " fill-opacity="0.2" fill-rule="nonzero"></path><path fill="#000000" d="M 29.929688 221.347656 C 28.992188 220.226562 28.566406 218.9375 28.652344 217.480469 L 28.652344 217.882812 C 28.570312 219.289062 29.023438 220.671875 29.929688 221.753906 L 30.136719 221.546875 Z M 89.519531 190.976562 L 75.75 198.785156 L 76.007812 199.042969 L 89.519531 191.378906 C 90.328125 191.027344 90.992188 190.496094 91.507812 189.785156 C 92.027344 189.070312 92.328125 188.273438 92.410156 187.398438 C 92.238281 188.1875 91.898438 188.898438 91.386719 189.527344 C 90.878906 190.15625 90.253906 190.640625 89.519531 190.976562 Z M 89.519531 190.976562 " fill-opacity="0.12" fill-rule="nonzero"></path><path fill="#ffffff" d="M 35.667969 153.285156 L 89.515625 183.824219 C 90.253906 184.15625 90.878906 184.640625 91.386719 185.269531 C 91.898438 185.898438 92.238281 186.609375 92.410156 187.402344 C 92.328125 186.523438 92.027344 185.726562 91.507812 185.015625 C 90.988281 184.300781 90.324219 183.769531 89.515625 183.421875 L 35.671875 152.882812 C 31.8125 150.691406 28.652344 152.511719 28.652344 156.925781 L 28.652344 157.328125 C 28.652344 152.914062 31.8125 151.097656 35.667969 153.285156 Z M 35.667969 153.285156 " fill-opacity="0.25" fill-rule="nonzero"></path></svg>