<svg xmlns="http://www.w3.org/2000/svg" width="212" height="214" viewBox="0 0 212 214" fill="none"><path d="M84.5634 140.083C94.7255 144.475 106.137 145.732 116.93 143.28C120.513 142.474 124.038 141.345 127.455 139.875C127.616 139.804 127.804 139.879 127.875 140.041C127.936 140.188 127.88 140.358 127.748 140.439C117.996 146.391 105.75 147.89 94.7538 144.968C91.082 144.001 87.5423 142.554 84.2806 140.652C83.9554 140.458 84.191 139.922 84.5634 140.083Z" fill="#487DE4"></path><path d="M76.9748 167.723C76.1499 168.473 75.3628 169.279 74.5945 170.142C73.7131 171.133 72.8741 172.191 72.0728 173.343C66.8504 172.523 62.0238 171.461 57.6262 170.18C53.5161 168.971 49.6275 167.572 46.0123 166.007C44.834 165.49 43.6745 164.968 42.5527 164.413C42.3453 164.304 42.1238 164.2 41.9117 164.1C23.7839 155.027 14.3052 141.497 15.2479 125.931C15.2997 125.168 15.3657 124.418 15.46 123.669V123.655C16.4451 116.014 19.966 109.768 25.7541 105.453L26.6968 111.627L26.8712 112.789C23.6142 116.261 21.809 120.781 21.4649 126.311C20.4986 142.45 32.9562 152.49 44.0893 158.172C44.4946 158.38 44.8811 158.57 45.2771 158.769C46.215 159.229 47.1718 159.67 48.1664 160.097C51.626 161.624 55.3779 162.99 59.3655 164.152C64.5691 165.66 70.4844 166.86 76.9701 167.719L76.9748 167.723Z" fill="#487DE4"></path><path d="M170.324 163.465C170.117 163.569 169.9 163.678 169.692 163.787C168.58 164.351 167.421 164.887 166.247 165.414C162.655 167.017 158.781 168.454 154.675 169.701C150.358 171.005 145.517 172.115 140.262 173.002C139.461 171.859 138.603 170.811 137.712 169.815C136.944 168.971 136.147 168.174 135.322 167.434C141.864 166.49 147.761 165.234 152.889 163.697C156.853 162.492 160.605 161.093 164.05 159.533C165.031 159.097 165.983 158.632 166.907 158.177C167.303 157.973 167.694 157.764 168.095 157.565C179.185 151.76 191.534 141.606 190.398 125.481C190.003 119.956 188.16 115.45 184.87 112.012L185.035 110.854L185.921 104.665C186.227 104.888 186.529 105.121 186.83 105.362C192.133 109.607 195.39 115.54 196.389 122.768V122.782C196.502 123.527 196.568 124.276 196.62 125.04C197.709 140.591 188.381 154.216 170.324 163.469V163.465Z" fill="#487DE4"></path><path d="M167.736 51.3342C167.736 51.3342 167.747 51.3342 167.747 51.3447H167.736V51.3342Z" fill="#487DE4"></path><path d="M64.5596 59.7429C44.3108 75.5217 43.995 104.817 43.995 104.817L43.8065 104.85C38.8291 105.656 34.8038 106.956 31.5516 108.597L30.722 103.233L30.6183 102.536C32.8666 101.454 34.9735 100.776 36.6656 100.335C35.6287 94.2077 33.5548 76.6789 39.9792 59.5532L51.6072 59.6433L60.1243 59.7097L64.5644 59.7524L64.5596 59.7429Z" fill="#487DE4"></path><path d="M211.826 137.247C211.948 162.483 203.299 185.741 188.739 204.076C188.593 204.265 188.452 204.46 188.292 204.64C188.244 204.322 188.193 204.019 188.136 203.72C185.756 189.696 178.799 179.129 172.945 172.4C172.912 172.272 172.879 172.172 172.85 172.049L172.827 171.987C172.648 171.205 172.44 170.441 172.228 169.682C171.776 168.003 171.295 166.386 170.776 164.797C170.635 164.347 170.475 163.915 170.329 163.469C188.391 154.216 197.714 140.595 196.625 125.04C196.568 124.276 196.502 123.527 196.394 122.782V122.768C195.399 115.54 192.138 109.607 186.835 105.362C186.538 105.121 186.232 104.888 185.925 104.665L186.034 103.916L190.37 73.563C203.728 91.2815 211.708 113.335 211.826 137.252V137.247Z" fill="#487DE4"></path><path d="M138.037 54.2227L135.624 54.2748L138.051 54.2321C138.051 54.2321 138.047 54.2274 138.037 54.2274V54.2227Z" fill="#487DE4"></path><path d="M181.071 53.4495L170.8 53.6392L168.967 53.6676H168.952L154.553 53.9285L144.631 54.104L138.73 54.2083L138.042 54.2178H138.028C138.028 54.2178 138.032 54.2225 138.042 54.2225L135.614 54.2652L106.877 54.7774H106.566L108.437 127.923L182.645 127.558L184.865 112.007L185.03 110.85L185.916 104.661L186.024 103.911L190.361 73.5583L191.676 64.3765L193.264 53.2266L181.061 53.4447L181.071 53.4495ZM187.113 59.3114L185.874 67.9762L181.047 101.782L180.943 102.488L180.17 107.862L180.095 108.35L178.106 122.308L113.541 122.626L111.939 59.9659L136.529 59.5248L140.479 59.4489L142.553 59.4062L144.306 59.3778L146.658 59.3351L151.117 59.2497L159.62 59.098L171.262 58.894L176.904 58.7897L186.439 58.6142L187.203 58.6047L187.104 59.3066L187.113 59.3114Z" fill="#487DE4"></path><path d="M181.047 101.782L180.943 102.488L180.17 107.862C176.904 106.268 172.86 105.007 167.878 104.238C167.821 104.224 167.75 104.215 167.689 104.205C167.689 104.205 167.072 74.9147 146.667 59.3351L151.126 59.2497L159.629 59.098L171.271 58.894C177.837 75.9438 175.942 93.4869 174.962 99.6286C176.659 100.06 178.785 100.724 181.052 101.777L181.047 101.782Z" fill="#487DE4"></path><path d="M76.7862 54.5641L73.1569 54.5356C73.1569 54.5356 73.1522 54.5404 73.1428 54.5404L104.313 54.7823L76.7862 54.5594V54.5641Z" fill="#487DE4"></path><path d="M104.595 54.7917H104.317L73.1475 54.545C73.1522 54.545 73.1522 54.5403 73.1616 54.5403H73.1475H72.4028L66.5581 54.4929L56.6317 54.4122L42.2322 54.2937H42.218L40.3987 54.2842L30.1281 54.1941L17.9157 54.0945L19.6219 65.2397L21.0124 74.3977L25.641 104.694L25.7635 105.457L26.7062 111.632L26.8806 112.794L29.2656 128.322L103.459 127.956L104.633 54.7964H104.595V54.7917ZM98.3124 122.702L33.7575 123.019L31.6223 109.081L31.5516 108.592L30.722 103.228L30.6183 102.531L25.4666 68.7824L24.1421 60.1224L24.029 59.4157H24.7925L34.3372 59.4964L39.9792 59.5438L51.6072 59.6339L60.1243 59.7003L64.5644 59.743L66.8739 59.7619L68.6179 59.7714L70.6918 59.7951L74.6652 59.8189L99.3022 60.0275L98.3171 122.702H98.3124Z" fill="#487DE4"></path><path d="M41.9211 164.095C41.7703 164.541 41.6289 164.973 41.4828 165.428C40.9831 167.022 40.5071 168.667 40.0782 170.341C39.8802 171.096 39.6822 171.869 39.4937 172.642L39.4136 173.007V173.021C33.6161 179.794 26.7298 190.427 24.4862 204.541L24.3495 205.437L23.8923 204.892C9.17699 186.704 0.292198 163.526 0.169649 138.295C0.0518136 114.393 7.81953 92.2491 21.0077 74.3978L25.6362 104.694L25.7588 105.457C19.966 109.773 16.4498 116.019 15.4647 123.66V123.674C15.3751 124.418 15.3091 125.168 15.2526 125.936C14.3099 141.497 23.7839 155.027 41.9164 164.105L41.9211 164.095Z" fill="#487DE4"></path><path d="M118.255 193.334C121.507 188.691 129.251 188.639 132.541 193.263C131.405 192.561 130.241 192.011 129.044 191.622C125.377 190.422 121.465 191.223 118.255 193.329V193.334Z" fill="#487DE4"></path><path d="M80.0102 193.519C83.2625 188.876 91.0066 188.823 94.2966 193.448C93.1607 192.746 91.9964 192.196 90.7992 191.807C87.1322 190.607 83.2201 191.408 80.0102 193.514V193.519Z" fill="#487DE4"></path><path d="M170.805 53.6392L168.971 53.6677H168.957L154.558 53.9285L144.636 54.104L138.735 54.2084L138.047 54.2178H138.032L135.619 54.27L106.881 54.7822L104.591 54.7917H104.313L76.7862 54.5641L73.1569 54.5356H73.1428H72.398L66.5534 54.4882L56.627 54.4076L42.2275 54.289H42.2133L40.394 54.2795C41.3885 53.478 42.3972 52.7002 43.4247 51.9414C47.5913 48.8539 51.989 46.0795 56.5893 43.618C56.7354 43.5327 56.8909 43.4568 57.037 43.3951L57.0512 43.3809C67.6234 37.7941 79.2702 33.9478 91.5769 32.2594C90.8134 31.3014 90.0451 30.258 89.2768 29.1577C85.3034 23.4428 81.7589 16.1107 84.2099 10.2962C89.8471 -3.13018 125.339 -3.54753 131.434 9.72712C134.361 16.0965 130.001 24.5289 126.47 29.7885C125.669 31.0026 124.887 32.0413 124.274 32.8617C134.62 34.6876 144.471 38.0265 153.563 42.6505C153.723 42.7407 153.879 42.807 154.039 42.8972C154.039 42.8972 154.039 42.9019 154.053 42.9019C158.833 45.3681 163.414 48.1899 167.736 51.3296C167.736 51.3296 167.736 51.3438 167.75 51.3438C167.859 51.5335 167.963 51.7232 168.071 51.9224C167.967 51.728 167.859 51.5335 167.765 51.3438C168.797 52.0884 169.815 52.8472 170.819 53.6392H170.805Z" fill="#487DE4"></path><path d="M104.317 54.7869L73.1475 54.545C73.1475 54.545 73.1522 54.5403 73.1616 54.5403L76.791 54.5687L104.317 54.7916V54.7869Z" fill="#487DE4"></path><path d="M138.051 54.2273L135.624 54.2699L138.037 54.2178C138.037 54.2178 138.042 54.2225 138.051 54.2225V54.2273Z" fill="#487DE4"></path><path d="M93.3162 209.141C101.598 212.741 111.128 212.613 119.386 209.013C119.612 208.909 119.806 209.264 119.579 209.392C113.659 213.058 106.189 213.969 99.4955 212.176C97.2613 211.583 95.1073 210.692 93.1277 209.52C92.9108 209.392 93.0805 209.032 93.3162 209.141Z" fill="#487DE4"></path><path d="M151.937 195.975C150.74 197.175 149.514 198.233 148.265 199.167C146.262 198.332 144.579 198.181 144.41 198.166L142.345 198L142.336 195.928C142.289 185.968 139.39 178.859 135.242 173.78L133.22 171.555C129.402 167.761 124.873 165.343 120.626 163.797C120.937 164.204 121.182 164.679 121.238 165.257C121.578 168.52 115.578 171.38 115.403 171.167C115.271 170.991 119.099 169.094 118.905 166.732C118.783 165.3 117.232 164.285 115.531 163.502C115.922 165.945 115.366 169.753 110.124 173.581C110.407 173.211 112.75 170.043 112.58 166.073C107.046 175.554 99.6227 172.144 99.6227 172.144C102.889 170.237 104.185 166.727 104.69 163.725C103.478 165.788 101.14 168.141 96.6769 169.805C96.8465 169.583 99.2221 166.419 99.8019 163.355C99.1326 163.389 98.4114 163.484 97.5394 163.768C93.9902 164.916 92.6375 167.652 92.2557 167.358C91.9634 167.131 92.3924 165.257 93.6226 163.246C88.8432 164.778 83.4934 167.382 79.1241 171.807C78.4265 172.523 77.7525 173.263 77.1256 174.064C73.0297 179.182 70.1922 186.319 70.2393 196.279L70.2487 198.351L68.1795 198.541C68.0193 198.555 66.3507 198.736 64.3523 199.608C63.0938 198.674 61.8494 197.612 60.6334 196.421C62.382 195.383 64.1731 194.742 65.7663 194.372C66.0397 185.399 68.4953 178.556 72.0823 173.339C72.8788 172.191 73.7225 171.129 74.6039 170.137C75.3722 169.274 76.1594 168.468 76.9842 167.719C78.1296 166.661 79.3221 165.708 80.5475 164.83C91.9587 156.768 105.854 156.54 106.099 156.54C106.344 156.54 120.244 156.63 131.735 164.589C132.97 165.442 134.172 166.377 135.327 167.429C136.152 168.169 136.948 168.966 137.717 169.81C138.607 170.806 139.465 171.859 140.267 172.997C143.901 178.176 146.432 185.001 146.795 193.969C148.369 194.311 150.174 194.946 151.937 195.966V195.975Z" fill="#487DE4"></path><path d="M60.8219 79.5387L59.62 77.101C62.1181 75.849 64.7529 74.9099 67.4395 74.2981C75.7257 72.42 83.0551 74.0278 87.7402 75.7067L86.8353 78.2677C82.4848 76.7074 75.6927 75.2134 68.0334 76.9492C65.5542 77.5136 63.1268 78.3815 60.8219 79.534V79.5387Z" fill="#487DE4"></path><path d="M149.868 79.1024C147.549 77.9689 145.117 77.1247 142.633 76.5888C134.959 74.9289 128.181 76.4892 123.845 78.0922L122.912 75.5407C127.583 73.8144 134.893 72.1355 143.198 73.9329C145.894 74.5163 148.534 75.4316 151.046 76.66L149.868 79.1072V79.1024Z" fill="#487DE4"></path><path d="M152.352 86.9658C149.373 83.5084 144.193 81.2414 138.523 80.8905C133.234 80.5727 128.478 81.9765 125.41 84.7604C122.261 87.6108 120.315 92.3724 120.06 97.8122C119.791 103.741 121.55 109.365 124.75 112.87C128.101 116.508 133.644 118.381 139.06 118.357C141.285 118.348 143.481 118.016 145.494 117.352C147.506 116.697 149.34 115.697 150.82 114.378C157.725 108.17 158.498 94.0797 152.342 86.9658H152.352ZM148.534 111.794C143.387 116.403 132.07 115.739 127.286 110.518C124.712 107.724 123.27 102.911 123.496 97.9687C123.713 93.449 125.25 89.56 127.71 87.331C129.84 85.396 133.154 84.3289 136.915 84.3099C137.372 84.3099 137.834 84.3099 138.306 84.3526C143.01 84.6371 147.398 86.5057 149.764 89.2375C151.961 91.789 153.035 95.6164 153.054 99.5148C153.078 104.267 151.527 109.104 148.529 111.789L148.534 111.794Z" fill="#487DE4"></path><path d="M145.852 99.5575C145.88 105.676 142.515 110.665 138.32 110.684C134.139 110.703 130.712 105.751 130.679 99.6334C130.651 93.5012 134.031 88.5167 138.211 88.4977C138.9 88.4977 139.55 88.6162 140.182 88.8629C139.027 89.4557 138.235 90.6603 138.24 92.0547C138.249 94.0276 139.838 95.6116 141.784 95.6022C143.047 95.5974 144.141 94.9334 144.763 93.9422C145.447 95.5832 145.838 97.5087 145.847 99.5623L145.852 99.5575Z" fill="#487DE4"></path><path d="M87.4244 87.2835C84.4361 83.8261 79.2608 81.5592 73.5905 81.2082C68.3021 80.8904 63.5463 82.2943 60.4778 85.0782C57.334 87.9285 55.3826 92.6901 55.1281 98.13C54.8641 104.058 56.6222 109.683 59.8274 113.188C63.1786 116.825 68.7169 118.699 74.1326 118.675C76.3573 118.666 78.5538 118.334 80.5664 117.67C82.579 117.015 84.4125 116.014 85.8926 114.696C92.7977 108.488 93.5707 94.3975 87.4197 87.2835H87.4244ZM83.6018 112.111C78.4548 116.721 67.1379 116.057 62.3538 110.835C59.7897 108.042 58.3379 103.228 58.5736 98.2865C58.781 93.7667 60.3223 89.8778 62.7874 87.6487C64.9179 85.7137 68.2267 84.6466 71.988 84.6276C72.4546 84.6276 72.9071 84.6276 73.3784 84.6703C78.0871 84.9549 82.4706 86.8235 84.8368 89.5553C87.0379 92.1068 88.1079 95.9341 88.1267 99.8326C88.1503 104.585 86.5996 109.422 83.6018 112.107V112.111Z" fill="#487DE4"></path><path d="M80.9152 99.8753C80.9435 105.993 77.5781 110.983 73.3832 111.002C69.2024 111.02 65.7757 106.069 65.7427 99.9511C65.7144 93.8189 69.0939 88.8344 73.2747 88.8154C73.9629 88.8154 74.6134 88.934 75.245 89.1806C74.0902 89.7734 73.2983 90.9781 73.303 92.3724C73.3125 94.3453 74.9009 95.9294 76.8475 95.9199C78.1107 95.9152 79.2042 95.2512 79.8264 94.26C80.5098 95.9009 80.9011 97.8264 80.9105 99.88L80.9152 99.8753Z" fill="#487DE4"></path></svg>