<svg xmlns="http://www.w3.org/2000/svg" xmlns:xlink="http://www.w3.org/1999/xlink" width="500" viewBox="0 0 375 374.999991" height="500" preserveAspectRatio="xMidYMid meet"><defs><clipPath id="3484c0636e"><path d="M 24.519531 11.542969 L 350.480469 11.542969 L 350.480469 337.5 L 24.519531 337.5 Z M 24.519531 11.542969 " clip-rule="nonzero"></path></clipPath><clipPath id="b251a748ed"><path d="M 187.5 11.542969 C 97.488281 11.542969 24.519531 84.507812 24.519531 174.519531 C 24.519531 264.53125 97.488281 337.5 187.5 337.5 C 277.511719 337.5 350.480469 264.53125 350.480469 174.519531 C 350.480469 84.507812 277.511719 11.542969 187.5 11.542969 Z M 187.5 11.542969 " clip-rule="nonzero"></path></clipPath><clipPath id="b128e7b71f"><path d="M 67 87 L 309 87 L 309 304.707031 L 67 304.707031 Z M 67 87 " clip-rule="nonzero"></path></clipPath></defs><g clip-path="url(#3484c0636e)"><g clip-path="url(#b251a748ed)"><path fill="#477ce3" d="M 24.519531 11.542969 L 350.480469 11.542969 L 350.480469 337.5 L 24.519531 337.5 Z M 24.519531 11.542969 " fill-opacity="1" fill-rule="nonzero"></path></g></g><g clip-path="url(#b128e7b71f)"><path fill="#ffffff" d="M 307.304688 141.332031 C 293.71875 71.449219 208.558594 70.28125 187.558594 135.613281 C 166.5625 70.285156 81.398438 71.449219 67.816406 141.332031 C 55.488281 204.738281 187.558594 304.765625 187.558594 304.765625 C 187.558594 304.765625 319.628906 204.738281 307.304688 141.332031 Z M 307.304688 141.332031 " fill-opacity="1" fill-rule="nonzero"></path></g></svg>