<svg xmlns="http://www.w3.org/2000/svg" xmlns:xlink="http://www.w3.org/1999/xlink" width="500" viewBox="0 0 375 374.999991" height="500" preserveAspectRatio="xMidYMid meet"><defs><clipPath id="e0b92b6f0d"><path d="M 24.519531 11.542969 L 350.480469 11.542969 L 350.480469 337.5 L 24.519531 337.5 Z M 24.519531 11.542969 " clip-rule="nonzero"></path></clipPath><clipPath id="315e065eaa"><path d="M 187.5 11.542969 C 97.488281 11.542969 24.519531 84.507812 24.519531 174.519531 C 24.519531 264.53125 97.488281 337.5 187.5 337.5 C 277.511719 337.5 350.480469 264.53125 350.480469 174.519531 C 350.480469 84.507812 277.511719 11.542969 187.5 11.542969 Z M 187.5 11.542969 " clip-rule="nonzero"></path></clipPath><clipPath id="1c84fc9a85"><path d="M 103.695312 169 L 261 169 L 261 291 L 103.695312 291 Z M 103.695312 169 " clip-rule="nonzero"></path></clipPath><clipPath id="7a87ebea69"><path d="M 197 140 L 283.695312 140 L 283.695312 228 L 197 228 Z M 197 140 " clip-rule="nonzero"></path></clipPath></defs><g clip-path="url(#e0b92b6f0d)"><g clip-path="url(#315e065eaa)"><path fill="#477ce3" d="M 24.519531 11.542969 L 350.480469 11.542969 L 350.480469 337.5 L 24.519531 337.5 Z M 24.519531 11.542969 " fill-opacity="1" fill-rule="nonzero"></path></g></g><path fill="#ffffff" d="M 228.355469 108.726562 C 228.355469 107.207031 228.28125 105.691406 228.132812 104.179688 C 227.984375 102.667969 227.761719 101.167969 227.464844 99.679688 C 227.167969 98.1875 226.800781 96.71875 226.359375 95.265625 C 225.917969 93.8125 225.40625 92.382812 224.828125 90.980469 C 224.246094 89.578125 223.597656 88.203125 222.878906 86.867188 C 222.164062 85.527344 221.382812 84.226562 220.539062 82.960938 C 219.695312 81.699219 218.792969 80.480469 217.828125 79.308594 C 216.867188 78.132812 215.847656 77.007812 214.773438 75.933594 C 213.699219 74.859375 212.574219 73.84375 211.402344 72.878906 C 210.226562 71.914062 209.007812 71.011719 207.746094 70.167969 C 206.484375 69.324219 205.183594 68.542969 203.84375 67.828125 C 202.503906 67.113281 201.132812 66.464844 199.730469 65.882812 C 198.328125 65.300781 196.898438 64.789062 195.445312 64.347656 C 193.992188 63.910156 192.519531 63.539062 191.03125 63.242188 C 189.539062 62.949219 188.039062 62.726562 186.527344 62.574219 C 185.015625 62.425781 183.503906 62.351562 181.984375 62.351562 C 180.464844 62.351562 178.949219 62.425781 177.4375 62.574219 C 175.925781 62.726562 174.425781 62.949219 172.9375 63.242188 C 171.445312 63.539062 169.976562 63.910156 168.523438 64.347656 C 167.070312 64.789062 165.640625 65.300781 164.238281 65.882812 C 162.835938 66.464844 161.460938 67.113281 160.125 67.828125 C 158.785156 68.542969 157.484375 69.324219 156.21875 70.167969 C 154.957031 71.011719 153.738281 71.914062 152.566406 72.878906 C 151.390625 73.84375 150.265625 74.859375 149.191406 75.933594 C 148.117188 77.007812 147.101562 78.132812 146.136719 79.308594 C 145.171875 80.480469 144.269531 81.699219 143.425781 82.960938 C 142.582031 84.226562 141.800781 85.527344 141.085938 86.867188 C 140.371094 88.203125 139.722656 89.578125 139.140625 90.980469 C 138.558594 92.382812 138.046875 93.8125 137.605469 95.265625 C 137.167969 96.71875 136.796875 98.1875 136.5 99.679688 C 136.207031 101.167969 135.984375 102.667969 135.832031 104.179688 C 135.683594 105.691406 135.609375 107.207031 135.609375 108.726562 C 135.609375 110.246094 135.683594 111.757812 135.832031 113.269531 C 135.984375 114.78125 136.207031 116.28125 136.5 117.773438 C 136.796875 119.261719 137.167969 120.734375 137.605469 122.1875 C 138.046875 123.640625 138.558594 125.070312 139.140625 126.472656 C 139.722656 127.875 140.371094 129.246094 141.085938 130.585938 C 141.800781 131.925781 142.582031 133.226562 143.425781 134.488281 C 144.269531 135.75 145.171875 136.96875 146.136719 138.144531 C 147.101562 139.316406 148.117188 140.441406 149.191406 141.515625 C 150.265625 142.589844 151.390625 143.609375 152.566406 144.574219 C 153.738281 145.535156 154.957031 146.4375 156.21875 147.28125 C 157.484375 148.128906 158.785156 148.90625 160.125 149.621094 C 161.460938 150.339844 162.835938 150.988281 164.238281 151.570312 C 165.640625 152.148438 167.070312 152.660156 168.523438 153.101562 C 169.976562 153.542969 171.445312 153.910156 172.9375 154.207031 C 174.425781 154.503906 175.925781 154.726562 177.4375 154.875 C 178.949219 155.023438 180.464844 155.097656 181.984375 155.097656 C 183.5 155.097656 185.015625 155.023438 186.527344 154.871094 C 188.039062 154.722656 189.539062 154.5 191.027344 154.203125 C 192.515625 153.90625 193.988281 153.535156 195.441406 153.09375 C 196.894531 152.652344 198.320312 152.140625 199.722656 151.558594 C 201.128906 150.976562 202.496094 150.328125 203.835938 149.613281 C 205.175781 148.898438 206.476562 148.117188 207.738281 147.273438 C 209 146.429688 210.21875 145.527344 211.394531 144.5625 C 212.566406 143.597656 213.691406 142.582031 214.765625 141.507812 C 215.835938 140.433594 216.855469 139.308594 217.820312 138.136719 C 218.785156 136.960938 219.6875 135.742188 220.53125 134.480469 C 221.375 133.21875 222.15625 131.917969 222.871094 130.578125 C 223.585938 129.238281 224.234375 127.871094 224.816406 126.464844 C 225.398438 125.0625 225.910156 123.636719 226.351562 122.183594 C 226.792969 120.730469 227.164062 119.257812 227.460938 117.769531 C 227.757812 116.28125 227.980469 114.78125 228.128906 113.269531 C 228.28125 111.757812 228.355469 110.242188 228.355469 108.726562 Z M 181.984375 141.773438 C 180.902344 141.773438 179.820312 141.71875 178.746094 141.613281 C 177.667969 141.507812 176.597656 141.347656 175.535156 141.136719 C 174.476562 140.925781 173.425781 140.664062 172.390625 140.351562 C 171.355469 140.035156 170.335938 139.671875 169.335938 139.257812 C 168.335938 138.84375 167.359375 138.382812 166.40625 137.871094 C 165.449219 137.359375 164.523438 136.804688 163.625 136.203125 C 162.722656 135.601562 161.855469 134.957031 161.019531 134.273438 C 160.183594 133.585938 159.378906 132.859375 158.617188 132.09375 C 157.851562 131.328125 157.125 130.527344 156.4375 129.691406 C 155.75 128.855469 155.105469 127.984375 154.503906 127.085938 C 153.902344 126.1875 153.347656 125.257812 152.839844 124.304688 C 152.328125 123.347656 151.867188 122.371094 151.453125 121.371094 C 151.039062 120.371094 150.671875 119.355469 150.359375 118.320312 C 150.042969 117.28125 149.78125 116.234375 149.570312 115.171875 C 149.359375 114.109375 149.203125 113.042969 149.09375 111.964844 C 148.988281 110.886719 148.9375 109.808594 148.9375 108.726562 C 148.9375 107.644531 148.988281 106.5625 149.09375 105.488281 C 149.203125 104.410156 149.359375 103.339844 149.570312 102.277344 C 149.78125 101.21875 150.042969 100.167969 150.359375 99.132812 C 150.671875 98.097656 151.039062 97.078125 151.453125 96.078125 C 151.867188 95.078125 152.328125 94.101562 152.839844 93.148438 C 153.347656 92.191406 153.902344 91.265625 154.503906 90.367188 C 155.105469 89.464844 155.75 88.597656 156.4375 87.761719 C 157.125 86.925781 157.851562 86.121094 158.617188 85.359375 C 159.378906 84.59375 160.183594 83.867188 161.019531 83.179688 C 161.855469 82.492188 162.722656 81.847656 163.625 81.246094 C 164.523438 80.644531 165.449219 80.089844 166.40625 79.582031 C 167.359375 79.070312 168.335938 78.609375 169.335938 78.195312 C 170.335938 77.78125 171.355469 77.414062 172.390625 77.101562 C 173.425781 76.789062 174.476562 76.523438 175.535156 76.3125 C 176.597656 76.101562 177.667969 75.945312 178.746094 75.835938 C 179.820312 75.730469 180.902344 75.679688 181.984375 75.679688 C 183.066406 75.679688 184.144531 75.730469 185.222656 75.835938 C 186.300781 75.945312 187.367188 76.101562 188.429688 76.3125 C 189.492188 76.523438 190.539062 76.789062 191.578125 77.101562 C 192.613281 77.414062 193.628906 77.78125 194.628906 78.195312 C 195.628906 78.609375 196.605469 79.070312 197.5625 79.582031 C 198.515625 80.089844 199.445312 80.644531 200.34375 81.246094 C 201.242188 81.847656 202.113281 82.492188 202.949219 83.179688 C 203.785156 83.867188 204.585938 84.59375 205.351562 85.359375 C 206.117188 86.121094 206.84375 86.925781 207.527344 87.761719 C 208.214844 88.597656 208.859375 89.464844 209.460938 90.367188 C 210.0625 91.265625 210.617188 92.191406 211.128906 93.148438 C 211.640625 94.101562 212.101562 95.078125 212.515625 96.078125 C 212.929688 97.078125 213.292969 98.097656 213.609375 99.132812 C 213.921875 100.167969 214.183594 101.21875 214.394531 102.277344 C 214.605469 103.339844 214.765625 104.410156 214.871094 105.488281 C 214.976562 106.5625 215.03125 107.644531 215.03125 108.726562 C 215.03125 109.808594 214.976562 110.886719 214.867188 111.964844 C 214.761719 113.039062 214.601562 114.109375 214.390625 115.171875 C 214.179688 116.230469 213.914062 117.28125 213.601562 118.316406 C 213.285156 119.351562 212.921875 120.367188 212.507812 121.367188 C 212.089844 122.367188 211.628906 123.34375 211.117188 124.296875 C 210.609375 125.25 210.050781 126.179688 209.449219 127.078125 C 208.847656 127.976562 208.207031 128.84375 207.519531 129.679688 C 206.832031 130.519531 206.105469 131.320312 205.339844 132.082031 C 204.578125 132.847656 203.777344 133.574219 202.9375 134.261719 C 202.101562 134.949219 201.234375 135.59375 200.335938 136.191406 C 199.4375 136.792969 198.507812 137.351562 197.554688 137.859375 C 196.601562 138.371094 195.625 138.832031 194.625 139.25 C 193.625 139.664062 192.609375 140.027344 191.574219 140.34375 C 190.539062 140.65625 189.488281 140.921875 188.429688 141.132812 C 187.367188 141.34375 186.296875 141.503906 185.222656 141.609375 C 184.144531 141.71875 183.066406 141.773438 181.984375 141.773438 Z M 181.984375 141.773438 " fill-opacity="1" fill-rule="nonzero"></path><g clip-path="url(#1c84fc9a85)"><path fill="#ffffff" d="M 103.664062 284.023438 C 103.664062 284.460938 103.707031 284.894531 103.789062 285.324219 C 103.875 285.75 104.003906 286.167969 104.167969 286.574219 C 104.335938 286.976562 104.542969 287.359375 104.785156 287.722656 C 105.027344 288.089844 105.304688 288.425781 105.613281 288.734375 C 105.921875 289.042969 106.261719 289.320312 106.625 289.5625 C 106.988281 289.804688 107.371094 290.011719 107.777344 290.179688 C 108.179688 290.347656 108.597656 290.472656 109.027344 290.558594 C 109.453125 290.644531 109.886719 290.683594 110.324219 290.6875 L 253.574219 290.6875 C 254.011719 290.683594 254.445312 290.644531 254.875 290.558594 C 255.304688 290.472656 255.71875 290.347656 256.125 290.179688 C 256.527344 290.011719 256.914062 289.804688 257.277344 289.5625 C 257.640625 289.320312 257.976562 289.042969 258.285156 288.734375 C 258.59375 288.425781 258.871094 288.089844 259.113281 287.722656 C 259.359375 287.359375 259.5625 286.976562 259.730469 286.574219 C 259.898438 286.167969 260.023438 285.75 260.109375 285.324219 C 260.195312 284.894531 260.238281 284.460938 260.238281 284.023438 L 260.238281 232.851562 C 260.238281 232.414062 260.195312 231.980469 260.109375 231.554688 C 260.023438 231.125 259.898438 230.707031 259.730469 230.304688 C 259.5625 229.898438 259.359375 229.515625 259.113281 229.152344 C 258.871094 228.789062 258.59375 228.449219 258.285156 228.140625 C 257.976562 227.832031 257.640625 227.554688 257.277344 227.3125 C 256.914062 227.070312 256.527344 226.863281 256.125 226.695312 C 255.71875 226.53125 255.304688 226.402344 254.875 226.316406 C 254.445312 226.234375 254.011719 226.191406 253.574219 226.191406 C 253.136719 226.191406 252.703125 226.234375 252.273438 226.316406 C 251.847656 226.402344 251.429688 226.53125 251.023438 226.695312 C 250.621094 226.863281 250.238281 227.070312 249.871094 227.3125 C 249.507812 227.554688 249.171875 227.832031 248.863281 228.140625 C 248.554688 228.449219 248.277344 228.789062 248.035156 229.152344 C 247.792969 229.515625 247.585938 229.898438 247.417969 230.304688 C 247.25 230.707031 247.125 231.125 247.039062 231.554688 C 246.953125 231.980469 246.910156 232.414062 246.910156 232.851562 L 246.910156 277.359375 L 116.988281 277.359375 L 116.988281 231.652344 C 116.988281 230.070312 117.066406 228.488281 117.21875 226.910156 C 117.375 225.332031 117.609375 223.769531 117.917969 222.214844 C 118.226562 220.660156 118.609375 219.125 119.066406 217.605469 C 119.527344 216.089844 120.058594 214.597656 120.664062 213.136719 C 121.269531 211.671875 121.945312 210.238281 122.691406 208.839844 C 123.4375 207.441406 124.25 206.085938 125.128906 204.765625 C 126.007812 203.445312 126.949219 202.175781 127.953125 200.949219 C 128.957031 199.722656 130.019531 198.546875 131.136719 197.425781 C 132.257812 196.304688 133.429688 195.238281 134.652344 194.230469 C 135.875 193.226562 137.144531 192.28125 138.460938 191.398438 C 139.777344 190.515625 141.132812 189.699219 142.53125 188.949219 C 143.925781 188.199219 145.355469 187.519531 146.816406 186.910156 C 148.28125 186.300781 149.769531 185.765625 151.285156 185.300781 C 152.800781 184.835938 154.335938 184.449219 155.890625 184.136719 C 157.441406 183.824219 159.007812 183.585938 160.585938 183.425781 C 162.160156 183.269531 163.742188 183.1875 165.328125 183.183594 C 165.765625 183.183594 166.195312 183.140625 166.625 183.054688 C 167.054688 182.96875 167.472656 182.84375 167.875 182.675781 C 168.28125 182.507812 168.664062 182.300781 169.027344 182.058594 C 169.390625 181.816406 169.726562 181.539062 170.039062 181.230469 C 170.347656 180.921875 170.625 180.585938 170.867188 180.222656 C 171.109375 179.855469 171.316406 179.472656 171.480469 179.070312 C 171.648438 178.664062 171.777344 178.25 171.859375 177.820312 C 171.945312 177.390625 171.988281 176.957031 171.988281 176.519531 C 171.988281 176.082031 171.945312 175.648438 171.859375 175.21875 C 171.777344 174.789062 171.648438 174.375 171.480469 173.96875 C 171.316406 173.566406 171.109375 173.179688 170.867188 172.816406 C 170.625 172.453125 170.347656 172.117188 170.039062 171.808594 C 169.726562 171.5 169.390625 171.222656 169.027344 170.980469 C 168.664062 170.734375 168.28125 170.53125 167.875 170.363281 C 167.472656 170.195312 167.054688 170.070312 166.625 169.984375 C 166.195312 169.898438 165.765625 169.855469 165.328125 169.855469 C 163.304688 169.863281 161.289062 169.964844 159.277344 170.167969 C 157.269531 170.371094 155.273438 170.671875 153.292969 171.070312 C 151.308594 171.472656 149.355469 171.964844 147.421875 172.554688 C 145.488281 173.148438 143.589844 173.832031 141.722656 174.609375 C 139.859375 175.382812 138.035156 176.25 136.253906 177.207031 C 134.472656 178.160156 132.746094 179.203125 131.066406 180.328125 C 129.386719 181.453125 127.765625 182.65625 126.207031 183.941406 C 124.648438 185.226562 123.152344 186.582031 121.726562 188.011719 C 120.296875 189.445312 118.945312 190.941406 117.664062 192.503906 C 116.382812 194.066406 115.179688 195.6875 114.058594 197.371094 C 112.9375 199.050781 111.902344 200.78125 110.949219 202.566406 C 109.996094 204.347656 109.136719 206.171875 108.363281 208.039062 C 107.589844 209.90625 106.910156 211.808594 106.324219 213.742188 C 105.738281 215.675781 105.246094 217.632812 104.851562 219.617188 C 104.457031 221.597656 104.160156 223.59375 103.960938 225.605469 C 103.761719 227.617188 103.664062 229.632812 103.664062 231.652344 Z M 103.664062 284.023438 " fill-opacity="1" fill-rule="nonzero"></path></g><path fill="#ffffff" d="M 233.6875 190.609375 L 233.6875 201.070312 C 233.6875 201.507812 233.730469 201.941406 233.8125 202.371094 C 233.898438 202.800781 234.027344 203.21875 234.195312 203.621094 C 234.359375 204.023438 234.566406 204.410156 234.808594 204.773438 C 235.050781 205.136719 235.328125 205.472656 235.636719 205.78125 C 235.945312 206.09375 236.285156 206.367188 236.648438 206.609375 C 237.011719 206.855469 237.394531 207.058594 237.800781 207.226562 C 238.203125 207.394531 238.621094 207.519531 239.050781 207.605469 C 239.476562 207.691406 239.910156 207.734375 240.347656 207.734375 C 240.785156 207.734375 241.21875 207.691406 241.648438 207.605469 C 242.078125 207.519531 242.496094 207.394531 242.898438 207.226562 C 243.304688 207.058594 243.6875 206.855469 244.050781 206.609375 C 244.414062 206.367188 244.75 206.09375 245.058594 205.78125 C 245.371094 205.472656 245.644531 205.136719 245.890625 204.773438 C 246.132812 204.410156 246.335938 204.023438 246.503906 203.621094 C 246.671875 203.21875 246.796875 202.800781 246.882812 202.371094 C 246.96875 201.941406 247.011719 201.507812 247.011719 201.070312 L 247.011719 190.609375 L 257.90625 190.609375 C 258.34375 190.609375 258.777344 190.566406 259.207031 190.484375 C 259.632812 190.398438 260.050781 190.269531 260.457031 190.105469 C 260.859375 189.9375 261.242188 189.730469 261.605469 189.488281 C 261.972656 189.246094 262.308594 188.96875 262.617188 188.660156 C 262.925781 188.351562 263.203125 188.011719 263.445312 187.648438 C 263.6875 187.285156 263.894531 186.902344 264.0625 186.496094 C 264.226562 186.09375 264.355469 185.675781 264.441406 185.246094 C 264.527344 184.820312 264.566406 184.386719 264.566406 183.949219 C 264.566406 183.511719 264.527344 183.078125 264.441406 182.648438 C 264.355469 182.21875 264.226562 181.800781 264.0625 181.398438 C 263.894531 180.996094 263.6875 180.609375 263.445312 180.246094 C 263.203125 179.882812 262.925781 179.546875 262.617188 179.238281 C 262.308594 178.925781 261.972656 178.652344 261.605469 178.410156 C 261.242188 178.164062 260.859375 177.960938 260.457031 177.792969 C 260.050781 177.625 259.632812 177.5 259.207031 177.414062 C 258.777344 177.328125 258.34375 177.285156 257.90625 177.285156 L 247.011719 177.285156 L 247.011719 166.824219 C 247.011719 166.386719 246.96875 165.953125 246.882812 165.523438 C 246.796875 165.097656 246.671875 164.679688 246.503906 164.273438 C 246.335938 163.871094 246.132812 163.488281 245.890625 163.125 C 245.644531 162.757812 245.371094 162.421875 245.058594 162.113281 C 244.75 161.804688 244.414062 161.527344 244.050781 161.285156 C 243.6875 161.042969 243.304688 160.835938 242.898438 160.667969 C 242.496094 160.5 242.078125 160.375 241.648438 160.289062 C 241.21875 160.203125 240.785156 160.164062 240.347656 160.164062 C 239.910156 160.164062 239.476562 160.203125 239.050781 160.289062 C 238.621094 160.375 238.203125 160.5 237.800781 160.667969 C 237.394531 160.835938 237.011719 161.042969 236.648438 161.285156 C 236.285156 161.527344 235.945312 161.804688 235.636719 162.113281 C 235.328125 162.421875 235.050781 162.757812 234.808594 163.125 C 234.566406 163.488281 234.359375 163.871094 234.195312 164.273438 C 234.027344 164.679688 233.898438 165.097656 233.8125 165.523438 C 233.730469 165.953125 233.6875 166.386719 233.6875 166.824219 L 233.6875 177.285156 L 222.757812 177.285156 C 222.320312 177.285156 221.890625 177.328125 221.460938 177.414062 C 221.03125 177.5 220.613281 177.625 220.210938 177.792969 C 219.804688 177.960938 219.421875 178.164062 219.058594 178.410156 C 218.695312 178.652344 218.359375 178.925781 218.046875 179.238281 C 217.738281 179.546875 217.460938 179.882812 217.21875 180.246094 C 216.976562 180.609375 216.769531 180.996094 216.605469 181.398438 C 216.4375 181.800781 216.308594 182.21875 216.226562 182.648438 C 216.140625 183.078125 216.097656 183.511719 216.097656 183.949219 C 216.097656 184.386719 216.140625 184.820312 216.226562 185.246094 C 216.308594 185.675781 216.4375 186.09375 216.605469 186.496094 C 216.769531 186.902344 216.976562 187.285156 217.21875 187.648438 C 217.460938 188.011719 217.738281 188.351562 218.046875 188.660156 C 218.359375 188.96875 218.695312 189.246094 219.058594 189.488281 C 219.421875 189.730469 219.804688 189.9375 220.210938 190.105469 C 220.613281 190.269531 221.03125 190.398438 221.460938 190.484375 C 221.890625 190.566406 222.320312 190.609375 222.757812 190.609375 Z M 233.6875 190.609375 " fill-opacity="1" fill-rule="nonzero"></path><g clip-path="url(#7a87ebea69)"><path fill="#ffffff" d="M 240.347656 227.355469 C 241.765625 227.355469 243.183594 227.285156 244.59375 227.148438 C 246.003906 227.007812 247.40625 226.800781 248.796875 226.523438 C 250.1875 226.246094 251.5625 225.902344 252.921875 225.492188 C 254.277344 225.078125 255.613281 224.601562 256.921875 224.058594 C 258.234375 223.515625 259.511719 222.910156 260.765625 222.242188 C 262.015625 221.574219 263.230469 220.84375 264.410156 220.058594 C 265.589844 219.269531 266.726562 218.425781 267.824219 217.527344 C 268.917969 216.625 269.96875 215.675781 270.972656 214.671875 C 271.976562 213.667969 272.925781 212.617188 273.828125 211.523438 C 274.726562 210.425781 275.570312 209.289062 276.359375 208.109375 C 277.144531 206.929688 277.875 205.714844 278.542969 204.464844 C 279.210938 203.210938 279.816406 201.933594 280.359375 200.621094 C 280.902344 199.3125 281.378906 197.976562 281.792969 196.621094 C 282.203125 195.261719 282.546875 193.886719 282.824219 192.496094 C 283.101562 191.105469 283.308594 189.703125 283.449219 188.292969 C 283.585938 186.882812 283.65625 185.464844 283.65625 184.046875 C 283.65625 182.628906 283.585938 181.214844 283.449219 179.804688 C 283.308594 178.390625 283.101562 176.992188 282.824219 175.597656 C 282.546875 174.207031 282.203125 172.832031 281.792969 171.476562 C 281.378906 170.121094 280.902344 168.785156 280.359375 167.476562 C 279.816406 166.164062 279.210938 164.882812 278.542969 163.632812 C 277.875 162.382812 277.144531 161.167969 276.359375 159.988281 C 275.570312 158.808594 274.726562 157.671875 273.828125 156.574219 C 272.925781 155.476562 271.976562 154.425781 270.972656 153.425781 C 269.96875 152.421875 268.917969 151.46875 267.824219 150.570312 C 266.726562 149.671875 265.589844 148.828125 264.410156 148.039062 C 263.230469 147.25 262.015625 146.523438 260.765625 145.855469 C 259.511719 145.183594 258.234375 144.578125 256.921875 144.035156 C 255.613281 143.492188 254.277344 143.015625 252.921875 142.605469 C 251.5625 142.191406 250.1875 141.847656 248.796875 141.574219 C 247.40625 141.296875 246.003906 141.085938 244.59375 140.949219 C 243.183594 140.808594 241.765625 140.738281 240.347656 140.738281 C 238.929688 140.738281 237.515625 140.808594 236.105469 140.949219 C 234.691406 141.085938 233.292969 141.296875 231.898438 141.574219 C 230.507812 141.847656 229.136719 142.191406 227.777344 142.605469 C 226.421875 143.015625 225.085938 143.492188 223.777344 144.035156 C 222.464844 144.578125 221.183594 145.183594 219.933594 145.855469 C 218.683594 146.523438 217.46875 147.25 216.289062 148.039062 C 215.109375 148.828125 213.972656 149.671875 212.875 150.570312 C 211.777344 151.46875 210.730469 152.421875 209.726562 153.425781 C 208.722656 154.425781 207.769531 155.476562 206.871094 156.574219 C 205.972656 157.671875 205.128906 158.808594 204.339844 159.988281 C 203.550781 161.167969 202.824219 162.382812 202.15625 163.632812 C 201.488281 164.882812 200.878906 166.164062 200.335938 167.476562 C 199.796875 168.785156 199.316406 170.121094 198.90625 171.476562 C 198.496094 172.832031 198.148438 174.207031 197.875 175.597656 C 197.597656 176.992188 197.390625 178.390625 197.25 179.804688 C 197.109375 181.214844 197.042969 182.628906 197.042969 184.046875 C 197.042969 185.464844 197.109375 186.882812 197.25 188.292969 C 197.390625 189.703125 197.597656 191.105469 197.875 192.496094 C 198.148438 193.886719 198.496094 195.261719 198.90625 196.621094 C 199.316406 197.976562 199.796875 199.3125 200.335938 200.621094 C 200.878906 201.933594 201.484375 203.210938 202.15625 204.464844 C 202.824219 205.714844 203.550781 206.929688 204.339844 208.109375 C 205.128906 209.289062 205.972656 210.425781 206.871094 211.523438 C 207.769531 212.617188 208.722656 213.667969 209.726562 214.671875 C 210.730469 215.675781 211.777344 216.625 212.875 217.527344 C 213.972656 218.425781 215.109375 219.269531 216.289062 220.058594 C 217.46875 220.84375 218.683594 221.574219 219.933594 222.242188 C 221.183594 222.910156 222.464844 223.515625 223.777344 224.058594 C 225.085938 224.601562 226.421875 225.078125 227.777344 225.492188 C 229.136719 225.902344 230.507812 226.246094 231.898438 226.523438 C 233.292969 226.800781 234.691406 227.007812 236.105469 227.148438 C 237.515625 227.285156 238.929688 227.355469 240.347656 227.355469 Z M 240.347656 153.867188 C 241.332031 153.867188 242.3125 153.914062 243.289062 154.011719 C 244.265625 154.105469 245.234375 154.25 246.199219 154.441406 C 247.160156 154.632812 248.113281 154.871094 249.050781 155.15625 C 249.992188 155.441406 250.914062 155.773438 251.824219 156.148438 C 252.730469 156.523438 253.617188 156.941406 254.484375 157.40625 C 255.347656 157.867188 256.191406 158.375 257.007812 158.917969 C 257.824219 159.464844 258.609375 160.046875 259.371094 160.671875 C 260.128906 161.292969 260.855469 161.953125 261.550781 162.648438 C 262.246094 163.34375 262.902344 164.070312 263.527344 164.828125 C 264.148438 165.585938 264.734375 166.375 265.277344 167.191406 C 265.824219 168.007812 266.328125 168.847656 266.792969 169.714844 C 267.253906 170.582031 267.671875 171.46875 268.050781 172.375 C 268.425781 173.28125 268.753906 174.207031 269.039062 175.144531 C 269.324219 176.085938 269.5625 177.035156 269.753906 178 C 269.945312 178.960938 270.089844 179.933594 270.1875 180.910156 C 270.285156 181.886719 270.332031 182.867188 270.332031 183.847656 C 270.332031 184.832031 270.285156 185.808594 270.1875 186.785156 C 270.089844 187.765625 269.945312 188.734375 269.753906 189.699219 C 269.5625 190.660156 269.324219 191.613281 269.039062 192.550781 C 268.753906 193.492188 268.425781 194.414062 268.050781 195.320312 C 267.671875 196.230469 267.253906 197.117188 266.792969 197.980469 C 266.328125 198.847656 265.824219 199.6875 265.277344 200.503906 C 264.734375 201.320312 264.148438 202.109375 263.527344 202.867188 C 262.902344 203.628906 262.246094 204.355469 261.550781 205.050781 C 260.855469 205.742188 260.128906 206.402344 259.371094 207.023438 C 258.609375 207.648438 257.824219 208.230469 257.007812 208.777344 C 256.191406 209.324219 255.347656 209.828125 254.484375 210.289062 C 253.617188 210.753906 252.730469 211.171875 251.824219 211.546875 C 250.914062 211.925781 249.992188 212.253906 249.050781 212.539062 C 248.113281 212.824219 247.160156 213.0625 246.199219 213.253906 C 245.234375 213.445312 244.265625 213.589844 243.289062 213.6875 C 242.3125 213.78125 241.332031 213.832031 240.347656 213.832031 C 239.367188 213.832031 238.386719 213.78125 237.410156 213.6875 C 236.433594 213.589844 235.464844 213.445312 234.5 213.253906 C 233.535156 213.0625 232.585938 212.824219 231.644531 212.539062 C 230.707031 212.253906 229.78125 211.925781 228.875 211.546875 C 227.96875 211.171875 227.082031 210.753906 226.214844 210.289062 C 225.347656 209.828125 224.507812 209.324219 223.691406 208.777344 C 222.875 208.230469 222.085938 207.648438 221.328125 207.023438 C 220.570312 206.402344 219.84375 205.742188 219.148438 205.050781 C 218.453125 204.355469 217.796875 203.628906 217.171875 202.867188 C 216.550781 202.109375 215.964844 201.320312 215.417969 200.503906 C 214.875 199.6875 214.371094 198.847656 213.90625 197.980469 C 213.445312 197.117188 213.023438 196.230469 212.648438 195.320312 C 212.273438 194.414062 211.941406 193.492188 211.65625 192.550781 C 211.371094 191.613281 211.132812 190.660156 210.941406 189.699219 C 210.75 188.734375 210.605469 187.765625 210.511719 186.785156 C 210.414062 185.808594 210.367188 184.832031 210.367188 183.847656 C 210.367188 182.867188 210.414062 181.886719 210.511719 180.910156 C 210.605469 179.933594 210.75 178.960938 210.941406 178 C 211.132812 177.035156 211.371094 176.085938 211.65625 175.144531 C 211.941406 174.207031 212.273438 173.28125 212.648438 172.375 C 213.023438 171.46875 213.445312 170.582031 213.90625 169.714844 C 214.371094 168.847656 214.875 168.007812 215.417969 167.191406 C 215.964844 166.375 216.550781 165.585938 217.171875 164.828125 C 217.796875 164.070312 218.453125 163.34375 219.148438 162.648438 C 219.84375 161.953125 220.570312 161.292969 221.328125 160.671875 C 222.085938 160.046875 222.875 159.464844 223.691406 158.917969 C 224.507812 158.375 225.347656 157.867188 226.214844 157.40625 C 227.082031 156.941406 227.96875 156.523438 228.875 156.148438 C 229.78125 155.773438 230.707031 155.441406 231.644531 155.15625 C 232.585938 154.871094 233.535156 154.632812 234.5 154.441406 C 235.464844 154.25 236.433594 154.105469 237.410156 154.011719 C 238.386719 153.914062 239.367188 153.867188 240.347656 153.867188 Z M 240.347656 153.867188 " fill-opacity="1" fill-rule="nonzero"></path></g></svg>