<svg xmlns="http://www.w3.org/2000/svg" xmlns:xlink="http://www.w3.org/1999/xlink" width="500" viewBox="0 0 375 374.999991" height="500" preserveAspectRatio="xMidYMid meet"><defs><clipPath id="8706da413f"><path d="M 24.519531 11.542969 L 350.480469 11.542969 L 350.480469 337.5 L 24.519531 337.5 Z M 24.519531 11.542969 " clip-rule="nonzero"></path></clipPath><clipPath id="a85fc0f67e"><path d="M 187.5 11.542969 C 97.488281 11.542969 24.519531 84.507812 24.519531 174.519531 C 24.519531 264.53125 97.488281 337.5 187.5 337.5 C 277.511719 337.5 350.480469 264.53125 350.480469 174.519531 C 350.480469 84.507812 277.511719 11.542969 187.5 11.542969 Z M 187.5 11.542969 " clip-rule="nonzero"></path></clipPath><clipPath id="8f44974b27"><path d="M 109.878906 45.398438 L 256 45.398438 L 256 303.398438 L 109.878906 303.398438 Z M 109.878906 45.398438 " clip-rule="nonzero"></path></clipPath><clipPath id="daf23096e9"><path d="M 174 158 L 271.128906 158 L 271.128906 256 L 174 256 Z M 174 158 " clip-rule="nonzero"></path></clipPath></defs><g clip-path="url(#8706da413f)"><g clip-path="url(#a85fc0f67e)"><path fill="#477ce3" d="M 24.519531 11.542969 L 350.480469 11.542969 L 350.480469 337.5 L 24.519531 337.5 Z M 24.519531 11.542969 " fill-opacity="1" fill-rule="nonzero"></path></g></g><path fill="#ffffff" d="M 166.367188 287.492188 L 198.644531 287.492188 C 200.871094 287.492188 202.679688 285.683594 202.679688 283.457031 C 202.679688 281.226562 200.871094 279.421875 198.644531 279.421875 L 166.367188 279.421875 C 164.136719 279.421875 162.332031 281.226562 162.332031 283.457031 C 162.332031 285.683594 164.136719 287.492188 166.367188 287.492188 Z M 166.367188 287.492188 " fill-opacity="1" fill-rule="nonzero"></path><path fill="#ffffff" d="M 170.398438 65.578125 C 170.398438 65.84375 170.375 66.105469 170.324219 66.367188 C 170.269531 66.625 170.195312 66.878906 170.09375 67.121094 C 169.992188 67.367188 169.867188 67.601562 169.71875 67.820312 C 169.574219 68.039062 169.40625 68.242188 169.21875 68.429688 C 169.03125 68.617188 168.828125 68.785156 168.605469 68.933594 C 168.386719 69.082031 168.152344 69.203125 167.910156 69.304688 C 167.664062 69.40625 167.414062 69.484375 167.152344 69.535156 C 166.894531 69.585938 166.628906 69.613281 166.367188 69.613281 C 166.101562 69.613281 165.839844 69.585938 165.578125 69.535156 C 165.320312 69.484375 165.066406 69.40625 164.820312 69.304688 C 164.578125 69.203125 164.34375 69.082031 164.125 68.933594 C 163.902344 68.785156 163.699219 68.617188 163.511719 68.429688 C 163.324219 68.242188 163.15625 68.039062 163.011719 67.820312 C 162.863281 67.601562 162.738281 67.367188 162.636719 67.121094 C 162.535156 66.878906 162.460938 66.625 162.410156 66.367188 C 162.355469 66.105469 162.332031 65.84375 162.332031 65.578125 C 162.332031 65.3125 162.355469 65.050781 162.410156 64.792969 C 162.460938 64.53125 162.535156 64.277344 162.636719 64.035156 C 162.738281 63.789062 162.863281 63.558594 163.011719 63.335938 C 163.15625 63.117188 163.324219 62.914062 163.511719 62.726562 C 163.699219 62.539062 163.902344 62.371094 164.125 62.222656 C 164.34375 62.078125 164.578125 61.953125 164.820312 61.851562 C 165.066406 61.75 165.320312 61.671875 165.578125 61.621094 C 165.839844 61.570312 166.101562 61.542969 166.367188 61.542969 C 166.628906 61.542969 166.894531 61.570312 167.152344 61.621094 C 167.414062 61.671875 167.664062 61.75 167.910156 61.851562 C 168.152344 61.953125 168.386719 62.078125 168.605469 62.222656 C 168.828125 62.371094 169.03125 62.539062 169.21875 62.726562 C 169.40625 62.914062 169.574219 63.117188 169.71875 63.335938 C 169.867188 63.558594 169.992188 63.789062 170.09375 64.035156 C 170.195312 64.277344 170.269531 64.53125 170.324219 64.792969 C 170.375 65.050781 170.398438 65.3125 170.398438 65.578125 Z M 170.398438 65.578125 " fill-opacity="1" fill-rule="nonzero"></path><path fill="#ffffff" d="M 186.539062 65.578125 C 186.539062 65.84375 186.511719 66.105469 186.460938 66.367188 C 186.410156 66.625 186.332031 66.878906 186.230469 67.121094 C 186.128906 67.367188 186.007812 67.601562 185.859375 67.820312 C 185.710938 68.039062 185.542969 68.242188 185.359375 68.429688 C 185.171875 68.617188 184.964844 68.785156 184.746094 68.933594 C 184.527344 69.082031 184.292969 69.203125 184.046875 69.304688 C 183.804688 69.40625 183.550781 69.484375 183.292969 69.535156 C 183.03125 69.585938 182.769531 69.613281 182.503906 69.613281 C 182.238281 69.613281 181.976562 69.585938 181.71875 69.535156 C 181.457031 69.484375 181.207031 69.40625 180.960938 69.304688 C 180.714844 69.203125 180.484375 69.082031 180.261719 68.933594 C 180.042969 68.785156 179.839844 68.617188 179.652344 68.429688 C 179.464844 68.242188 179.296875 68.039062 179.148438 67.820312 C 179.003906 67.601562 178.878906 67.367188 178.777344 67.121094 C 178.675781 66.878906 178.597656 66.625 178.546875 66.367188 C 178.496094 66.105469 178.46875 65.84375 178.46875 65.578125 C 178.46875 65.3125 178.496094 65.050781 178.546875 64.792969 C 178.597656 64.53125 178.675781 64.277344 178.777344 64.035156 C 178.878906 63.789062 179.003906 63.558594 179.148438 63.335938 C 179.296875 63.117188 179.464844 62.914062 179.652344 62.726562 C 179.839844 62.539062 180.042969 62.371094 180.261719 62.222656 C 180.484375 62.078125 180.714844 61.953125 180.960938 61.851562 C 181.207031 61.75 181.457031 61.671875 181.71875 61.621094 C 181.976562 61.570312 182.238281 61.542969 182.503906 61.542969 C 182.769531 61.542969 183.03125 61.570312 183.292969 61.621094 C 183.550781 61.671875 183.804688 61.75 184.046875 61.851562 C 184.292969 61.953125 184.527344 62.078125 184.746094 62.222656 C 184.964844 62.371094 185.171875 62.539062 185.359375 62.726562 C 185.542969 62.914062 185.710938 63.117188 185.859375 63.335938 C 186.007812 63.558594 186.128906 63.789062 186.230469 64.035156 C 186.332031 64.277344 186.410156 64.53125 186.460938 64.792969 C 186.511719 65.050781 186.539062 65.3125 186.539062 65.578125 Z M 186.539062 65.578125 " fill-opacity="1" fill-rule="nonzero"></path><path fill="#ffffff" d="M 202.679688 65.578125 C 202.679688 65.84375 202.652344 66.105469 202.601562 66.367188 C 202.550781 66.625 202.472656 66.878906 202.371094 67.121094 C 202.269531 67.367188 202.144531 67.601562 202 67.820312 C 201.851562 68.039062 201.683594 68.242188 201.496094 68.429688 C 201.308594 68.617188 201.105469 68.785156 200.886719 68.933594 C 200.664062 69.082031 200.433594 69.203125 200.1875 69.304688 C 199.941406 69.40625 199.691406 69.484375 199.429688 69.535156 C 199.171875 69.585938 198.910156 69.613281 198.644531 69.613281 C 198.378906 69.613281 198.117188 69.585938 197.855469 69.535156 C 197.597656 69.484375 197.34375 69.40625 197.097656 69.304688 C 196.855469 69.203125 196.621094 69.082031 196.402344 68.933594 C 196.183594 68.785156 195.976562 68.617188 195.789062 68.429688 C 195.601562 68.242188 195.4375 68.039062 195.289062 67.820312 C 195.140625 67.601562 195.015625 67.367188 194.914062 67.121094 C 194.816406 66.878906 194.738281 66.625 194.6875 66.367188 C 194.632812 66.105469 194.609375 65.84375 194.609375 65.578125 C 194.609375 65.3125 194.632812 65.050781 194.6875 64.792969 C 194.738281 64.53125 194.816406 64.277344 194.914062 64.035156 C 195.015625 63.789062 195.140625 63.558594 195.289062 63.335938 C 195.4375 63.117188 195.601562 62.914062 195.789062 62.726562 C 195.976562 62.539062 196.183594 62.371094 196.402344 62.222656 C 196.621094 62.078125 196.855469 61.953125 197.097656 61.851562 C 197.34375 61.75 197.597656 61.671875 197.855469 61.621094 C 198.117188 61.570312 198.378906 61.542969 198.644531 61.542969 C 198.910156 61.542969 199.171875 61.570312 199.429688 61.621094 C 199.691406 61.671875 199.941406 61.75 200.1875 61.851562 C 200.433594 61.953125 200.664062 62.078125 200.886719 62.222656 C 201.105469 62.371094 201.308594 62.539062 201.496094 62.726562 C 201.683594 62.914062 201.851562 63.117188 202 63.335938 C 202.144531 63.558594 202.269531 63.789062 202.371094 64.035156 C 202.472656 64.277344 202.550781 64.53125 202.601562 64.792969 C 202.652344 65.050781 202.679688 65.3125 202.679688 65.578125 Z M 202.679688 65.578125 " fill-opacity="1" fill-rule="nonzero"></path><g clip-path="url(#8f44974b27)"><path fill="#ffffff" d="M 239.132812 45.40625 L 125.878906 45.40625 C 117.039062 45.40625 109.878906 52.628906 109.878906 61.542969 L 109.878906 287.492188 C 109.878906 296.402344 117.039062 303.628906 125.878906 303.628906 L 239.132812 303.628906 C 247.96875 303.628906 255.128906 296.402344 255.128906 287.492188 L 255.128906 263.28125 L 117.949219 263.28125 L 117.949219 85.753906 L 247.0625 85.753906 L 247.0625 150.308594 L 255.128906 150.308594 L 255.128906 61.542969 C 255.128906 52.628906 247.96875 45.40625 239.132812 45.40625 Z M 247.0625 271.351562 L 247.0625 287.492188 C 247.0625 291.941406 243.503906 295.558594 239.132812 295.558594 L 125.878906 295.558594 C 121.507812 295.558594 117.949219 291.941406 117.949219 287.492188 L 117.949219 271.351562 Z M 247.0625 77.683594 L 117.949219 77.683594 L 117.949219 61.542969 C 117.949219 57.09375 121.507812 53.472656 125.878906 53.472656 L 239.132812 53.472656 C 243.503906 53.472656 247.0625 57.09375 247.0625 61.542969 Z M 247.0625 77.683594 " fill-opacity="1" fill-rule="nonzero"></path></g><g clip-path="url(#daf23096e9)"><path fill="#ffffff" d="M 271.269531 174.515625 C 271.269531 165.605469 264.042969 158.378906 255.128906 158.378906 L 190.574219 158.378906 C 181.660156 158.378906 174.433594 165.605469 174.433594 174.515625 L 174.433594 239.074219 C 174.433594 247.984375 181.660156 255.210938 190.574219 255.210938 L 255.128906 255.210938 C 264.042969 255.210938 271.269531 247.984375 271.269531 239.074219 Z M 263.199219 239.074219 C 263.199219 243.523438 259.582031 247.144531 255.128906 247.144531 L 190.574219 247.144531 C 186.125 247.144531 182.503906 243.523438 182.503906 239.074219 L 182.503906 174.515625 C 182.503906 170.066406 186.125 166.449219 190.574219 166.449219 L 255.128906 166.449219 C 259.582031 166.449219 263.199219 170.066406 263.199219 174.515625 Z M 263.199219 239.074219 " fill-opacity="1" fill-rule="nonzero"></path></g><path fill="#ffffff" d="M 215.066406 150.308594 C 223.820312 150.308594 230.921875 143.207031 230.921875 134.453125 L 230.921875 109.675781 C 230.921875 100.921875 223.820312 93.820312 215.066406 93.820312 L 190.289062 93.820312 C 181.535156 93.820312 174.433594 100.921875 174.433594 109.675781 L 174.433594 134.453125 C 174.433594 143.207031 181.535156 150.308594 190.289062 150.308594 Z M 182.503906 134.453125 L 182.503906 109.675781 C 182.503906 105.382812 185.996094 101.890625 190.289062 101.890625 L 215.066406 101.890625 C 219.359375 101.890625 222.851562 105.382812 222.851562 109.675781 L 222.851562 134.453125 C 222.851562 138.746094 219.359375 142.238281 215.066406 142.238281 L 190.289062 142.238281 C 185.996094 142.238281 182.503906 138.746094 182.503906 134.453125 Z M 182.503906 134.453125 " fill-opacity="1" fill-rule="nonzero"></path><path fill="#ffffff" d="M 137.34375 158.378906 C 131.089844 158.378906 126.019531 163.449219 126.019531 169.703125 L 126.019531 187.398438 C 126.019531 193.65625 131.089844 198.726562 137.34375 198.726562 L 155.042969 198.726562 C 161.292969 198.726562 166.367188 193.65625 166.367188 187.398438 L 166.367188 169.703125 C 166.367188 163.449219 161.292969 158.378906 155.042969 158.378906 Z M 158.296875 169.703125 L 158.296875 187.398438 C 158.296875 189.195312 156.835938 190.65625 155.042969 190.65625 L 137.34375 190.65625 C 135.546875 190.65625 134.085938 189.195312 134.085938 187.398438 L 134.085938 169.703125 C 134.085938 167.910156 135.546875 166.449219 137.34375 166.449219 L 155.042969 166.449219 C 156.835938 166.449219 158.296875 167.910156 158.296875 169.703125 Z M 158.296875 169.703125 " fill-opacity="1" fill-rule="nonzero"></path><path fill="#ffffff" d="M 249.570312 186.921875 C 241.78125 190.105469 234.667969 195.316406 229.34375 199.496094 C 221.96875 205.292969 215.589844 211.773438 211.734375 215.949219 C 207.308594 208.097656 203.777344 203.609375 197.1875 198.132812 C 195.472656 196.710938 192.929688 196.945312 191.507812 198.660156 C 190.082031 200.371094 190.316406 202.917969 192.03125 204.339844 C 198.988281 210.121094 201.824219 214.316406 207.367188 224.816406 C 207.992188 226.007812 209.171875 226.804688 210.511719 226.949219 C 210.652344 226.960938 210.792969 226.96875 210.933594 226.96875 C 212.121094 226.96875 213.261719 226.441406 214.035156 225.515625 C 214.121094 225.410156 223.167969 214.609375 234.328125 205.84375 C 239.238281 201.984375 245.757812 197.199219 252.621094 194.390625 C 254.683594 193.546875 255.675781 191.191406 254.832031 189.128906 C 253.988281 187.070312 251.628906 186.085938 249.570312 186.921875 Z M 249.570312 186.921875 " fill-opacity="1" fill-rule="nonzero"></path></svg>