<svg xmlns="http://www.w3.org/2000/svg" xmlns:xlink="http://www.w3.org/1999/xlink" width="500" viewBox="0 0 375 374.999991" height="500" preserveAspectRatio="xMidYMid meet"><defs><filter x="0%" y="0%" width="100%" height="100%" id="160a890878"></filter><clipPath id="3f23dbcfc5"><path d="M 19 305 L 93 305 L 93 308.859375 L 19 308.859375 Z M 19 305 " clip-rule="nonzero"></path></clipPath><clipPath id="e1ba2ea8c8"><path d="M 300 305 L 374 305 L 374 308.859375 L 300 308.859375 Z M 300 305 " clip-rule="nonzero"></path></clipPath><mask id="3d2aa64dde"><g filter="url(#160a890878)"><rect x="-37.5" width="450" fill="#000000" y="-37.499999" height="449.999989" fill-opacity="0.8"></rect></g></mask><clipPath id="a20a866f21"><path d="M 0.640625 1 L 60.640625 1 L 60.640625 71.761719 L 0.640625 71.761719 Z M 0.640625 1 " clip-rule="nonzero"></path></clipPath><clipPath id="499ed6921c"><rect x="0" width="61" y="0" height="72"></rect></clipPath><clipPath id="7b0b039e9b"><path d="M 172 65.859375 L 195 65.859375 L 195 88 L 172 88 Z M 172 65.859375 " clip-rule="nonzero"></path></clipPath><mask id="a6815d766e"><g filter="url(#160a890878)"><rect x="-37.5" width="450" fill="#000000" y="-37.499999" height="449.999989" fill-opacity="0.8"></rect></g></mask><clipPath id="fdd891bbd4"><path d="M 1 0.859375 L 22 0.859375 L 22 22 L 1 22 Z M 1 0.859375 " clip-rule="nonzero"></path></clipPath><clipPath id="0b9c0edb49"><rect x="0" width="23" y="0" height="23"></rect></clipPath><mask id="8c55734ab7"><g filter="url(#160a890878)"><rect x="-37.5" width="450" fill="#000000" y="-37.499999" height="449.999989" fill-opacity="0.8"></rect></g></mask><clipPath id="1b25076c03"><rect x="0" width="22" y="0" height="23"></rect></clipPath><mask id="318cfbccbf"><g filter="url(#160a890878)"><rect x="-37.5" width="450" fill="#000000" y="-37.499999" height="449.999989" fill-opacity="0.8"></rect></g></mask><clipPath id="8483a35e16"><rect x="0" width="22" y="0" height="23"></rect></clipPath><clipPath id="431e672e18"><path d="M 167 255 L 203 255 L 203 308.859375 L 167 308.859375 Z M 167 255 " clip-rule="nonzero"></path></clipPath><clipPath id="c1386f2878"><path d="M 320 301 L 335 301 L 335 308.859375 L 320 308.859375 Z M 320 301 " clip-rule="nonzero"></path></clipPath></defs><path fill="#d4def9" d="M 353.6875 293.464844 C 353.6875 293.5625 353.625 293.660156 353.492188 293.761719 C 353.359375 293.859375 353.164062 293.960938 352.902344 294.058594 C 352.640625 294.15625 352.3125 294.253906 351.917969 294.351562 C 351.527344 294.453125 351.070312 294.550781 350.546875 294.648438 C 350.023438 294.742188 349.4375 294.839844 348.785156 294.9375 C 348.136719 295.035156 347.421875 295.128906 346.644531 295.222656 C 345.867188 295.320312 345.027344 295.414062 344.128906 295.507812 C 343.226562 295.601562 342.261719 295.691406 341.238281 295.785156 C 340.214844 295.875 339.128906 295.96875 337.984375 296.054688 C 336.839844 296.144531 335.636719 296.234375 334.375 296.324219 C 333.113281 296.410156 331.792969 296.496094 330.417969 296.582031 C 329.039062 296.667969 327.609375 296.75 326.121094 296.832031 C 324.632812 296.914062 323.09375 296.996094 321.5 297.078125 C 319.902344 297.15625 318.257812 297.234375 316.558594 297.3125 C 314.859375 297.386719 313.113281 297.460938 311.316406 297.535156 C 309.515625 297.609375 307.671875 297.683594 305.777344 297.75 C 303.886719 297.820312 301.945312 297.890625 299.964844 297.957031 C 297.980469 298.023438 295.953125 298.089844 293.882812 298.152344 C 291.816406 298.214844 289.703125 298.277344 287.554688 298.335938 C 285.402344 298.394531 283.214844 298.449219 280.992188 298.507812 C 278.765625 298.5625 276.503906 298.613281 274.207031 298.664062 C 271.910156 298.714844 269.582031 298.765625 267.222656 298.8125 C 264.859375 298.859375 262.46875 298.902344 260.050781 298.945312 C 257.628906 298.988281 255.183594 299.027344 252.710938 299.066406 C 250.238281 299.105469 247.738281 299.140625 245.21875 299.171875 C 242.699219 299.207031 240.15625 299.238281 237.59375 299.265625 C 235.035156 299.296875 232.453125 299.324219 229.855469 299.347656 C 227.261719 299.371094 224.648438 299.390625 222.023438 299.410156 C 219.398438 299.429688 216.761719 299.449219 214.113281 299.460938 C 211.464844 299.476562 208.808594 299.488281 206.144531 299.5 C 203.480469 299.507812 200.8125 299.515625 198.136719 299.519531 C 195.464844 299.527344 192.789062 299.527344 190.109375 299.527344 C 187.433594 299.527344 184.757812 299.527344 182.085938 299.519531 C 179.410156 299.515625 176.742188 299.507812 174.078125 299.5 C 171.414062 299.488281 168.757812 299.476562 166.109375 299.460938 C 163.460938 299.449219 160.824219 299.429688 158.199219 299.410156 C 155.574219 299.390625 152.960938 299.371094 150.363281 299.347656 C 147.769531 299.324219 145.1875 299.296875 142.625 299.265625 C 140.066406 299.238281 137.523438 299.207031 135.003906 299.171875 C 132.484375 299.140625 129.984375 299.105469 127.511719 299.066406 C 125.039062 299.027344 122.59375 298.988281 120.171875 298.945312 C 117.753906 298.902344 115.363281 298.859375 113 298.8125 C 110.640625 298.765625 108.3125 298.714844 106.015625 298.664062 C 103.71875 298.613281 101.457031 298.5625 99.230469 298.507812 C 97.007812 298.449219 94.816406 298.394531 92.667969 298.335938 C 90.515625 298.277344 88.40625 298.214844 86.339844 298.152344 C 84.269531 298.089844 82.242188 298.023438 80.257812 297.957031 C 78.273438 297.890625 76.335938 297.820312 74.445312 297.75 C 72.550781 297.683594 70.707031 297.609375 68.90625 297.535156 C 67.109375 297.460938 65.363281 297.386719 63.664062 297.3125 C 61.964844 297.234375 60.320312 297.15625 58.722656 297.078125 C 57.128906 296.996094 55.589844 296.914062 54.101562 296.832031 C 52.613281 296.75 51.183594 296.667969 49.804688 296.582031 C 48.429688 296.496094 47.109375 296.410156 45.847656 296.324219 C 44.585938 296.234375 43.382812 296.144531 42.238281 296.054688 C 41.09375 295.96875 40.007812 295.875 38.984375 295.785156 C 37.960938 295.691406 36.996094 295.601562 36.09375 295.507812 C 35.191406 295.414062 34.355469 295.320312 33.578125 295.222656 C 32.800781 295.128906 32.085938 295.035156 31.433594 294.9375 C 30.785156 294.839844 30.199219 294.742188 29.675781 294.648438 C 29.152344 294.550781 28.695312 294.453125 28.304688 294.351562 C 27.910156 294.253906 27.582031 294.15625 27.320312 294.058594 C 27.058594 293.960938 26.863281 293.859375 26.730469 293.761719 C 26.597656 293.660156 26.53125 293.5625 26.53125 293.464844 C 26.53125 293.363281 26.597656 293.265625 26.730469 293.164062 C 26.863281 293.066406 27.058594 292.96875 27.320312 292.871094 C 27.582031 292.769531 27.910156 292.671875 28.304688 292.574219 C 28.695312 292.476562 29.152344 292.378906 29.675781 292.28125 C 30.199219 292.183594 30.785156 292.085938 31.433594 291.988281 C 32.085938 291.894531 32.800781 291.796875 33.578125 291.703125 C 34.355469 291.609375 35.191406 291.515625 36.09375 291.421875 C 36.996094 291.328125 37.960938 291.234375 38.984375 291.144531 C 40.007812 291.050781 41.09375 290.960938 42.238281 290.871094 C 43.382812 290.78125 44.585938 290.691406 45.847656 290.605469 C 47.109375 290.515625 48.429688 290.429688 49.804688 290.34375 C 51.183594 290.261719 52.613281 290.175781 54.101562 290.09375 C 55.589844 290.011719 57.128906 289.929688 58.722656 289.851562 C 60.320312 289.769531 61.964844 289.691406 63.664062 289.617188 C 65.363281 289.539062 67.109375 289.464844 68.90625 289.390625 C 70.707031 289.316406 72.550781 289.246094 74.445312 289.175781 C 76.335938 289.105469 78.273438 289.035156 80.257812 288.96875 C 82.242188 288.902344 84.269531 288.839844 86.339844 288.777344 C 88.40625 288.710938 90.515625 288.652344 92.667969 288.59375 C 94.816406 288.535156 97.007812 288.476562 99.230469 288.421875 C 101.457031 288.367188 103.71875 288.3125 106.015625 288.261719 C 108.3125 288.210938 110.640625 288.160156 113 288.113281 C 115.363281 288.066406 117.753906 288.023438 120.171875 287.980469 C 122.59375 287.9375 125.039062 287.898438 127.511719 287.859375 C 129.984375 287.824219 132.484375 287.785156 135.003906 287.753906 C 137.523438 287.71875 140.066406 287.6875 142.625 287.660156 C 145.1875 287.632812 147.769531 287.605469 150.363281 287.582031 C 152.960938 287.554688 155.574219 287.535156 158.199219 287.515625 C 160.824219 287.496094 163.460938 287.480469 166.109375 287.464844 C 168.757812 287.449219 171.414062 287.4375 174.078125 287.429688 C 176.742188 287.417969 179.410156 287.410156 182.085938 287.40625 C 184.757812 287.402344 187.433594 287.398438 190.109375 287.398438 C 192.789062 287.398438 195.464844 287.402344 198.136719 287.40625 C 200.8125 287.410156 203.480469 287.417969 206.144531 287.429688 C 208.808594 287.4375 211.464844 287.449219 214.113281 287.464844 C 216.761719 287.480469 219.398438 287.496094 222.023438 287.515625 C 224.648438 287.535156 227.261719 287.554688 229.855469 287.582031 C 232.453125 287.605469 235.035156 287.632812 237.59375 287.660156 C 240.15625 287.6875 242.699219 287.71875 245.21875 287.753906 C 247.738281 287.785156 250.238281 287.824219 252.710938 287.859375 C 255.183594 287.898438 257.628906 287.9375 260.050781 287.980469 C 262.46875 288.023438 264.859375 288.066406 267.222656 288.113281 C 269.582031 288.160156 271.910156 288.210938 274.207031 288.261719 C 276.503906 288.3125 278.765625 288.367188 280.992188 288.421875 C 283.214844 288.476562 285.40625 288.53125 287.554688 288.59375 C 289.703125 288.652344 291.816406 288.710938 293.882812 288.777344 C 295.953125 288.839844 297.980469 288.902344 299.964844 288.96875 C 301.945312 289.035156 303.886719 289.105469 305.777344 289.175781 C 307.671875 289.246094 309.515625 289.316406 311.316406 289.390625 C 313.113281 289.464844 314.859375 289.539062 316.558594 289.617188 C 318.257812 289.691406 319.902344 289.769531 321.5 289.851562 C 323.09375 289.929688 324.632812 290.011719 326.121094 290.09375 C 327.609375 290.175781 329.039062 290.261719 330.417969 290.34375 C 331.792969 290.429688 333.113281 290.515625 334.375 290.605469 C 335.636719 290.691406 336.839844 290.78125 337.984375 290.871094 C 339.128906 290.960938 340.214844 291.050781 341.238281 291.144531 C 342.261719 291.234375 343.226562 291.328125 344.128906 291.421875 C 345.027344 291.515625 345.867188 291.609375 346.644531 291.703125 C 347.421875 291.796875 348.136719 291.894531 348.785156 291.988281 C 349.4375 292.085938 350.023438 292.183594 350.546875 292.28125 C 351.070312 292.378906 351.527344 292.476562 351.917969 292.574219 C 352.3125 292.671875 352.640625 292.769531 352.902344 292.871094 C 353.164062 292.96875 353.359375 293.066406 353.492188 293.164062 C 353.625 293.265625 353.6875 293.363281 353.6875 293.464844 Z M 353.6875 293.464844 " fill-opacity="1" fill-rule="nonzero"></path><g clip-path="url(#3f23dbcfc5)"><path fill="#d4def9" d="M 92.402344 307.109375 C 92.402344 307.175781 92.34375 307.242188 92.226562 307.308594 C 92.109375 307.375 91.933594 307.4375 91.699219 307.503906 C 91.464844 307.570312 91.175781 307.632812 90.828125 307.695312 C 90.480469 307.757812 90.078125 307.820312 89.621094 307.882812 C 89.160156 307.945312 88.648438 308.003906 88.085938 308.0625 C 87.519531 308.121094 86.90625 308.175781 86.242188 308.230469 C 85.578125 308.289062 84.863281 308.339844 84.105469 308.390625 C 83.34375 308.441406 82.542969 308.492188 81.695312 308.539062 C 80.847656 308.585938 79.960938 308.628906 79.035156 308.671875 C 78.113281 308.714844 77.152344 308.753906 76.15625 308.789062 C 75.160156 308.828125 74.132812 308.859375 73.078125 308.890625 C 72.023438 308.921875 70.941406 308.953125 69.835938 308.976562 C 68.730469 309.003906 67.601562 309.023438 66.457031 309.042969 C 65.3125 309.0625 64.152344 309.078125 62.976562 309.09375 C 61.804688 309.105469 60.621094 309.113281 59.429688 309.121094 C 58.238281 309.128906 57.042969 309.128906 55.84375 309.128906 C 54.648438 309.128906 53.453125 309.128906 52.261719 309.121094 C 51.070312 309.113281 49.886719 309.105469 48.714844 309.09375 C 47.539062 309.078125 46.378906 309.0625 45.234375 309.042969 C 44.089844 309.023438 42.960938 309.003906 41.855469 308.976562 C 40.75 308.953125 39.667969 308.921875 38.613281 308.890625 C 37.558594 308.859375 36.53125 308.828125 35.535156 308.789062 C 34.539062 308.753906 33.578125 308.714844 32.65625 308.671875 C 31.730469 308.628906 30.84375 308.585938 29.996094 308.539062 C 29.148438 308.492188 28.347656 308.441406 27.585938 308.390625 C 26.828125 308.339844 26.113281 308.289062 25.449219 308.230469 C 24.785156 308.175781 24.171875 308.121094 23.605469 308.0625 C 23.042969 308.003906 22.53125 307.945312 22.070312 307.882812 C 21.613281 307.820312 21.210938 307.757812 20.863281 307.695312 C 20.515625 307.632812 20.226562 307.570312 19.992188 307.503906 C 19.757812 307.4375 19.582031 307.375 19.464844 307.308594 C 19.347656 307.242188 19.289062 307.175781 19.289062 307.109375 C 19.289062 307.042969 19.347656 306.976562 19.464844 306.910156 C 19.582031 306.84375 19.757812 306.78125 19.992188 306.714844 C 20.226562 306.648438 20.515625 306.585938 20.863281 306.523438 C 21.210938 306.457031 21.613281 306.398438 22.070312 306.335938 C 22.53125 306.273438 23.042969 306.214844 23.605469 306.15625 C 24.171875 306.097656 24.785156 306.042969 25.449219 305.984375 C 26.113281 305.929688 26.828125 305.878906 27.585938 305.828125 C 28.347656 305.777344 29.148438 305.726562 29.996094 305.679688 C 30.84375 305.632812 31.730469 305.589844 32.65625 305.546875 C 33.578125 305.503906 34.539062 305.464844 35.535156 305.429688 C 36.53125 305.390625 37.558594 305.359375 38.613281 305.328125 C 39.667969 305.296875 40.75 305.265625 41.855469 305.242188 C 42.960938 305.214844 44.089844 305.195312 45.234375 305.175781 C 46.378906 305.15625 47.539062 305.140625 48.714844 305.125 C 49.886719 305.113281 51.070312 305.105469 52.261719 305.097656 C 53.453125 305.089844 54.648438 305.085938 55.84375 305.085938 C 57.042969 305.085938 58.238281 305.089844 59.429688 305.097656 C 60.621094 305.105469 61.804688 305.113281 62.976562 305.125 C 64.152344 305.140625 65.3125 305.15625 66.457031 305.175781 C 67.601562 305.195312 68.730469 305.214844 69.835938 305.242188 C 70.941406 305.265625 72.023438 305.296875 73.078125 305.328125 C 74.132812 305.359375 75.160156 305.390625 76.15625 305.429688 C 77.152344 305.464844 78.113281 305.503906 79.035156 305.546875 C 79.960938 305.589844 80.847656 305.632812 81.695312 305.679688 C 82.542969 305.726562 83.34375 305.777344 84.105469 305.828125 C 84.863281 305.878906 85.578125 305.929688 86.242188 305.984375 C 86.90625 306.042969 87.519531 306.097656 88.085938 306.15625 C 88.648438 306.214844 89.160156 306.273438 89.621094 306.335938 C 90.078125 306.398438 90.480469 306.457031 90.828125 306.523438 C 91.175781 306.585938 91.464844 306.648438 91.699219 306.714844 C 91.933594 306.78125 92.109375 306.84375 92.226562 306.910156 C 92.34375 306.976562 92.402344 307.042969 92.402344 307.109375 Z M 92.402344 307.109375 " fill-opacity="1" fill-rule="nonzero"></path></g><g clip-path="url(#e1ba2ea8c8)"><path fill="#d4def9" d="M 373.738281 307.109375 C 373.738281 307.175781 373.679688 307.242188 373.558594 307.308594 C 373.441406 307.375 373.269531 307.4375 373.035156 307.503906 C 372.800781 307.570312 372.511719 307.632812 372.164062 307.695312 C 371.816406 307.757812 371.410156 307.820312 370.953125 307.882812 C 370.496094 307.945312 369.984375 308.003906 369.421875 308.0625 C 368.855469 308.121094 368.242188 308.175781 367.574219 308.230469 C 366.910156 308.289062 366.199219 308.339844 365.4375 308.390625 C 364.679688 308.441406 363.875 308.492188 363.03125 308.539062 C 362.183594 308.585938 361.296875 308.628906 360.371094 308.671875 C 359.445312 308.714844 358.484375 308.753906 357.488281 308.789062 C 356.492188 308.828125 355.46875 308.859375 354.414062 308.890625 C 353.355469 308.921875 352.277344 308.953125 351.167969 308.976562 C 350.0625 309.003906 348.9375 309.023438 347.792969 309.042969 C 346.644531 309.0625 345.484375 309.078125 344.3125 309.09375 C 343.136719 309.105469 341.953125 309.113281 340.761719 309.121094 C 339.570312 309.128906 338.378906 309.128906 337.179688 309.128906 C 335.984375 309.128906 334.789062 309.128906 333.597656 309.121094 C 332.40625 309.113281 331.222656 309.105469 330.046875 309.09375 C 328.875 309.078125 327.714844 309.0625 326.566406 309.042969 C 325.421875 309.023438 324.296875 309.003906 323.191406 308.976562 C 322.085938 308.953125 321.003906 308.921875 319.945312 308.890625 C 318.890625 308.859375 317.867188 308.828125 316.871094 308.789062 C 315.875 308.753906 314.914062 308.714844 313.988281 308.671875 C 313.0625 308.628906 312.175781 308.585938 311.332031 308.539062 C 310.484375 308.492188 309.679688 308.441406 308.921875 308.390625 C 308.160156 308.339844 307.449219 308.289062 306.785156 308.230469 C 306.117188 308.175781 305.503906 308.121094 304.941406 308.0625 C 304.375 308.003906 303.863281 307.945312 303.40625 307.882812 C 302.949219 307.820312 302.546875 307.757812 302.199219 307.695312 C 301.851562 307.632812 301.558594 307.570312 301.324219 307.503906 C 301.09375 307.4375 300.917969 307.375 300.800781 307.308594 C 300.683594 307.242188 300.625 307.175781 300.625 307.109375 C 300.625 307.042969 300.683594 306.976562 300.800781 306.910156 C 300.917969 306.84375 301.09375 306.78125 301.324219 306.714844 C 301.558594 306.648438 301.851562 306.585938 302.199219 306.523438 C 302.546875 306.457031 302.949219 306.398438 303.40625 306.335938 C 303.863281 306.273438 304.375 306.214844 304.941406 306.15625 C 305.503906 306.097656 306.117188 306.042969 306.785156 305.984375 C 307.449219 305.929688 308.160156 305.878906 308.921875 305.828125 C 309.679688 305.777344 310.484375 305.726562 311.332031 305.679688 C 312.175781 305.632812 313.0625 305.589844 313.988281 305.546875 C 314.914062 305.503906 315.875 305.464844 316.871094 305.429688 C 317.867188 305.390625 318.890625 305.359375 319.945312 305.328125 C 321.003906 305.296875 322.085938 305.265625 323.191406 305.242188 C 324.296875 305.214844 325.421875 305.195312 326.566406 305.175781 C 327.714844 305.15625 328.875 305.140625 330.046875 305.125 C 331.222656 305.113281 332.40625 305.105469 333.597656 305.097656 C 334.789062 305.089844 335.984375 305.085938 337.179688 305.085938 C 338.378906 305.085938 339.570312 305.089844 340.761719 305.097656 C 341.953125 305.105469 343.136719 305.113281 344.3125 305.125 C 345.484375 305.140625 346.644531 305.15625 347.792969 305.175781 C 348.9375 305.195312 350.0625 305.214844 351.167969 305.242188 C 352.277344 305.265625 353.355469 305.296875 354.414062 305.328125 C 355.46875 305.359375 356.492188 305.390625 357.488281 305.429688 C 358.484375 305.464844 359.445312 305.503906 360.371094 305.546875 C 361.296875 305.589844 362.183594 305.632812 363.03125 305.679688 C 363.875 305.726562 364.679688 305.777344 365.4375 305.828125 C 366.199219 305.878906 366.910156 305.929688 367.574219 305.984375 C 368.242188 306.042969 368.855469 306.097656 369.421875 306.15625 C 369.984375 306.214844 370.496094 306.273438 370.953125 306.335938 C 371.410156 306.398438 371.816406 306.457031 372.164062 306.523438 C 372.511719 306.585938 372.800781 306.648438 373.035156 306.714844 C 373.269531 306.78125 373.441406 306.84375 373.558594 306.910156 C 373.679688 306.976562 373.738281 307.042969 373.738281 307.109375 Z M 373.738281 307.109375 " fill-opacity="1" fill-rule="nonzero"></path></g><g mask="url(#3d2aa64dde)"><g transform="matrix(1, 0, 0, 1, 122, 72)"><g clip-path="url(#499ed6921c)"><g clip-path="url(#a20a866f21)"><path fill="#d4def9" d="M 38.628906 9.875 C 44.527344 12.570312 37.871094 28.320312 42.589844 35.5625 C 47.304688 42.808594 49.496094 26.128906 55.644531 31.941406 C 59.183594 35.3125 61.625 45.417969 59.183594 55.105469 C 56.320312 66.5625 44.609375 73.550781 33.070312 71.109375 C 21.195312 68.582031 0.136719 60.582031 0.894531 51.566406 C 1.566406 43.902344 18.078125 52.324219 19.761719 41.628906 C 21.027344 33.878906 4.261719 39.015625 3.925781 31.605469 C 3.503906 23.433594 17.402344 28.320312 15.632812 20.90625 C 13.867188 13.496094 2.324219 7.347656 7.546875 2.964844 C 12.769531 -1.414062 19.089844 6.839844 22.878906 12.398438 C 26.753906 17.960938 27.511719 19.898438 29.113281 18.550781 C 30.878906 17.117188 32.734375 7.179688 38.628906 9.875 " fill-opacity="1" fill-rule="nonzero"></path></g></g></g></g><path fill="#ffffff" d="M 174.527344 110.679688 L 166.527344 129.800781 L 154.648438 110.429688 L 157.429688 93.75 L 153.640625 108.828125 L 139.824219 86.253906 L 147.320312 99.816406 L 136.875 101.414062 L 147.996094 101.078125 L 159.367188 121.882812 L 137.382812 126.179688 L 160.039062 123.0625 L 167.453125 136.707031 L 169.894531 135.359375 L 167.367188 131.234375 Z M 174.527344 110.679688 " fill-opacity="1" fill-rule="nonzero"></path><path fill="#477ce3" d="M 127.609375 103.859375 C 124.324219 101.667969 121.882812 101.164062 121.460938 101.078125 C 119.523438 98.636719 114.050781 92.234375 111.859375 95.351562 C 109.667969 98.46875 117.925781 100.992188 120.957031 101.753906 C 121.042969 101.835938 121.125 101.921875 121.210938 101.921875 C 121.210938 101.921875 123.652344 102.257812 127.191406 104.617188 C 124.074219 103.941406 115.988281 102.679688 116.324219 106.386719 C 116.660156 110.511719 126.011719 106.132812 128.03125 105.207031 C 129.296875 106.132812 130.644531 107.3125 132.074219 108.742188 C 132.582031 109.25 133.003906 109.753906 133.507812 110.34375 C 130.558594 109.753906 121.96875 108.40625 122.390625 112.195312 C 122.808594 116.324219 131.824219 111.945312 134.011719 110.847656 C 135.699219 112.871094 137.464844 115.398438 139.234375 118.515625 C 136.625 118.007812 127.441406 116.324219 127.78125 120.367188 C 128.199219 124.496094 137.464844 120.03125 139.488281 119.019531 C 140.667969 121.210938 141.929688 123.738281 143.109375 126.601562 C 140.582031 125.84375 131.570312 123.230469 131.570312 127.273438 C 131.570312 131.402344 141.257812 127.863281 143.363281 127.105469 C 144.289062 129.378906 145.214844 131.824219 146.058594 134.519531 C 143.785156 133.675781 134.519531 130.476562 134.351562 134.519531 C 134.097656 138.730469 144.289062 135.527344 146.226562 134.855469 C 146.984375 137.296875 147.742188 139.910156 148.417969 142.6875 C 146.140625 141.847656 136.875 138.644531 136.707031 142.6875 C 136.457031 146.898438 146.480469 143.699219 148.5 143.027344 C 148.921875 144.878906 149.34375 146.730469 149.765625 148.753906 C 149.847656 149.007812 150.015625 149.089844 150.183594 149.089844 C 150.183594 149.089844 150.269531 149.089844 150.269531 149.089844 C 150.523438 149.007812 150.691406 148.835938 150.605469 148.585938 C 150.183594 146.5625 149.765625 144.625 149.34375 142.855469 C 150.945312 141.761719 159.535156 135.613281 156.164062 133.003906 C 152.878906 130.558594 149.933594 139.910156 149.257812 142.351562 C 148.585938 139.488281 147.828125 136.792969 146.984375 134.351562 C 149.175781 132.832031 156.671875 127.191406 153.46875 124.746094 C 150.4375 122.472656 147.660156 130.390625 146.730469 133.507812 C 145.972656 131.066406 145.132812 128.875 144.289062 126.769531 C 145.636719 124.914062 151.195312 116.578125 147.238281 115.398438 C 143.699219 114.300781 143.699219 122.472656 143.867188 125.757812 C 142.773438 123.0625 141.59375 120.703125 140.414062 118.597656 C 141.507812 116.492188 145.722656 107.5625 141.59375 106.890625 C 137.972656 106.300781 139.066406 114.132812 139.742188 117.503906 C 138.054688 114.640625 136.371094 112.28125 134.855469 110.34375 C 135.445312 107.902344 137.296875 98.46875 133.253906 98.804688 C 129.71875 99.140625 132.328125 105.796875 133.761719 109.082031 C 133.421875 108.742188 133.171875 108.40625 132.832031 108.070312 C 131.402344 106.636719 130.054688 105.457031 128.875 104.53125 C 128.875 102.257812 128.621094 92.234375 124.664062 93.496094 C 120.871094 94.675781 125.503906 101.164062 127.609375 103.859375 Z M 127.609375 103.859375 " fill-opacity="1" fill-rule="nonzero"></path><path fill="#d4def9" d="M 335.410156 117.25 L 331.875 117.25 C 331.285156 114.472656 330.1875 111.945312 328.757812 109.585938 L 331.367188 106.972656 C 332.292969 106.046875 332.292969 104.53125 331.367188 103.605469 L 325.640625 97.878906 C 324.714844 96.949219 323.199219 96.949219 322.269531 97.878906 L 319.742188 100.40625 C 317.386719 98.972656 314.859375 97.792969 312.078125 97.121094 L 312.078125 93.414062 C 312.078125 92.148438 310.984375 91.054688 309.71875 91.054688 L 301.632812 91.054688 C 300.371094 91.054688 299.277344 92.148438 299.277344 93.414062 L 299.277344 96.949219 C 296.496094 97.539062 293.96875 98.636719 291.609375 100.066406 L 289 97.457031 C 288.074219 96.53125 286.554688 96.53125 285.628906 97.457031 L 279.902344 103.183594 C 278.976562 104.109375 278.976562 105.625 279.902344 106.554688 L 282.429688 109.082031 C 280.996094 111.4375 279.816406 113.964844 279.144531 116.660156 L 275.4375 116.660156 C 274.175781 116.660156 273.078125 117.757812 273.078125 119.019531 L 273.078125 127.105469 C 273.078125 128.371094 274.175781 129.464844 275.4375 129.464844 L 278.976562 129.464844 C 279.566406 132.242188 280.660156 134.769531 282.09375 137.128906 L 279.480469 139.742188 C 278.554688 140.667969 278.554688 142.183594 279.480469 143.109375 L 285.207031 148.835938 C 286.136719 149.765625 287.652344 149.765625 288.578125 148.835938 L 291.105469 146.3125 C 293.464844 147.742188 295.992188 148.921875 298.769531 149.597656 L 298.769531 153.300781 C 298.769531 154.566406 299.863281 155.660156 301.128906 155.660156 L 309.214844 155.660156 C 310.476562 155.660156 311.574219 154.566406 311.574219 153.300781 L 311.574219 149.59375 C 314.351562 149.007812 316.878906 147.910156 319.238281 146.480469 L 321.851562 149.089844 C 322.777344 150.015625 324.292969 150.015625 325.21875 149.089844 L 330.945312 143.363281 C 331.875 142.4375 331.875 140.917969 330.945312 139.992188 L 328.417969 137.464844 C 329.851562 135.109375 331.03125 132.582031 331.703125 129.800781 L 335.410156 129.800781 C 336.675781 129.800781 337.769531 128.707031 337.769531 127.441406 L 337.769531 119.355469 C 337.769531 118.261719 336.675781 117.25 335.410156 117.25 Z M 305.59375 138.308594 C 297.339844 138.308594 290.601562 131.570312 290.601562 123.316406 C 290.601562 114.722656 297.84375 107.816406 306.605469 108.320312 C 314.101562 108.828125 320.082031 114.890625 320.585938 122.390625 C 321.007812 131.066406 314.101562 138.308594 305.59375 138.308594 Z M 305.59375 138.308594 " fill-opacity="1" fill-rule="nonzero"></path><path fill="#477ce3" d="M 330.527344 280.238281 L 47.339844 280.238281 L 70.332031 271.816406 L 307.53125 271.816406 Z M 330.527344 280.238281 " fill-opacity="1" fill-rule="nonzero"></path><path fill="#477ce3" d="M 310.308594 127.441406 L 310.308594 269.710938 C 310.308594 271.5625 308.625 273.078125 306.519531 273.078125 L 71.34375 273.078125 C 69.238281 273.078125 67.554688 271.5625 67.554688 269.710938 L 67.554688 127.441406 C 67.554688 125.589844 69.238281 124.074219 71.34375 124.074219 L 306.519531 124.074219 C 308.625 124.074219 310.308594 125.589844 310.308594 127.441406 Z M 310.308594 127.441406 " fill-opacity="1" fill-rule="nonzero"></path><path fill="#ffffff" d="M 303.066406 264.992188 L 74.882812 264.992188 L 74.882812 132.160156 L 303.148438 132.160156 L 303.148438 264.992188 Z M 303.066406 264.992188 " fill-opacity="1" fill-rule="nonzero"></path><path fill="#477ce3" d="M 320.753906 292.535156 L 57.109375 292.535156 C 51.128906 292.535156 46.328125 287.734375 46.328125 281.753906 C 46.328125 280.660156 47.167969 279.816406 48.265625 279.816406 L 329.683594 279.816406 C 330.777344 279.816406 331.621094 280.660156 331.621094 281.753906 C 331.535156 287.652344 326.734375 292.535156 320.753906 292.535156 Z M 320.753906 292.535156 " fill-opacity="1" fill-rule="nonzero"></path><g clip-path="url(#7b0b039e9b)"><g mask="url(#a6815d766e)"><g transform="matrix(1, 0, 0, 1, 172, 65)"><g clip-path="url(#0b9c0edb49)"><g clip-path="url(#fdd891bbd4)"><path fill="#d4def9" d="M 21.902344 11.3125 C 21.902344 12 21.835938 12.679688 21.699219 13.351562 C 21.566406 14.023438 21.367188 14.675781 21.105469 15.3125 C 20.84375 15.945312 20.523438 16.546875 20.140625 17.117188 C 19.761719 17.6875 19.328125 18.214844 18.84375 18.699219 C 18.359375 19.183594 17.828125 19.617188 17.257812 20 C 16.6875 20.378906 16.085938 20.703125 15.453125 20.964844 C 14.820312 21.226562 14.167969 21.425781 13.496094 21.558594 C 12.820312 21.691406 12.144531 21.757812 11.457031 21.757812 C 10.769531 21.757812 10.09375 21.691406 9.417969 21.558594 C 8.746094 21.425781 8.09375 21.226562 7.460938 20.964844 C 6.828125 20.703125 6.222656 20.378906 5.652344 20 C 5.082031 19.617188 4.554688 19.183594 4.070312 18.699219 C 3.585938 18.214844 3.152344 17.6875 2.773438 17.117188 C 2.390625 16.546875 2.070312 15.945312 1.808594 15.3125 C 1.542969 14.675781 1.347656 14.023438 1.210938 13.351562 C 1.078125 12.679688 1.011719 12 1.011719 11.3125 C 1.011719 10.628906 1.078125 9.949219 1.210938 9.277344 C 1.347656 8.605469 1.542969 7.949219 1.808594 7.316406 C 2.070312 6.683594 2.390625 6.082031 2.773438 5.511719 C 3.152344 4.941406 3.585938 4.414062 4.070312 3.929688 C 4.554688 3.445312 5.082031 3.011719 5.652344 2.628906 C 6.222656 2.25 6.828125 1.925781 7.460938 1.664062 C 8.09375 1.402344 8.746094 1.203125 9.417969 1.070312 C 10.09375 0.9375 10.769531 0.871094 11.457031 0.871094 C 12.144531 0.871094 12.820312 0.9375 13.496094 1.070312 C 14.167969 1.203125 14.820312 1.402344 15.453125 1.664062 C 16.085938 1.925781 16.6875 2.25 17.257812 2.628906 C 17.828125 3.011719 18.359375 3.445312 18.84375 3.929688 C 19.328125 4.414062 19.761719 4.941406 20.140625 5.511719 C 20.523438 6.082031 20.84375 6.683594 21.105469 7.316406 C 21.367188 7.949219 21.566406 8.605469 21.699219 9.277344 C 21.835938 9.949219 21.902344 10.628906 21.902344 11.3125 Z M 21.902344 11.3125 " fill-opacity="1" fill-rule="nonzero"></path></g></g></g></g></g><path fill="#ffffff" d="M 189.183594 76.3125 L 180.59375 71.429688 L 180.59375 81.285156 Z M 189.183594 76.3125 " fill-opacity="1" fill-rule="nonzero"></path><g mask="url(#8c55734ab7)"><g transform="matrix(1, 0, 0, 1, 0, 160)"><g clip-path="url(#1b25076c03)"><path fill="#d4def9" d="M 20.890625 11.496094 C 20.890625 12.183594 20.824219 12.859375 20.6875 13.535156 C 20.554688 14.207031 20.355469 14.859375 20.09375 15.492188 C 19.832031 16.125 19.511719 16.726562 19.128906 17.296875 C 18.75 17.867188 18.316406 18.398438 17.832031 18.882812 C 17.34375 19.367188 16.816406 19.800781 16.246094 20.179688 C 15.675781 20.5625 15.074219 20.882812 14.441406 21.144531 C 13.808594 21.40625 13.15625 21.605469 12.480469 21.738281 C 11.808594 21.875 11.128906 21.941406 10.445312 21.941406 C 9.757812 21.941406 9.078125 21.875 8.40625 21.738281 C 7.734375 21.605469 7.082031 21.40625 6.449219 21.144531 C 5.8125 20.882812 5.210938 20.5625 4.640625 20.179688 C 4.070312 19.800781 3.542969 19.367188 3.058594 18.882812 C 2.574219 18.398438 2.140625 17.867188 1.761719 17.296875 C 1.378906 16.726562 1.058594 16.125 0.796875 15.492188 C 0.53125 14.859375 0.335938 14.207031 0.199219 13.535156 C 0.0664062 12.859375 0 12.183594 0 11.496094 C 0 10.808594 0.0664062 10.132812 0.199219 9.457031 C 0.335938 8.785156 0.53125 8.132812 0.796875 7.5 C 1.058594 6.867188 1.378906 6.261719 1.761719 5.691406 C 2.140625 5.121094 2.574219 4.59375 3.058594 4.109375 C 3.542969 3.625 4.070312 3.191406 4.640625 2.8125 C 5.210938 2.429688 5.8125 2.109375 6.449219 1.847656 C 7.082031 1.582031 7.734375 1.386719 8.40625 1.25 C 9.078125 1.117188 9.757812 1.050781 10.445312 1.050781 C 11.128906 1.050781 11.808594 1.117188 12.480469 1.25 C 13.15625 1.386719 13.808594 1.582031 14.441406 1.847656 C 15.074219 2.109375 15.675781 2.429688 16.246094 2.8125 C 16.816406 3.191406 17.34375 3.625 17.832031 4.109375 C 18.316406 4.59375 18.75 5.121094 19.128906 5.691406 C 19.511719 6.261719 19.832031 6.867188 20.09375 7.5 C 20.355469 8.132812 20.554688 8.785156 20.6875 9.457031 C 20.824219 10.132812 20.890625 10.808594 20.890625 11.496094 Z M 20.890625 11.496094 " fill-opacity="1" fill-rule="nonzero"></path></g></g></g><path fill="#ffffff" d="M 16.171875 171.496094 L 7.582031 166.527344 L 7.582031 176.382812 Z M 16.171875 171.496094 " fill-opacity="1" fill-rule="nonzero"></path><g mask="url(#318cfbccbf)"><g transform="matrix(1, 0, 0, 1, 353, 212)"><g clip-path="url(#8483a35e16)"><path fill="#d4def9" d="M 22 11.550781 C 22 12.238281 21.933594 12.917969 21.800781 13.589844 C 21.664062 14.261719 21.46875 14.914062 21.203125 15.546875 C 20.941406 16.183594 20.621094 16.785156 20.238281 17.355469 C 19.859375 17.925781 19.425781 18.453125 18.941406 18.9375 C 18.457031 19.421875 17.929688 19.855469 17.359375 20.234375 C 16.789062 20.617188 16.1875 20.9375 15.550781 21.199219 C 14.917969 21.464844 14.265625 21.660156 13.59375 21.796875 C 12.921875 21.929688 12.242188 21.996094 11.554688 21.996094 C 10.871094 21.996094 10.191406 21.929688 9.515625 21.796875 C 8.84375 21.660156 8.191406 21.464844 7.558594 21.199219 C 6.925781 20.9375 6.324219 20.617188 5.753906 20.234375 C 5.183594 19.855469 4.65625 19.421875 4.167969 18.9375 C 3.683594 18.453125 3.25 17.925781 2.871094 17.355469 C 2.488281 16.785156 2.167969 16.183594 1.90625 15.546875 C 1.644531 14.914062 1.445312 14.261719 1.3125 13.589844 C 1.175781 12.917969 1.109375 12.238281 1.109375 11.550781 C 1.109375 10.867188 1.175781 10.1875 1.3125 9.511719 C 1.445312 8.839844 1.644531 8.1875 1.90625 7.554688 C 2.167969 6.921875 2.488281 6.320312 2.871094 5.75 C 3.25 5.179688 3.683594 4.652344 4.167969 4.164062 C 4.65625 3.679688 5.183594 3.246094 5.753906 2.867188 C 6.324219 2.484375 6.925781 2.164062 7.558594 1.902344 C 8.191406 1.640625 8.84375 1.441406 9.515625 1.308594 C 10.191406 1.171875 10.871094 1.105469 11.554688 1.105469 C 12.242188 1.105469 12.921875 1.171875 13.59375 1.308594 C 14.265625 1.441406 14.917969 1.640625 15.550781 1.902344 C 16.1875 2.164062 16.789062 2.484375 17.359375 2.867188 C 17.929688 3.246094 18.457031 3.679688 18.941406 4.164062 C 19.425781 4.652344 19.859375 5.179688 20.238281 5.75 C 20.621094 6.320312 20.941406 6.921875 21.203125 7.554688 C 21.46875 8.1875 21.664062 8.839844 21.800781 9.511719 C 21.933594 10.1875 22 10.867188 22 11.550781 Z M 22 11.550781 " fill-opacity="1" fill-rule="nonzero"></path></g></g></g><path fill="#ffffff" d="M 370.199219 223.550781 L 361.691406 218.664062 L 361.691406 228.519531 Z M 370.199219 223.550781 " fill-opacity="1" fill-rule="nonzero"></path><path fill="#477ce3" d="M 290.601562 146.816406 L 290.601562 201.230469 C 290.601562 202.410156 289.757812 203.335938 288.746094 203.335938 L 207.378906 203.335938 C 206.367188 203.335938 205.441406 202.410156 205.441406 201.230469 L 205.441406 146.816406 C 205.441406 145.636719 206.285156 144.710938 207.378906 144.710938 L 288.746094 144.710938 C 289.757812 144.625 290.601562 145.636719 290.601562 146.816406 Z M 290.601562 146.816406 " fill-opacity="1" fill-rule="nonzero"></path><path fill="#477ce3" d="M 290.601562 146.816406 L 290.601562 150.691406 L 205.441406 150.691406 L 205.441406 146.816406 C 205.441406 145.636719 206.285156 144.710938 207.378906 144.710938 L 288.746094 144.710938 C 289.757812 144.625 290.601562 145.636719 290.601562 146.816406 Z M 290.601562 146.816406 " fill-opacity="1" fill-rule="nonzero"></path><path stroke-linecap="round" transform="matrix(0.842318, 0, 0, 0.842318, -23.079508, -23.079498)" fill="none" stroke-linejoin="round" d="M 340.802262 233.300356 L 340.802262 247.59777 L 340.102 248.001232 C 328.498974 254.799808 314.201561 254.600395 302.797948 247.59777 L 302.797948 233.100944 " stroke="#ffffff" stroke-width="1.711" stroke-opacity="1" stroke-miterlimit="10"></path><path stroke-linecap="round" transform="matrix(0.842318, 0, 0, 0.842318, -23.079508, -23.079498)" fill="none" stroke-linejoin="round" d="M 321.899811 238.202194 L 286.599159 228.899369 L 321.797786 219.800593 L 357.098438 229.200806 Z M 321.899811 238.202194 " stroke="#ffffff" stroke-width="1.711" stroke-opacity="1" stroke-miterlimit="10"></path><path stroke-linecap="round" transform="matrix(0.842318, 0, 0, 0.842318, -23.079508, -23.079498)" fill="none" stroke-linejoin="round" d="M 348.5979 231.398981 L 348.5979 243.400832 " stroke="#ffffff" stroke-width="1.711" stroke-opacity="1" stroke-miterlimit="10"></path><path fill="#d4def9" d="M 84.652344 143.277344 L 189.351562 143.277344 L 189.351562 206.199219 L 84.652344 206.199219 Z M 84.652344 143.277344 " fill-opacity="1" fill-rule="nonzero"></path><path fill="#ffffff" d="M 155.324219 174.78125 C 155.324219 175.382812 155.292969 175.980469 155.234375 176.582031 C 155.175781 177.179688 155.089844 177.773438 154.96875 178.363281 C 154.851562 178.953125 154.707031 179.535156 154.53125 180.113281 C 154.359375 180.6875 154.15625 181.253906 153.925781 181.808594 C 153.695312 182.363281 153.4375 182.90625 153.15625 183.4375 C 152.871094 183.96875 152.5625 184.484375 152.230469 184.984375 C 151.894531 185.484375 151.535156 185.964844 151.15625 186.429688 C 150.773438 186.894531 150.371094 187.339844 149.945312 187.765625 C 149.519531 188.191406 149.074219 188.59375 148.609375 188.976562 C 148.144531 189.355469 147.664062 189.714844 147.164062 190.050781 C 146.664062 190.382812 146.148438 190.691406 145.617188 190.976562 C 145.085938 191.257812 144.542969 191.515625 143.988281 191.746094 C 143.433594 191.976562 142.867188 192.179688 142.292969 192.351562 C 141.714844 192.527344 141.132812 192.671875 140.542969 192.789062 C 139.953125 192.90625 139.359375 192.996094 138.761719 193.054688 C 138.164062 193.113281 137.5625 193.144531 136.960938 193.144531 C 136.359375 193.144531 135.757812 193.113281 135.160156 193.054688 C 134.5625 192.996094 133.96875 192.90625 133.378906 192.789062 C 132.789062 192.671875 132.207031 192.527344 131.628906 192.351562 C 131.054688 192.179688 130.488281 191.976562 129.933594 191.746094 C 129.378906 191.515625 128.835938 191.257812 128.304688 190.976562 C 127.773438 190.691406 127.257812 190.382812 126.757812 190.050781 C 126.257812 189.714844 125.777344 189.355469 125.3125 188.976562 C 124.847656 188.59375 124.402344 188.191406 123.976562 187.765625 C 123.550781 187.339844 123.148438 186.894531 122.765625 186.429688 C 122.386719 185.964844 122.027344 185.484375 121.691406 184.984375 C 121.359375 184.484375 121.050781 183.96875 120.765625 183.4375 C 120.484375 182.90625 120.226562 182.363281 119.996094 181.808594 C 119.765625 181.253906 119.5625 180.6875 119.390625 180.113281 C 119.214844 179.535156 119.070312 178.953125 118.953125 178.363281 C 118.832031 177.773438 118.746094 177.179688 118.6875 176.582031 C 118.628906 175.980469 118.597656 175.382812 118.597656 174.78125 C 118.597656 174.179688 118.628906 173.578125 118.6875 172.980469 C 118.746094 172.382812 118.832031 171.789062 118.953125 171.199219 C 119.070312 170.609375 119.214844 170.027344 119.390625 169.449219 C 119.5625 168.875 119.765625 168.308594 119.996094 167.753906 C 120.226562 167.199219 120.484375 166.65625 120.765625 166.125 C 121.050781 165.59375 121.359375 165.078125 121.691406 164.578125 C 122.027344 164.078125 122.386719 163.597656 122.765625 163.132812 C 123.148438 162.667969 123.550781 162.222656 123.976562 161.796875 C 124.402344 161.371094 124.847656 160.96875 125.3125 160.585938 C 125.777344 160.203125 126.257812 159.847656 126.757812 159.511719 C 127.257812 159.179688 127.773438 158.871094 128.304688 158.585938 C 128.835938 158.304688 129.378906 158.046875 129.933594 157.816406 C 130.488281 157.585938 131.054688 157.382812 131.628906 157.210938 C 132.207031 157.035156 132.789062 156.886719 133.378906 156.769531 C 133.96875 156.652344 134.5625 156.566406 135.160156 156.507812 C 135.757812 156.449219 136.359375 156.417969 136.960938 156.417969 C 137.5625 156.417969 138.164062 156.449219 138.761719 156.507812 C 139.359375 156.566406 139.953125 156.652344 140.542969 156.769531 C 141.132812 156.886719 141.714844 157.035156 142.292969 157.210938 C 142.867188 157.382812 143.433594 157.585938 143.988281 157.816406 C 144.542969 158.046875 145.085938 158.304688 145.617188 158.585938 C 146.148438 158.871094 146.664062 159.179688 147.164062 159.511719 C 147.664062 159.847656 148.144531 160.203125 148.609375 160.585938 C 149.074219 160.96875 149.519531 161.371094 149.945312 161.796875 C 150.371094 162.222656 150.773438 162.667969 151.15625 163.132812 C 151.535156 163.597656 151.894531 164.078125 152.230469 164.578125 C 152.5625 165.078125 152.871094 165.59375 153.15625 166.125 C 153.4375 166.65625 153.695312 167.199219 153.925781 167.753906 C 154.15625 168.308594 154.359375 168.875 154.53125 169.449219 C 154.707031 170.027344 154.851562 170.609375 154.96875 171.199219 C 155.089844 171.789062 155.175781 172.382812 155.234375 172.980469 C 155.292969 173.578125 155.324219 174.179688 155.324219 174.78125 Z M 155.324219 174.78125 " fill-opacity="1" fill-rule="nonzero"></path><path fill="#477ce3" d="M 146.984375 174.78125 L 131.992188 166.105469 L 131.992188 183.457031 Z M 146.984375 174.78125 " fill-opacity="1" fill-rule="nonzero"></path><path fill="#d4def9" d="M 84.652344 215.800781 L 189.351562 215.800781 L 189.351562 220.433594 L 84.652344 220.433594 Z M 84.652344 215.800781 " fill-opacity="1" fill-rule="nonzero"></path><path fill="#d4def9" d="M 204.261719 215.800781 L 289.082031 215.800781 L 289.082031 247.726562 L 204.261719 247.726562 Z M 204.261719 215.800781 " fill-opacity="1" fill-rule="nonzero"></path><path fill="#d4def9" d="M 84.652344 229.617188 L 189.351562 229.617188 L 189.351562 234.25 L 84.652344 234.25 Z M 84.652344 229.617188 " fill-opacity="1" fill-rule="nonzero"></path><path fill="#d4def9" d="M 84.652344 243.429688 L 189.351562 243.429688 L 189.351562 248.0625 L 84.652344 248.0625 Z M 84.652344 243.429688 " fill-opacity="1" fill-rule="nonzero"></path><path fill="#477ce3" d="M 103.941406 148.417969 L 18.109375 148.417969 C 17.015625 148.417969 16.089844 147.488281 16.089844 146.394531 L 16.089844 88.273438 C 16.089844 87.179688 17.015625 86.253906 18.109375 86.253906 L 103.859375 86.253906 C 104.953125 86.253906 105.878906 87.179688 105.878906 88.273438 L 105.878906 146.394531 C 105.878906 147.574219 105.035156 148.417969 103.941406 148.417969 Z M 103.941406 148.417969 " fill-opacity="1" fill-rule="nonzero"></path><path fill="#477ce3" d="M 98.71875 146.816406 L 98.71875 161.050781 L 75.640625 145.804688 Z M 98.71875 146.816406 " fill-opacity="1" fill-rule="nonzero"></path><path fill="#ffffff" d="M 44.8125 117.335938 C 44.8125 117.671875 44.777344 118.007812 44.710938 118.335938 C 44.648438 118.667969 44.550781 118.988281 44.421875 119.300781 C 44.292969 119.613281 44.132812 119.910156 43.945312 120.191406 C 43.757812 120.46875 43.546875 120.730469 43.304688 120.96875 C 43.066406 121.207031 42.808594 121.417969 42.527344 121.605469 C 42.246094 121.792969 41.949219 121.953125 41.640625 122.082031 C 41.328125 122.210938 41.007812 122.308594 40.675781 122.375 C 40.34375 122.441406 40.011719 122.472656 39.671875 122.472656 C 39.335938 122.472656 39 122.441406 38.671875 122.375 C 38.339844 122.308594 38.019531 122.210938 37.707031 122.082031 C 37.394531 121.953125 37.097656 121.792969 36.820312 121.605469 C 36.539062 121.417969 36.277344 121.207031 36.039062 120.96875 C 35.800781 120.730469 35.589844 120.46875 35.402344 120.191406 C 35.214844 119.910156 35.054688 119.613281 34.925781 119.300781 C 34.796875 118.988281 34.699219 118.667969 34.632812 118.335938 C 34.566406 118.007812 34.535156 117.671875 34.535156 117.335938 C 34.535156 116.996094 34.566406 116.664062 34.632812 116.332031 C 34.699219 116 34.796875 115.679688 34.925781 115.367188 C 35.054688 115.058594 35.214844 114.761719 35.402344 114.480469 C 35.589844 114.199219 35.800781 113.941406 36.039062 113.703125 C 36.277344 113.464844 36.539062 113.25 36.820312 113.0625 C 37.097656 112.875 37.394531 112.71875 37.707031 112.585938 C 38.019531 112.457031 38.339844 112.359375 38.671875 112.296875 C 39 112.230469 39.335938 112.195312 39.671875 112.195312 C 40.011719 112.195312 40.34375 112.230469 40.675781 112.296875 C 41.007812 112.359375 41.328125 112.457031 41.640625 112.585938 C 41.949219 112.71875 42.246094 112.875 42.527344 113.0625 C 42.808594 113.25 43.066406 113.464844 43.304688 113.703125 C 43.546875 113.941406 43.757812 114.199219 43.945312 114.480469 C 44.132812 114.761719 44.292969 115.058594 44.421875 115.367188 C 44.550781 115.679688 44.648438 116 44.710938 116.332031 C 44.777344 116.664062 44.8125 116.996094 44.8125 117.335938 Z M 44.8125 117.335938 " fill-opacity="1" fill-rule="nonzero"></path><path fill="#ffffff" d="M 66.207031 117.335938 C 66.207031 117.671875 66.171875 118.007812 66.109375 118.335938 C 66.042969 118.667969 65.945312 118.988281 65.816406 119.300781 C 65.6875 119.613281 65.527344 119.910156 65.339844 120.191406 C 65.152344 120.46875 64.941406 120.730469 64.703125 120.96875 C 64.460938 121.207031 64.203125 121.417969 63.921875 121.605469 C 63.640625 121.792969 63.347656 121.953125 63.035156 122.082031 C 62.722656 122.210938 62.402344 122.308594 62.070312 122.375 C 61.738281 122.441406 61.40625 122.472656 61.066406 122.472656 C 60.730469 122.472656 60.398438 122.441406 60.066406 122.375 C 59.734375 122.308594 59.414062 122.210938 59.101562 122.082031 C 58.789062 121.953125 58.492188 121.792969 58.214844 121.605469 C 57.933594 121.417969 57.671875 121.207031 57.433594 120.96875 C 57.195312 120.730469 56.984375 120.46875 56.796875 120.191406 C 56.609375 119.910156 56.449219 119.613281 56.320312 119.300781 C 56.191406 118.988281 56.09375 118.667969 56.027344 118.335938 C 55.960938 118.007812 55.929688 117.671875 55.929688 117.335938 C 55.929688 116.996094 55.960938 116.664062 56.027344 116.332031 C 56.09375 116 56.191406 115.679688 56.320312 115.367188 C 56.449219 115.058594 56.609375 114.761719 56.796875 114.480469 C 56.984375 114.199219 57.195312 113.941406 57.433594 113.703125 C 57.671875 113.464844 57.933594 113.25 58.214844 113.0625 C 58.492188 112.875 58.789062 112.71875 59.101562 112.585938 C 59.414062 112.457031 59.734375 112.359375 60.066406 112.296875 C 60.398438 112.230469 60.730469 112.195312 61.066406 112.195312 C 61.40625 112.195312 61.738281 112.230469 62.070312 112.296875 C 62.402344 112.359375 62.722656 112.457031 63.035156 112.585938 C 63.347656 112.71875 63.640625 112.875 63.921875 113.0625 C 64.203125 113.25 64.460938 113.464844 64.703125 113.703125 C 64.941406 113.941406 65.152344 114.199219 65.339844 114.480469 C 65.527344 114.761719 65.6875 115.058594 65.816406 115.367188 C 65.945312 115.679688 66.042969 116 66.109375 116.332031 C 66.171875 116.664062 66.207031 116.996094 66.207031 117.335938 Z M 66.207031 117.335938 " fill-opacity="1" fill-rule="nonzero"></path><path fill="#ffffff" d="M 87.515625 117.335938 C 87.515625 117.671875 87.484375 118.007812 87.417969 118.335938 C 87.351562 118.667969 87.253906 118.988281 87.125 119.300781 C 86.996094 119.613281 86.839844 119.910156 86.652344 120.191406 C 86.464844 120.46875 86.25 120.730469 86.011719 120.96875 C 85.773438 121.207031 85.515625 121.417969 85.234375 121.605469 C 84.953125 121.792969 84.65625 121.953125 84.34375 122.082031 C 84.035156 122.210938 83.710938 122.308594 83.382812 122.375 C 83.050781 122.441406 82.714844 122.472656 82.378906 122.472656 C 82.042969 122.472656 81.707031 122.441406 81.375 122.375 C 81.046875 122.308594 80.722656 122.210938 80.414062 122.082031 C 80.101562 121.953125 79.804688 121.792969 79.523438 121.605469 C 79.242188 121.417969 78.984375 121.207031 78.746094 120.96875 C 78.507812 120.730469 78.292969 120.46875 78.105469 120.191406 C 77.917969 119.910156 77.761719 119.613281 77.632812 119.300781 C 77.503906 118.988281 77.40625 118.667969 77.339844 118.335938 C 77.273438 118.007812 77.242188 117.671875 77.242188 117.335938 C 77.242188 116.996094 77.273438 116.664062 77.339844 116.332031 C 77.40625 116 77.503906 115.679688 77.632812 115.367188 C 77.761719 115.058594 77.917969 114.761719 78.105469 114.480469 C 78.292969 114.199219 78.507812 113.941406 78.746094 113.703125 C 78.984375 113.464844 79.242188 113.25 79.523438 113.0625 C 79.804688 112.875 80.101562 112.71875 80.414062 112.585938 C 80.722656 112.457031 81.046875 112.359375 81.375 112.296875 C 81.707031 112.230469 82.042969 112.195312 82.378906 112.195312 C 82.714844 112.195312 83.050781 112.230469 83.382812 112.296875 C 83.710938 112.359375 84.035156 112.457031 84.34375 112.585938 C 84.65625 112.71875 84.953125 112.875 85.234375 113.0625 C 85.515625 113.25 85.773438 113.464844 86.011719 113.703125 C 86.25 113.941406 86.464844 114.199219 86.652344 114.480469 C 86.839844 114.761719 86.996094 115.058594 87.125 115.367188 C 87.253906 115.679688 87.351562 116 87.417969 116.332031 C 87.484375 116.664062 87.515625 116.996094 87.515625 117.335938 Z M 87.515625 117.335938 " fill-opacity="1" fill-rule="nonzero"></path><path fill="#477ce3" d="M 209.90625 108.492188 L 252.023438 108.492188 C 252.527344 108.492188 253.03125 108.070312 253.03125 107.480469 L 253.03125 78.925781 C 253.03125 78.417969 252.609375 77.914062 252.023438 77.914062 L 209.90625 77.914062 C 209.398438 77.914062 208.894531 78.335938 208.894531 78.925781 L 208.894531 107.480469 C 208.894531 108.070312 209.398438 108.492188 209.90625 108.492188 Z M 209.90625 108.492188 " fill-opacity="1" fill-rule="nonzero"></path><path fill="#477ce3" d="M 212.433594 107.734375 L 212.433594 114.722656 L 223.804688 107.226562 Z M 212.433594 107.734375 " fill-opacity="1" fill-rule="nonzero"></path><path fill="#ffffff" d="M 244.019531 93.246094 C 244.019531 93.578125 243.957031 93.902344 243.828125 94.210938 C 243.699219 94.519531 243.515625 94.792969 243.28125 95.03125 C 243.042969 95.269531 242.769531 95.449219 242.460938 95.578125 C 242.148438 95.707031 241.828125 95.773438 241.492188 95.773438 C 241.15625 95.773438 240.835938 95.707031 240.527344 95.578125 C 240.214844 95.449219 239.941406 95.269531 239.707031 95.03125 C 239.46875 94.792969 239.285156 94.519531 239.15625 94.210938 C 239.03125 93.902344 238.964844 93.578125 238.964844 93.246094 C 238.964844 92.910156 239.03125 92.585938 239.15625 92.277344 C 239.285156 91.96875 239.46875 91.695312 239.707031 91.457031 C 239.941406 91.222656 240.214844 91.039062 240.527344 90.910156 C 240.835938 90.78125 241.15625 90.71875 241.492188 90.71875 C 241.828125 90.71875 242.148438 90.78125 242.460938 90.910156 C 242.769531 91.039062 243.042969 91.222656 243.28125 91.457031 C 243.515625 91.695312 243.699219 91.96875 243.828125 92.277344 C 243.957031 92.585938 244.019531 92.910156 244.019531 93.246094 Z M 244.019531 93.246094 " fill-opacity="1" fill-rule="nonzero"></path><path fill="#ffffff" d="M 233.492188 93.246094 C 233.492188 93.578125 233.425781 93.902344 233.296875 94.210938 C 233.171875 94.519531 232.988281 94.792969 232.75 95.03125 C 232.511719 95.269531 232.238281 95.449219 231.929688 95.578125 C 231.621094 95.707031 231.296875 95.773438 230.964844 95.773438 C 230.628906 95.773438 230.304688 95.707031 229.996094 95.578125 C 229.6875 95.449219 229.414062 95.269531 229.175781 95.03125 C 228.941406 94.792969 228.757812 94.519531 228.628906 94.210938 C 228.5 93.902344 228.4375 93.578125 228.4375 93.246094 C 228.4375 92.910156 228.5 92.585938 228.628906 92.277344 C 228.757812 91.96875 228.941406 91.695312 229.175781 91.457031 C 229.414062 91.222656 229.6875 91.039062 229.996094 90.910156 C 230.304688 90.78125 230.628906 90.71875 230.964844 90.71875 C 231.296875 90.71875 231.621094 90.78125 231.929688 90.910156 C 232.238281 91.039062 232.511719 91.222656 232.75 91.457031 C 232.988281 91.695312 233.171875 91.96875 233.296875 92.277344 C 233.425781 92.585938 233.492188 92.910156 233.492188 93.246094 Z M 233.492188 93.246094 " fill-opacity="1" fill-rule="nonzero"></path><path fill="#ffffff" d="M 223.046875 93.246094 C 223.046875 93.578125 222.980469 93.902344 222.851562 94.210938 C 222.726562 94.519531 222.542969 94.792969 222.304688 95.03125 C 222.070312 95.269531 221.796875 95.449219 221.484375 95.578125 C 221.175781 95.707031 220.855469 95.773438 220.519531 95.773438 C 220.183594 95.773438 219.863281 95.707031 219.550781 95.578125 C 219.242188 95.449219 218.96875 95.269531 218.730469 95.03125 C 218.496094 94.792969 218.3125 94.519531 218.183594 94.210938 C 218.054688 93.902344 217.992188 93.578125 217.992188 93.246094 C 217.992188 92.910156 218.054688 92.585938 218.183594 92.277344 C 218.3125 91.96875 218.496094 91.695312 218.730469 91.457031 C 218.96875 91.222656 219.242188 91.039062 219.550781 90.910156 C 219.863281 90.78125 220.183594 90.71875 220.519531 90.71875 C 220.855469 90.71875 221.175781 90.78125 221.484375 90.910156 C 221.796875 91.039062 222.070312 91.222656 222.304688 91.457031 C 222.542969 91.695312 222.726562 91.96875 222.851562 92.277344 C 222.980469 92.585938 223.046875 92.910156 223.046875 93.246094 Z M 223.046875 93.246094 " fill-opacity="1" fill-rule="nonzero"></path><path fill="#ff914d" d="M 126.09375 271.648438 L 126.09375 292.535156 L 121.042969 292.535156 L 121.042969 296.496094 L 245.871094 296.496094 C 247.472656 296.496094 248.988281 296.242188 250.503906 295.652344 C 252.527344 294.980469 254.464844 293.800781 255.980469 292.199219 C 258.675781 289.503906 260.109375 285.882812 260.109375 282.007812 C 260.109375 275.523438 255.8125 269.878906 249.664062 268.109375 C 248.398438 267.773438 247.136719 267.605469 245.871094 267.605469 L 120.957031 267.605469 L 120.957031 271.5625 L 126.09375 271.5625 Z M 126.09375 271.648438 " fill-opacity="1" fill-rule="nonzero"></path><path fill="#d4def9" d="M 126.09375 271.648438 L 126.09375 292.535156 L 175.117188 292.535156 C 177.644531 292.535156 179.917969 291.609375 181.773438 290.179688 C 182.023438 290.011719 182.277344 289.757812 182.53125 289.503906 C 182.867188 289.253906 183.121094 288.914062 183.371094 288.578125 C 183.542969 288.324219 183.710938 288.074219 183.878906 287.820312 C 183.960938 287.652344 184.046875 287.566406 184.128906 287.398438 C 184.300781 287.144531 184.46875 286.808594 184.550781 286.554688 C 184.71875 286.136719 184.890625 285.714844 185.058594 285.292969 C 185.140625 285.125 185.140625 285.039062 185.226562 284.871094 C 185.308594 284.621094 185.308594 284.449219 185.394531 284.199219 C 185.394531 283.945312 185.476562 283.691406 185.476562 283.441406 C 185.5625 283.019531 185.5625 282.597656 185.5625 282.09375 C 185.5625 281.925781 185.5625 281.671875 185.5625 281.503906 C 185.5625 281.335938 185.5625 281.082031 185.476562 280.914062 C 185.476562 280.746094 185.394531 280.492188 185.394531 280.324219 C 185.394531 280.15625 185.308594 279.988281 185.308594 279.734375 C 185.226562 279.480469 185.226562 279.226562 185.140625 278.976562 C 185.058594 278.640625 184.890625 278.300781 184.804688 277.964844 C 184.636719 277.628906 184.550781 277.292969 184.382812 277.039062 C 184.046875 276.449219 183.625 275.859375 183.203125 275.355469 C 183.121094 275.269531 183.035156 275.101562 182.867188 275.015625 C 182.78125 274.933594 182.613281 274.765625 182.53125 274.679688 C 182.195312 274.34375 181.773438 274.007812 181.433594 273.753906 C 181.265625 273.667969 181.183594 273.585938 181.015625 273.5 C 180.761719 273.332031 180.425781 273.164062 180.171875 272.996094 C 179.917969 272.828125 179.582031 272.742188 179.246094 272.574219 C 178.910156 272.488281 178.65625 272.320312 178.320312 272.238281 C 177.390625 271.898438 176.296875 271.816406 175.203125 271.816406 L 126.09375 271.816406 Z M 126.09375 271.648438 " fill-opacity="1" fill-rule="nonzero"></path><path fill="#ffffff" d="M 183.121094 275.355469 L 126.09375 275.355469 L 126.09375 274.59375 L 182.445312 274.59375 C 182.699219 274.847656 182.953125 275.101562 183.121094 275.355469 Z M 183.121094 275.355469 " fill-opacity="1" fill-rule="nonzero"></path><path fill="#ffffff" d="M 185.308594 279.734375 L 126.179688 279.734375 L 126.179688 278.976562 L 185.140625 278.976562 C 185.140625 279.226562 185.226562 279.480469 185.308594 279.734375 Z M 185.308594 279.734375 " fill-opacity="1" fill-rule="nonzero"></path><path fill="#ffffff" d="M 185.476562 283.355469 C 185.476562 283.609375 185.394531 283.859375 185.394531 284.113281 L 126.179688 284.113281 L 126.179688 283.355469 Z M 185.476562 283.355469 " fill-opacity="1" fill-rule="nonzero"></path><path fill="#ffffff" d="M 183.878906 287.734375 C 183.710938 287.988281 183.542969 288.242188 183.371094 288.492188 L 126.179688 288.492188 L 126.179688 287.734375 Z M 183.878906 287.734375 " fill-opacity="1" fill-rule="nonzero"></path><path fill="#477ce3" d="M 174.78125 283.019531 L 172 280.492188 L 169.644531 283.019531 L 169.644531 275.101562 L 174.78125 275.101562 Z M 174.78125 283.019531 " fill-opacity="1" fill-rule="nonzero"></path><path fill="#ff914d" d="M 183.035156 275.015625 C 183.121094 275.101562 183.289062 275.269531 183.371094 275.355469 L 183.289062 275.355469 C 184.214844 276.449219 184.972656 277.628906 185.394531 278.976562 C 185.476562 279.226562 185.5625 279.480469 185.648438 279.734375 C 185.730469 279.902344 185.730469 280.070312 185.730469 280.324219 C 185.730469 280.492188 185.816406 280.746094 185.816406 280.914062 C 185.816406 281.082031 185.898438 281.25 185.898438 281.503906 C 185.898438 281.671875 185.898438 281.925781 185.898438 282.09375 C 185.898438 282.511719 185.898438 283.019531 185.816406 283.441406 C 185.816406 283.691406 185.730469 283.945312 185.730469 284.199219 C 185.476562 285.546875 184.890625 286.726562 184.128906 287.820312 C 183.960938 288.074219 183.792969 288.324219 183.542969 288.578125 C 183.289062 288.914062 183.035156 289.253906 182.699219 289.503906 C 182.363281 289.839844 181.941406 290.179688 181.519531 290.515625 C 181.433594 290.601562 181.351562 290.601562 181.265625 290.683594 C 181.265625 290.683594 181.183594 290.769531 181.183594 290.769531 C 181.183594 290.769531 181.097656 290.769531 181.097656 290.851562 C 179.496094 291.863281 177.644531 292.535156 175.625 292.621094 L 175.285156 292.621094 C 175.285156 292.621094 175.285156 292.621094 175.203125 292.621094 L 120.957031 292.621094 L 120.957031 296.582031 L 175.960938 296.582031 C 177.5625 296.582031 179.078125 296.328125 180.59375 295.820312 C 182.613281 295.148438 184.550781 293.96875 186.066406 292.367188 C 188.761719 289.671875 190.195312 286.050781 190.195312 282.175781 C 190.195312 275.691406 185.898438 269.964844 179.75 268.277344 C 178.570312 267.941406 177.222656 267.773438 175.960938 267.773438 L 120.957031 267.773438 L 120.957031 271.730469 L 175.285156 271.730469 C 175.371094 271.730469 175.539062 271.730469 175.625 271.730469 C 175.792969 271.730469 175.875 271.730469 176.042969 271.730469 C 176.296875 271.730469 176.550781 271.816406 176.800781 271.816406 C 177.054688 271.816406 177.308594 271.898438 177.5625 271.984375 C 177.5625 271.984375 177.644531 271.984375 177.644531 271.984375 C 177.898438 272.070312 178.148438 272.070312 178.320312 272.152344 C 178.65625 272.238281 178.992188 272.40625 179.246094 272.488281 C 179.582031 272.660156 179.835938 272.742188 180.171875 272.910156 C 180.425781 273.078125 180.761719 273.246094 181.015625 273.417969 C 181.097656 273.5 181.183594 273.5 181.183594 273.585938 C 181.265625 273.667969 181.351562 273.667969 181.433594 273.753906 C 181.519531 273.753906 181.519531 273.835938 181.605469 273.921875 C 181.773438 274.007812 181.855469 274.089844 181.941406 274.175781 C 182.109375 274.34375 182.363281 274.511719 182.53125 274.679688 C 182.78125 274.765625 182.867188 274.847656 183.035156 275.015625 Z M 183.035156 275.015625 " fill-opacity="1" fill-rule="nonzero"></path><g clip-path="url(#431e672e18)"><path stroke-linecap="butt" transform="matrix(0.842318, 0, 0, 0.842318, -23.079508, -23.079498)" fill="none" stroke-linejoin="miter" d="M 241.800907 378.398465 C 244.198494 377.600815 246.498694 376.20029 248.298044 374.298915 C 251.49792 371.09904 253.199882 366.800077 253.199882 362.199677 C 253.199882 354.501426 248.098632 347.698213 240.799206 345.699451 " stroke="#263156" stroke-width="1.045" stroke-opacity="1" stroke-miterlimit="10"></path></g><path fill="#477ce3" d="M 131.066406 253.285156 C 131.066406 257.160156 132.582031 260.78125 135.277344 263.476562 C 136.792969 264.992188 138.644531 266.171875 140.75 266.929688 C 142.265625 267.4375 143.785156 267.773438 145.382812 267.773438 L 267.519531 267.773438 L 267.519531 263.8125 L 262.382812 263.8125 L 262.382812 242.925781 L 267.519531 242.925781 L 267.519531 238.882812 L 145.382812 238.882812 C 144.035156 238.882812 142.773438 239.050781 141.59375 239.386719 C 135.359375 241.070312 131.066406 246.800781 131.066406 253.285156 Z M 131.066406 253.285156 " fill-opacity="1" fill-rule="nonzero"></path><path fill="#d4def9" d="M 262.382812 242.839844 L 262.382812 263.730469 L 188.089844 263.730469 C 185.5625 263.730469 183.289062 262.804688 181.433594 261.371094 C 181.183594 261.203125 180.929688 260.949219 180.675781 260.699219 C 180.339844 260.445312 180.085938 260.109375 179.835938 259.769531 C 179.667969 259.519531 179.496094 259.265625 179.328125 259.011719 C 179.246094 258.84375 179.160156 258.761719 179.078125 258.589844 C 178.910156 258.339844 178.738281 258.003906 178.65625 257.75 C 178.488281 257.328125 178.320312 256.90625 178.148438 256.484375 C 178.066406 256.316406 178.066406 256.234375 177.980469 256.066406 C 177.898438 255.8125 177.898438 255.644531 177.8125 255.390625 C 177.8125 255.136719 177.730469 254.886719 177.730469 254.632812 C 177.644531 254.210938 177.644531 253.789062 177.644531 253.285156 C 177.644531 253.117188 177.644531 252.863281 177.644531 252.695312 C 177.644531 252.527344 177.644531 252.273438 177.730469 252.105469 C 177.730469 251.9375 177.8125 251.683594 177.8125 251.515625 C 177.8125 251.347656 177.898438 251.179688 177.898438 250.925781 C 177.980469 250.675781 177.980469 250.421875 178.066406 250.167969 C 178.148438 249.832031 178.320312 249.496094 178.402344 249.15625 C 178.570312 248.820312 178.65625 248.484375 178.824219 248.230469 C 179.160156 247.640625 179.582031 247.050781 180.003906 246.546875 C 180.085938 246.460938 180.171875 246.292969 180.339844 246.210938 C 180.425781 246.125 180.59375 245.957031 180.675781 245.871094 C 181.015625 245.535156 181.433594 245.199219 181.773438 244.945312 C 181.941406 244.863281 182.023438 244.777344 182.195312 244.695312 C 182.445312 244.523438 182.78125 244.355469 183.035156 244.1875 C 183.289062 244.019531 183.625 243.933594 183.960938 243.765625 C 184.300781 243.683594 184.550781 243.515625 184.890625 243.429688 C 185.816406 243.175781 186.910156 243.007812 188.003906 243.007812 L 262.382812 243.007812 Z M 262.382812 242.839844 " fill-opacity="1" fill-rule="nonzero"></path><path fill="#ffffff" d="M 180.085938 246.546875 L 262.296875 246.546875 L 262.296875 245.789062 L 180.761719 245.789062 C 180.507812 246.042969 180.339844 246.292969 180.085938 246.546875 Z M 180.085938 246.546875 " fill-opacity="1" fill-rule="nonzero"></path><path fill="#ffffff" d="M 177.898438 250.925781 L 262.296875 250.925781 L 262.296875 250.167969 L 178.066406 250.167969 C 178.066406 250.421875 177.980469 250.675781 177.898438 250.925781 Z M 177.898438 250.925781 " fill-opacity="1" fill-rule="nonzero"></path><path fill="#ffffff" d="M 177.730469 254.632812 C 177.730469 254.886719 177.8125 255.136719 177.8125 255.390625 L 262.296875 255.390625 L 262.296875 254.632812 Z M 177.730469 254.632812 " fill-opacity="1" fill-rule="nonzero"></path><path fill="#ffffff" d="M 179.328125 259.011719 C 179.496094 259.265625 179.667969 259.519531 179.835938 259.769531 L 262.296875 259.769531 L 262.296875 259.011719 Z M 179.328125 259.011719 " fill-opacity="1" fill-rule="nonzero"></path><path fill="#477ce3" d="M 188.511719 254.296875 L 191.207031 251.683594 L 193.648438 254.296875 L 193.648438 246.292969 L 188.511719 246.292969 Z M 188.511719 254.296875 " fill-opacity="1" fill-rule="nonzero"></path><path fill="#477ce3" d="M 173.179688 253.285156 C 173.179688 257.160156 174.695312 260.78125 177.308594 263.476562 C 178.824219 264.992188 180.761719 266.171875 182.78125 266.929688 C 184.300781 267.4375 185.816406 267.6875 187.414062 267.6875 L 267.519531 267.6875 L 267.519531 263.730469 L 187.921875 263.730469 C 187.246094 263.730469 186.574219 263.5625 185.898438 263.394531 C 184.636719 263.140625 183.457031 262.550781 182.445312 261.960938 C 182.445312 261.960938 182.363281 261.875 182.363281 261.875 C 182.363281 261.875 182.277344 261.792969 182.277344 261.792969 C 182.195312 261.707031 182.109375 261.707031 182.023438 261.625 C 181.605469 261.285156 181.183594 260.949219 180.84375 260.613281 C 180.507812 260.359375 180.257812 260.023438 180.003906 259.6875 C 179.835938 259.433594 179.582031 259.179688 179.414062 258.929688 C 179.246094 258.761719 179.160156 258.507812 178.992188 258.339844 C 178.992188 258.339844 178.992188 258.339844 178.992188 258.253906 C 178.910156 258.085938 178.738281 257.832031 178.65625 257.664062 C 178.320312 256.90625 177.980469 256.148438 177.8125 255.304688 C 177.730469 255.054688 177.730469 254.800781 177.730469 254.546875 C 177.644531 254.128906 177.644531 253.707031 177.644531 253.199219 C 177.644531 253.03125 177.644531 252.78125 177.644531 252.609375 C 177.644531 252.441406 177.644531 252.191406 177.730469 252.023438 C 177.730469 251.851562 177.8125 251.601562 177.8125 251.433594 C 177.8125 251.261719 177.898438 251.09375 177.898438 250.84375 C 177.980469 250.589844 177.980469 250.335938 178.148438 250.085938 C 178.402344 249.410156 178.65625 248.738281 178.992188 248.148438 C 179.328125 247.558594 179.75 246.96875 180.257812 246.460938 L 180.171875 246.460938 C 180.257812 246.378906 180.425781 246.210938 180.507812 246.125 C 180.59375 246.042969 180.761719 245.871094 180.84375 245.789062 C 181.015625 245.621094 181.265625 245.453125 181.433594 245.28125 C 181.519531 245.199219 181.6875 245.113281 181.773438 245.03125 C 181.855469 244.945312 181.855469 244.945312 181.941406 244.863281 C 182.023438 244.777344 182.109375 244.777344 182.195312 244.691406 C 182.277344 244.609375 182.277344 244.609375 182.363281 244.523438 C 182.613281 244.355469 182.953125 244.1875 183.203125 244.019531 C 183.542969 243.851562 183.792969 243.683594 184.128906 243.597656 C 184.46875 243.515625 184.71875 243.34375 185.058594 243.261719 C 185.308594 243.175781 185.5625 243.09375 185.730469 243.09375 C 185.730469 243.09375 185.816406 243.09375 185.816406 243.09375 C 186.066406 243.007812 186.320312 243.007812 186.574219 242.925781 C 186.742188 242.925781 186.996094 242.839844 187.164062 242.839844 C 187.246094 242.839844 187.246094 242.839844 187.332031 242.839844 L 187.414062 242.839844 C 187.5 242.839844 187.667969 242.839844 187.753906 242.839844 C 187.835938 242.839844 188.003906 242.839844 188.089844 242.839844 L 267.519531 242.839844 L 267.519531 238.882812 L 187.414062 238.882812 C 186.066406 238.882812 184.804688 239.050781 183.625 239.386719 C 177.390625 241.070312 173.179688 246.800781 173.179688 253.285156 Z M 173.179688 253.285156 " fill-opacity="1" fill-rule="nonzero"></path><path stroke-linecap="butt" transform="matrix(0.842318, 0, 0, 0.842318, -23.079508, -23.079498)" fill="none" stroke-linejoin="miter" d="M 245.302219 311.599911 C 237.998156 313.598674 232.901543 320.401887 232.901543 328.100137 C 232.901543 332.700537 234.700894 336.9995 237.798744 340.199375 C 239.598094 341.998725 241.898294 343.399251 244.300519 344.298926 " stroke="#263156" stroke-width="1.045" stroke-opacity="1" stroke-miterlimit="10"></path><path fill="#ff914d" d="M 331.703125 176.382812 L 337.9375 176.382812 L 337.9375 186.574219 L 331.703125 186.574219 Z M 331.703125 176.382812 " fill-opacity="1" fill-rule="nonzero"></path><path fill="#477ce3" d="M 337.9375 175.875 L 337.9375 177.644531 C 336.757812 178.066406 334.738281 180.085938 333.726562 180.085938 C 332.800781 180.085938 332.042969 179.582031 331.703125 179.246094 L 331.703125 176.800781 L 336.253906 175.875 Z M 337.9375 175.875 " fill-opacity="1" fill-rule="nonzero"></path><path fill="#ff914d" d="M 340.632812 170.316406 C 340.632812 174.359375 335.746094 179.496094 332.378906 179.496094 C 329.851562 179.496094 328.335938 174.445312 328.335938 170.316406 C 328.335938 166.273438 331.113281 162.988281 334.484375 162.988281 C 337.855469 162.988281 340.632812 166.273438 340.632812 170.316406 Z M 340.632812 170.316406 " fill-opacity="1" fill-rule="nonzero"></path><path fill="#ff914d" d="M 343.160156 239.808594 C 343.328125 251.433594 341.476562 260.867188 339.117188 260.867188 C 336.675781 260.867188 334.570312 251.515625 334.398438 239.890625 C 334.230469 228.269531 336.085938 218.835938 338.445312 218.835938 C 340.800781 218.835938 342.90625 228.183594 343.160156 239.808594 Z M 343.160156 239.808594 " fill-opacity="1" fill-rule="nonzero"></path><path fill="#ff914d" d="M 329.429688 239.890625 C 328.335938 251.433594 325.472656 260.613281 323.027344 260.359375 C 320.585938 260.109375 319.574219 250.589844 320.671875 239.050781 C 321.765625 227.511719 324.628906 218.328125 327.070312 218.582031 C 329.515625 218.75 330.609375 228.351562 329.429688 239.890625 Z M 329.429688 239.890625 " fill-opacity="1" fill-rule="nonzero"></path><path fill="#ff914d" d="M 337.433594 257.496094 C 341.558594 251.09375 355.625 287.652344 357.394531 295.570312 C 359.164062 303.570312 354.363281 296.496094 347.878906 285.378906 C 341.390625 274.257812 335.746094 260.023438 337.433594 257.496094 Z M 337.433594 257.496094 " fill-opacity="1" fill-rule="nonzero"></path><path fill="#ff914d" d="M 322.101562 256.90625 C 328.082031 252.105469 332.210938 291.105469 331.285156 299.191406 C 330.355469 307.277344 328.167969 299.105469 325.554688 286.472656 C 323.027344 273.835938 319.742188 258.84375 322.101562 256.90625 Z M 322.101562 256.90625 " fill-opacity="1" fill-rule="nonzero"></path><path fill="#ff914d" d="M 333.472656 238.292969 C 333.472656 238.292969 333.050781 254.464844 335.160156 260.191406 C 337.265625 265.917969 353.183594 299.023438 353.183594 299.023438 L 359.417969 296.410156 C 359.417969 296.410156 350.066406 265.414062 343.160156 257.582031 C 343.160156 257.582031 348.46875 219.339844 338.613281 217.90625 C 331.957031 216.980469 333.472656 238.292969 333.472656 238.292969 Z M 333.472656 238.292969 " fill-opacity="1" fill-rule="nonzero"></path><path fill="#ff914d" d="M 320.503906 234.417969 C 320.503906 234.417969 318.902344 251.179688 319.492188 258.085938 C 320.164062 265.078125 327.492188 301.886719 327.492188 301.886719 L 334.0625 300.707031 C 334.0625 300.707031 332.210938 273.332031 328.25 259.097656 C 328.25 259.097656 336.253906 219.339844 327.15625 217.402344 C 321.089844 216.222656 320.503906 234.417969 320.503906 234.417969 Z M 320.503906 234.417969 " fill-opacity="1" fill-rule="nonzero"></path><path fill="#ff914d" d="M 334.0625 300.792969 L 334.0625 303.148438 L 327.832031 306.097656 L 323.113281 305.257812 L 325.640625 304.078125 C 325.640625 304.078125 327.324219 303.066406 327.410156 302.054688 C 327.492188 301.042969 334.0625 300.792969 334.0625 300.792969 Z M 334.0625 300.792969 " fill-opacity="1" fill-rule="nonzero"></path><g clip-path="url(#c1386f2878)"><path fill="#477ce3" d="M 334.0625 301.550781 C 334.0625 301.550781 329.597656 306.605469 325.554688 304.078125 C 325.554688 304.078125 319.996094 305.59375 320.164062 307.277344 C 320.332031 308.960938 324.125 308.121094 324.125 308.121094 L 334.570312 306.773438 C 334.652344 306.6875 335.242188 304.328125 334.0625 301.550781 Z M 334.0625 301.550781 " fill-opacity="1" fill-rule="nonzero"></path></g><path fill="#ff914d" d="M 359.5 296.410156 L 360.007812 298.6875 L 354.53125 302.8125 L 349.730469 302.980469 L 351.921875 301.296875 C 351.921875 301.296875 353.351562 300.035156 353.269531 299.023438 C 353.101562 298.011719 359.5 296.410156 359.5 296.410156 Z M 359.5 296.410156 " fill-opacity="1" fill-rule="nonzero"></path><path fill="#477ce3" d="M 359.667969 297.085938 C 359.667969 297.085938 356.300781 302.898438 351.921875 301.296875 C 351.921875 301.296875 346.78125 303.910156 347.371094 305.507812 C 347.960938 307.109375 351.414062 305.507812 351.414062 305.507812 L 361.355469 301.972656 C 361.355469 302.054688 361.355469 299.613281 359.667969 297.085938 Z M 359.667969 297.085938 " fill-opacity="1" fill-rule="nonzero"></path><path fill="#ff914d" d="M 330.1875 184.550781 C 330.945312 185.394531 331.113281 186.65625 330.695312 187.667969 C 328.839844 192.46875 321.851562 210.917969 318.226562 209.738281 C 314.015625 208.390625 321.511719 192.21875 323.957031 188.511719 C 325.976562 185.394531 328.335938 182.445312 330.1875 184.550781 Z M 330.1875 184.550781 " fill-opacity="1" fill-rule="nonzero"></path><path fill="#ff914d" d="M 320.082031 208.390625 C 319.660156 209.148438 318.816406 209.570312 317.976562 209.652344 C 313.933594 209.820312 299.445312 210.496094 298.6875 208.894531 C 297.757812 207.042969 318.734375 205.1875 319.40625 206.03125 C 319.828125 206.703125 320.585938 207.378906 320.082031 208.390625 Z M 320.082031 208.390625 " fill-opacity="1" fill-rule="nonzero"></path><path fill="#ff914d" d="M 320.839844 194.492188 L 316.039062 205.105469 L 304.496094 206.621094 L 304.917969 209.90625 C 304.917969 209.90625 318.480469 210.496094 320.25 209.484375 C 322.019531 208.472656 327.410156 197.355469 327.410156 197.355469 Z M 320.839844 194.492188 " fill-opacity="1" fill-rule="nonzero"></path><path fill="#ff914d" d="M 304.582031 206.957031 L 304.496094 206.621094 L 303.148438 205.945312 C 302.8125 205.777344 302.390625 205.695312 302.054688 205.695312 L 300.371094 206.117188 C 300.371094 206.117188 300.117188 206.535156 301.042969 206.535156 C 301.296875 206.535156 301.632812 206.789062 301.886719 206.957031 L 300.960938 207.125 L 298.601562 207.632812 C 298.011719 207.714844 297.339844 208.390625 297.507812 209.0625 C 297.507812 209.0625 297.757812 210.074219 298.855469 210.242188 L 300.371094 210.664062 C 301.214844 210.746094 301.800781 211 302.644531 210.746094 L 304.75 209.90625 Z M 304.582031 206.957031 " fill-opacity="1" fill-rule="nonzero"></path><path fill="#477ce3" d="M 329.347656 193.648438 C 328.925781 194.574219 328.335938 196.089844 327.492188 197.859375 L 320.503906 194.40625 C 320.585938 194.15625 325.976562 181.265625 329.515625 183.289062 C 333.136719 185.140625 330.777344 190.28125 329.347656 193.648438 Z M 329.347656 193.648438 " fill-opacity="1" fill-rule="nonzero"></path><path fill="#477ce3" d="M 323.449219 206.621094 C 322.945312 211.757812 322.4375 213.613281 322.4375 213.613281 C 322.4375 213.613281 328.335938 214.539062 334.570312 214.371094 C 337.601562 214.285156 340.71875 213.949219 343.246094 213.105469 C 343.246094 213.105469 342.824219 209.90625 343.160156 204.09375 C 343.246094 202.324219 343.496094 200.21875 343.75 197.945312 C 344.003906 195.585938 344.339844 193.058594 344.59375 190.785156 C 344.84375 188.003906 345.011719 185.476562 344.675781 183.878906 C 344.171875 181.519531 337.9375 180.59375 337.9375 180.59375 C 337.9375 180.59375 334.0625 183.878906 332.378906 182.867188 C 331.621094 182.445312 331.703125 180.675781 331.703125 180.675781 C 329.09375 181.097656 328 181.773438 327.242188 182.613281 C 324.714844 185.394531 321.34375 191.964844 321.34375 196.089844 C 321.34375 200.808594 324.039062 201.484375 323.449219 206.621094 Z M 323.449219 206.621094 " fill-opacity="1" fill-rule="nonzero"></path><path fill="#477ce3" d="M 329.851562 167.453125 C 329.851562 167.453125 330.609375 168.464844 332.210938 169.304688 C 332.96875 169.726562 334.230469 170.402344 335.242188 170.738281 C 338.273438 171.832031 337.855469 176.464844 337.855469 176.464844 C 337.855469 176.464844 342.992188 173.011719 340.210938 166.441406 C 337.9375 161.136719 330.527344 162.652344 329.9375 165.179688 C 329.9375 165.179688 327.578125 166.1875 328.25 169.390625 C 328.25 169.390625 328.589844 167.707031 329.851562 167.453125 Z M 329.851562 167.453125 " fill-opacity="1" fill-rule="nonzero"></path><path fill="#477ce3" d="M 340.128906 164.839844 C 340.378906 164.671875 340.550781 164.589844 340.800781 164.503906 C 342.402344 163.746094 343.917969 163.242188 345.6875 163.832031 C 347.539062 164.503906 348.382812 166.359375 348.550781 168.210938 C 348.636719 169.390625 348.550781 170.484375 348.550781 171.664062 C 348.550781 172.757812 348.71875 173.9375 348.886719 175.035156 C 349.226562 176.800781 349.984375 178.65625 349.476562 180.507812 C 349.054688 182.195312 347.289062 183.371094 345.519531 183.457031 C 343.582031 183.457031 342.402344 181.6875 342.066406 179.917969 C 341.898438 178.738281 341.980469 177.476562 342.234375 176.382812 C 342.488281 175.285156 342.992188 174.191406 342.992188 173.011719 C 342.992188 171.582031 342.65625 170.148438 341.726562 169.054688 " fill-opacity="1" fill-rule="nonzero"></path><path fill="#477ce3" d="M 339.539062 165.261719 C 339.539062 165.261719 340.632812 166.949219 340.886719 169.136719 L 341.8125 169.054688 C 341.8125 169.054688 340.96875 165.601562 340.128906 165.011719 Z M 339.539062 165.261719 " fill-opacity="1" fill-rule="nonzero"></path><path fill="#477ce3" d="M 322.523438 213.613281 C 322.523438 213.613281 316.710938 245.28125 318.058594 256.234375 C 319.238281 266.089844 324.375 292.957031 325.472656 298.347656 C 325.554688 298.855469 326.0625 299.191406 326.566406 299.105469 L 334.0625 297.507812 C 334.398438 297.421875 334.652344 297.085938 334.652344 296.75 L 330.441406 257.75 L 332.042969 233.574219 C 332.042969 233.574219 331.789062 253.707031 333.304688 258.253906 C 334.738281 262.464844 347.625 291.273438 349.816406 296.074219 C 349.984375 296.410156 350.402344 296.582031 350.824219 296.410156 L 358.828125 292.789062 C 359.164062 292.621094 359.332031 292.199219 359.25 291.863281 L 345.265625 255.476562 C 345.265625 255.476562 348.382812 222.539062 343.414062 213.023438 " fill-opacity="1" fill-rule="nonzero"></path><path fill="#477ce3" d="M 323.566406 209.21875 L 301.242188 209.4375 L 301.234375 208.34375 L 323.554688 208.125 Z M 323.566406 209.21875 " fill-opacity="1" fill-rule="nonzero"></path><path fill="#477ce3" d="M 295.402344 209.484375 L 316.207031 209.316406 L 310.140625 195.164062 L 289.421875 195.417969 Z M 295.402344 209.484375 " fill-opacity="1" fill-rule="nonzero"></path><path fill="#477ce3" d="M 294.8125 209.484375 L 315.617188 209.316406 L 309.550781 195.164062 L 288.832031 195.417969 Z M 294.8125 209.484375 " fill-opacity="1" fill-rule="nonzero"></path><path fill="#477ce3" d="M 302.714844 202.15625 C 302.808594 202.382812 302.871094 202.613281 302.902344 202.847656 C 302.933594 203.078125 302.929688 203.296875 302.894531 203.5 C 302.859375 203.703125 302.789062 203.875 302.691406 204.019531 C 302.59375 204.160156 302.472656 204.261719 302.328125 204.320312 C 302.183594 204.378906 302.027344 204.394531 301.859375 204.363281 C 301.691406 204.332031 301.519531 204.253906 301.351562 204.136719 C 301.183594 204.019531 301.027344 203.867188 300.886719 203.679688 C 300.746094 203.492188 300.625 203.285156 300.53125 203.058594 C 300.4375 202.832031 300.375 202.601562 300.34375 202.367188 C 300.3125 202.136719 300.316406 201.917969 300.351562 201.714844 C 300.386719 201.511719 300.453125 201.339844 300.550781 201.195312 C 300.648438 201.054688 300.769531 200.953125 300.917969 200.894531 C 301.0625 200.835938 301.21875 200.820312 301.386719 200.851562 C 301.554688 200.882812 301.726562 200.960938 301.894531 201.078125 C 302.0625 201.195312 302.21875 201.347656 302.359375 201.535156 C 302.5 201.722656 302.621094 201.929688 302.714844 202.15625 Z M 302.714844 202.15625 " fill-opacity="1" fill-rule="nonzero"></path><path fill="#ff914d" d="M 342.738281 183.121094 C 343.835938 183.542969 344.425781 184.636719 344.507812 185.730469 C 344.84375 190.871094 346.53125 211.253906 342.824219 211.675781 C 338.445312 212.179688 338.191406 193.648438 338.78125 189.269531 C 339.285156 185.730469 340.210938 182.109375 342.738281 183.121094 Z M 342.738281 183.121094 " fill-opacity="1" fill-rule="nonzero"></path><path fill="#ff914d" d="M 345.855469 194.324219 C 345.855469 194.324219 346.867188 210.664062 343.582031 211.925781 C 340.296875 213.191406 321.429688 208.050781 321.429688 208.050781 L 322.523438 205.355469 L 339.203125 205.355469 L 338.273438 194.574219 Z M 345.855469 194.324219 " fill-opacity="1" fill-rule="nonzero"></path><path fill="#ff914d" d="M 344.003906 210.832031 C 343.328125 211.675781 342.148438 212.011719 341.054688 211.84375 C 335.917969 211.167969 319.070312 208.558594 318.480469 206.453125 C 317.804688 203.925781 342.992188 206.535156 343.664062 207.714844 C 344.171875 208.640625 345.011719 209.652344 344.003906 210.832031 Z M 344.003906 210.832031 " fill-opacity="1" fill-rule="nonzero"></path><path fill="#ff914d" d="M 317.722656 204.851562 C 317.890625 205.695312 317.132812 206.621094 318.566406 207.632812 C 319.914062 208.640625 322.609375 207.882812 322.609375 207.882812 L 322.777344 205.355469 C 322.777344 205.355469 322.1875 205.105469 321.933594 204.765625 C 321.679688 204.429688 320.671875 203.417969 319.15625 203.417969 C 317.636719 203.417969 315.363281 203.757812 315.28125 204.179688 C 315.195312 204.597656 317.636719 204.179688 317.722656 204.851562 Z M 317.722656 204.851562 " fill-opacity="1" fill-rule="nonzero"></path><path fill="#477ce3" d="M 346.277344 194.660156 L 338.023438 194.996094 C 337.9375 193.566406 337.433594 181.6875 341.898438 181.6875 C 345.941406 181.6875 346.277344 190.449219 346.277344 194.660156 Z M 346.277344 194.660156 " fill-opacity="1" fill-rule="nonzero"></path><path stroke-linecap="butt" transform="matrix(0.842318, 0, 0, 0.842318, -23.079508, -23.079498)" fill="none" stroke-linejoin="miter" d="M 428.998243 258.500533 L 428.50203 250.39882 " stroke="#263156" stroke-width="0.261" stroke-opacity="1" stroke-miterlimit="10"></path><path fill="#ff914d" d="M 47.507812 224.476562 C 47.339844 224.816406 47 224.730469 46.328125 224.476562 C 45.738281 224.226562 45.0625 223.71875 44.222656 223.046875 C 43.125 222.203125 41.949219 221.191406 40.601562 219.929688 C 34.535156 214.371094 26.617188 205.777344 26.785156 204.851562 C 27.039062 203.503906 26.871094 202.410156 29.734375 202.660156 C 30.238281 202.746094 30.746094 202.914062 31.082031 203.335938 C 32.851562 205.273438 39.082031 212.011719 43.378906 217.402344 C 44.304688 218.496094 45.0625 219.59375 45.738281 220.519531 C 47 222.457031 47.757812 223.886719 47.507812 224.476562 Z M 47.507812 224.476562 " fill-opacity="1" fill-rule="nonzero"></path><path fill="#ff914d" d="M 52.308594 226.078125 L 50.960938 226.753906 C 50.792969 226.921875 50.035156 227.003906 49.78125 226.921875 L 48.6875 226.667969 C 47.675781 226.414062 46.75 225.910156 45.90625 225.234375 L 44.304688 223.46875 L 43.96875 223.128906 L 44.390625 222.625 L 45.652344 220.941406 L 45.90625 220.519531 L 46.160156 220.519531 L 47.757812 220.351562 C 48.265625 220.351562 48.6875 220.351562 49.191406 220.601562 L 50.875 221.867188 C 50.875 221.867188 50.539062 222.203125 49.863281 222.035156 C 49.527344 221.949219 49.105469 222.035156 48.6875 222.121094 L 49.695312 222.707031 L 52.140625 224.394531 C 52.730469 224.730469 52.8125 225.574219 52.308594 226.078125 Z M 52.308594 226.078125 " fill-opacity="1" fill-rule="nonzero"></path><path fill="#ff914d" d="M 37.0625 182.953125 C 35.796875 182.867188 35.882812 181.351562 35.292969 182.445312 C 32.597656 187.246094 23.753906 203.335938 27.207031 205.441406 C 31.25 207.96875 38.15625 193.226562 39.589844 188.761719 C 40.851562 184.972656 40.09375 183.121094 37.0625 182.953125 Z M 37.0625 182.953125 " fill-opacity="1" fill-rule="nonzero"></path><path fill="#ff914d" d="M 35.714844 198.199219 C 35.714844 198.199219 32.933594 203.167969 32.933594 203.757812 C 32.933594 204.347656 45.992188 220.519531 45.992188 220.519531 L 43.96875 223.128906 C 43.96875 223.128906 26.28125 209.148438 25.691406 204.851562 C 25.101562 200.554688 30.324219 191.710938 30.324219 191.710938 Z M 35.714844 198.199219 " fill-opacity="1" fill-rule="nonzero"></path><path fill="#477ce3" d="M 40.769531 186.488281 C 40.769531 187.921875 40.429688 189.269531 39.839844 190.449219 C 39.335938 191.628906 38.492188 193.3125 37.652344 195.082031 C 37.652344 195.082031 37.652344 195.164062 37.652344 195.164062 C 37.566406 195.332031 37.484375 195.585938 37.398438 195.753906 C 37.0625 196.429688 36.808594 197.019531 36.472656 197.691406 C 36.304688 197.945312 36.21875 198.28125 36.050781 198.535156 L 35.796875 198.367188 L 31.753906 195.839844 L 28.386719 193.734375 C 30.914062 188.089844 33.019531 184.71875 34.367188 182.613281 C 35.292969 181.183594 37.144531 180.761719 38.492188 181.6875 C 39.589844 182.445312 40.769531 183.878906 40.769531 186.488281 Z M 40.769531 186.488281 " fill-opacity="1" fill-rule="nonzero"></path><path fill="#477ce3" d="M 35.714844 198.449219 L 31.671875 195.921875 L 33.441406 188.34375 C 33.441406 188.34375 34.871094 194.574219 35.714844 198.449219 Z M 35.714844 198.449219 " fill-opacity="1" fill-rule="nonzero"></path><path fill="#ff914d" d="M 41.1875 181.605469 L 41.359375 177.898438 C 41.359375 177.898438 35.796875 168.800781 40.261719 166.441406 C 44.8125 164.082031 49.023438 167.789062 49.023438 171.917969 C 49.023438 176.042969 48.6875 177.054688 46.832031 177.308594 L 47.167969 180.675781 " fill-opacity="1" fill-rule="nonzero"></path><path fill="#ff914d" d="M 52.140625 223.128906 C 49.277344 223.382812 47.253906 226.246094 47.675781 229.195312 C 48.011719 231.554688 48.769531 234.667969 50.453125 238.375 C 54.667969 247.726562 57.023438 259.6875 61.066406 260.359375 C 65.109375 260.949219 66.457031 253.875 64.101562 244.1875 C 61.996094 235.34375 61.742188 224.308594 58.878906 223.296875 C 57.445312 222.707031 54.582031 222.878906 52.140625 223.128906 Z M 52.140625 223.128906 " fill-opacity="1" fill-rule="nonzero"></path><path fill="#ff914d" d="M 56.855469 261.117188 C 56.855469 261.117188 57.023438 275.355469 60.5625 295.652344 L 66.628906 295.234375 C 66.628906 295.234375 66.964844 268.363281 65.617188 260.023438 C 64.269531 251.769531 56.855469 261.117188 56.855469 261.117188 Z M 56.855469 261.117188 " fill-opacity="1" fill-rule="nonzero"></path><path fill="#ff914d" d="M 41.863281 222.792969 C 39.082031 222.371094 36.386719 224.644531 36.050781 227.59375 C 35.796875 229.953125 35.796875 233.152344 36.554688 237.195312 C 38.324219 247.304688 37.820312 259.519531 41.527344 261.035156 C 45.234375 262.550781 48.347656 256.066406 48.433594 246.042969 C 48.515625 236.945312 50.960938 226.164062 48.433594 224.476562 C 47.167969 223.71875 44.304688 223.128906 41.863281 222.792969 Z M 41.863281 222.792969 " fill-opacity="1" fill-rule="nonzero"></path><path fill="#ff914d" d="M 36.894531 262.128906 C 36.894531 262.128906 33.523438 280.660156 33.691406 294.8125 L 39.503906 295.234375 C 39.503906 295.234375 45.652344 267.183594 45.90625 262.128906 C 46.242188 257.160156 36.894531 262.128906 36.894531 262.128906 Z M 36.894531 262.128906 " fill-opacity="1" fill-rule="nonzero"></path><path fill="#ff914d" d="M 44.472656 258.507812 C 37.988281 252.273438 33.355469 288.492188 33.945312 298.601562 C 34.535156 308.625 37.820312 300.875 41.441406 285.460938 C 45.0625 270.046875 47.085938 260.949219 44.472656 258.507812 Z M 44.472656 258.507812 " fill-opacity="1" fill-rule="nonzero"></path><path fill="#ff914d" d="M 60.476562 295.738281 L 60.984375 300.625 L 66.710938 300.625 L 66.628906 295.316406 Z M 60.476562 295.738281 " fill-opacity="1" fill-rule="nonzero"></path><path fill="#ff914d" d="M 33.691406 294.8125 L 33.1875 299.695312 L 38.832031 300.539062 L 39.503906 295.316406 Z M 33.691406 294.8125 " fill-opacity="1" fill-rule="nonzero"></path><path fill="#477ce3" d="M 60.898438 306.773438 L 60.898438 299.527344 C 60.898438 299.527344 63.175781 300.453125 66.710938 299.277344 C 66.710938 299.277344 69.324219 302.054688 71.851562 302.308594 C 74.375 302.5625 75.640625 303.65625 75.722656 305.085938 C 75.722656 307.78125 60.898438 306.773438 60.898438 306.773438 Z M 60.898438 306.773438 " fill-opacity="1" fill-rule="nonzero"></path><path fill="#477ce3" d="M 33.1875 298.9375 C 33.1875 298.9375 37.398438 299.949219 38.914062 299.527344 C 38.914062 299.527344 39.253906 301.800781 39.503906 302.644531 C 39.757812 303.488281 39.839844 304.078125 41.273438 304.667969 C 42.875 305.339844 42.875 307.53125 41.273438 307.445312 C 39.671875 307.363281 32.09375 306.097656 32.09375 306.097656 Z M 33.1875 298.9375 " fill-opacity="1" fill-rule="nonzero"></path><path fill="#477ce3" d="M 60.394531 221.867188 C 60.394531 221.867188 67.21875 250.675781 67.386719 258.675781 C 67.554688 266.761719 67.386719 295.820312 67.386719 295.820312 L 59.550781 295.992188 L 55.171875 258.253906 C 55.171875 258.253906 45.0625 228.183594 44.644531 224.476562 C 44.222656 220.773438 60.394531 221.867188 60.394531 221.867188 Z M 60.394531 221.867188 " fill-opacity="1" fill-rule="nonzero"></path><path fill="#477ce3" d="M 33.523438 225.320312 C 33.523438 225.320312 33.273438 227.679688 33.691406 233.152344 C 34.113281 238.628906 35.125 257.664062 35.039062 259.351562 C 34.957031 261.035156 32.683594 296.328125 32.683594 296.328125 L 40.601562 297.421875 C 40.601562 297.421875 47 264.152344 47.84375 259.769531 C 48.6875 255.304688 48.9375 223.886719 48.9375 223.886719 Z M 33.523438 225.320312 " fill-opacity="1" fill-rule="nonzero"></path><path fill="#477ce3" d="M 60.898438 221.949219 C 60.898438 221.949219 52.476562 226.921875 43.042969 227.089844 C 39.925781 227.171875 36.640625 226.667969 33.523438 225.320312 C 33.523438 225.320312 33.777344 210.328125 33.355469 202.242188 C 33.019531 194.238281 32.09375 183.371094 35.378906 181.183594 C 36.726562 180.257812 39.421875 180.085938 41.105469 180.003906 C 41.527344 180.003906 42.117188 180.339844 43.464844 180.339844 C 45.570312 180.339844 46.917969 179.835938 46.917969 179.835938 C 49.949219 179.835938 56.097656 180.507812 57.363281 186.066406 C 57.445312 186.574219 57.53125 186.996094 57.53125 187.585938 C 57.53125 187.667969 57.53125 187.835938 57.53125 187.921875 L 57.53125 188.003906 C 57.53125 188.257812 57.53125 188.511719 57.53125 188.847656 C 57.53125 189.101562 57.53125 189.4375 57.53125 189.691406 C 57.53125 190.109375 57.53125 190.617188 57.613281 191.121094 C 57.613281 191.457031 57.613281 191.796875 57.613281 192.046875 C 57.613281 193.566406 57.699219 195.25 57.78125 196.933594 C 58.121094 205.863281 58.792969 216.222656 60.898438 221.949219 Z M 60.898438 221.949219 " fill-opacity="1" fill-rule="nonzero"></path><path fill="#477ce3" d="M 57.867188 197.101562 L 48.9375 189.183594 L 57.699219 192.21875 C 57.78125 193.734375 57.78125 195.417969 57.867188 197.101562 Z M 57.867188 197.101562 " fill-opacity="1" fill-rule="nonzero"></path><path fill="#ff914d" d="M 91.726562 179.414062 C 91.980469 179.582031 91.980469 180.003906 91.558594 180.507812 C 91.222656 181.015625 90.632812 181.6875 89.960938 182.53125 C 89.03125 183.542969 87.855469 184.636719 86.507812 185.816406 C 80.355469 191.289062 71.007812 198.28125 70.082031 198.027344 C 68.816406 197.609375 67.636719 197.777344 68.226562 194.914062 C 68.3125 194.40625 68.566406 193.984375 68.984375 193.648438 C 71.089844 192.046875 78.417969 186.488281 84.230469 182.867188 C 85.410156 182.109375 86.589844 181.433594 87.601562 180.84375 C 89.621094 179.667969 91.140625 179.078125 91.726562 179.414062 Z M 91.726562 179.414062 " fill-opacity="1" fill-rule="nonzero"></path><path fill="#ff914d" d="M 93.496094 177.140625 C 94.675781 178.234375 93.917969 179.246094 93.917969 179.246094 C 93.582031 180.003906 92.488281 180.84375 91.898438 181.433594 C 91.8125 181.519531 91.726562 181.605469 91.644531 181.6875 L 90.042969 182.867188 L 89.707031 183.121094 L 89.285156 182.699219 L 87.9375 181.433594 L 87.601562 181.183594 L 87.601562 179.582031 C 87.601562 179.160156 87.683594 178.738281 87.9375 178.402344 L 89.203125 177.054688 C 89.203125 177.054688 89.453125 177.390625 89.203125 177.980469 C 89.117188 178.234375 89.117188 178.65625 89.203125 178.992188 L 89.792969 178.148438 L 90.550781 177.308594 C 90.96875 176.800781 92.316406 176.128906 93.496094 177.140625 Z M 93.496094 177.140625 " fill-opacity="1" fill-rule="nonzero"></path><path fill="#ff914d" d="M 49.359375 185.5625 C 49.191406 186.742188 47.675781 186.574219 48.6875 187.246094 C 53.148438 190.449219 68.3125 200.808594 70.753906 197.609375 C 73.703125 193.902344 59.71875 185.476562 55.339844 183.542969 C 51.800781 182.023438 49.863281 182.613281 49.359375 185.5625 Z M 49.359375 185.5625 " fill-opacity="1" fill-rule="nonzero"></path><path fill="#ff914d" d="M 61.152344 186.40625 L 68.984375 191.207031 L 87.683594 180.761719 L 89.792969 183.121094 C 89.792969 183.121094 80.273438 191.964844 76.0625 194.828125 C 71.851562 197.691406 71.261719 198.617188 68.816406 198.703125 C 66.375 198.871094 56.605469 193.144531 56.605469 193.144531 Z M 61.152344 186.40625 " fill-opacity="1" fill-rule="nonzero"></path><path fill="#477ce3" d="M 61.488281 186.238281 L 57.023438 193.902344 C 53.65625 192.21875 50.453125 190.449219 48.9375 189.183594 C 47.675781 188.175781 47.253906 185.394531 48.265625 184.128906 C 49.105469 183.035156 50.203125 179.835938 52.5625 180.761719 C 56.015625 182.277344 60.308594 185.476562 61.488281 186.238281 Z M 61.488281 186.238281 " fill-opacity="1" fill-rule="nonzero"></path><path fill="#ffffff" d="M 41.1875 179.496094 L 40.769531 180.085938 C 40.769531 180.085938 42.285156 180.761719 44.054688 180.59375 C 45.820312 180.425781 46.664062 180.171875 47.507812 179.835938 L 47 179.328125 C 47.085938 179.328125 43.714844 180.339844 41.1875 179.496094 Z M 41.1875 179.496094 " fill-opacity="1" fill-rule="nonzero"></path><path fill="#477ce3" d="M 50.875 167.707031 C 50.875 167.367188 50.707031 167.03125 50.539062 166.863281 C 50.707031 166.527344 50.707031 166.1875 50.707031 165.851562 C 50.707031 165.683594 50.707031 165.515625 50.625 165.261719 C 50.707031 165.011719 50.792969 164.671875 50.792969 164.335938 C 50.792969 162.90625 49.613281 161.726562 48.179688 161.726562 C 47.589844 161.726562 47 161.976562 46.582031 162.316406 C 46.496094 162.316406 46.496094 162.316406 46.410156 162.316406 C 45.820312 162.316406 45.316406 162.734375 45.234375 163.242188 C 45.0625 163.242188 44.980469 163.15625 44.8125 163.15625 C 44.054688 163.15625 43.378906 163.492188 42.957031 163.914062 C 42.789062 163.492188 42.367188 163.242188 41.863281 163.242188 C 41.359375 163.242188 40.9375 163.578125 40.683594 164 C 40.601562 164 40.429688 164 40.347656 164 C 38.914062 164 37.734375 165.179688 37.734375 166.609375 C 37.734375 166.695312 37.734375 166.695312 37.734375 166.777344 C 37.398438 166.863281 37.144531 167.199219 37.144531 167.535156 C 37.144531 167.707031 37.230469 167.957031 37.398438 168.042969 C 37.230469 168.378906 37.144531 168.800781 37.144531 169.222656 C 37.144531 169.894531 37.398438 170.570312 37.90625 170.992188 C 37.652344 171.410156 37.484375 171.917969 37.484375 172.507812 C 37.484375 173.6875 38.324219 174.695312 39.421875 175.035156 C 39.421875 175.539062 39.671875 175.875 40.09375 176.128906 C 40.011719 176.296875 39.925781 176.382812 39.925781 176.632812 C 39.925781 177.054688 40.261719 177.390625 40.683594 177.390625 C 40.769531 177.390625 40.851562 177.390625 40.9375 177.308594 C 41.273438 177.730469 41.441406 177.8125 41.441406 177.8125 C 42.367188 177.8125 43.296875 177.5625 43.96875 176.972656 C 44.054688 177.054688 44.222656 177.054688 44.304688 177.054688 C 44.726562 177.054688 45.0625 176.71875 45.0625 176.296875 C 45.0625 176.128906 44.980469 175.960938 44.894531 175.792969 C 44.894531 175.707031 44.980469 175.707031 44.980469 175.625 C 45.652344 173.6875 45.738281 173.6875 45.738281 172 C 45.652344 170.402344 47.757812 170.820312 49.445312 170.0625 C 49.867188 169.894531 50.117188 169.390625 50.203125 168.714844 C 50.539062 168.714844 50.875 168.210938 50.875 167.707031 Z M 50.875 167.707031 " fill-opacity="1" fill-rule="nonzero"></path></svg>